<svg xmlns="http://www.w3.org/2000/svg" viewBox="0 0 1000 657.47"><defs><style>.cls-1{fill:#fff;}.cls-2{fill:#414042;}.cls-3{fill:#231f20;}</style></defs><g id="Layer_2" data-name="Layer 2"><g id="Layer_1-2" data-name="Layer 1"><rect class="cls-1" width="1000" height="657.47"/><rect class="cls-2" x="0.63" y="327.02" width="998.73" height="3" rx="1.5" transform="translate(1000 657.04) rotate(180)"/><rect class="cls-2" x="0.63" y="495.39" width="998.73" height="3" rx="1.5" transform="translate(1000 993.78) rotate(-180)"/><rect class="cls-2" x="0.63" y="158.65" width="998.73" height="3" rx="1.5" transform="translate(1000 320.3) rotate(180)"/><rect class="cls-3" x="500" y="70.44" width="482.65" height="22.97" transform="translate(1482.65 163.84) rotate(180)"/><rect class="cls-3" x="500" y="106.05" width="482.65" height="6.26" transform="translate(1482.65 218.36) rotate(180)"/><rect class="cls-1" x="496.89" y="336.01" width="488.86" height="47.18" transform="translate(381.73 1100.92) rotate(-90)"/><rect class="cls-3" x="507.54" y="346.66" width="488.86" height="25.87" transform="translate(392.38 1111.57) rotate(-90)"/><rect class="cls-3" x="476.84" y="356.07" width="488.86" height="7.06" transform="translate(361.67 1080.86) rotate(-90)"/><rect class="cls-2" x="1.27" y="3.7" width="998.73" height="3" rx="1.5" transform="translate(1001.27 10.41) rotate(180)"/><rect class="cls-2" x="0.63" y="650.33" width="998.73" height="3" rx="1.5" transform="translate(1000 1303.67) rotate(-180)"/></g></g></svg>