<?xml version="1.0" standalone="no"?>
<!DOCTYPE svg PUBLIC "-//W3C//DTD SVG 20010904//EN"
 "http://www.w3.org/TR/2001/REC-SVG-20010904/DTD/svg10.dtd">
<svg version="1.0" xmlns="http://www.w3.org/2000/svg"
 width="502.000000pt" height="502.000000pt" viewBox="0 0 502.000000 502.000000"
 preserveAspectRatio="xMidYMid meet">
<metadata>
Created by potrace 1.11, written by Peter Selinger 2001-2013
</metadata>
<g transform="translate(0.000000,502.000000) scale(0.100000,-0.100000)"
fill="#000000" stroke="none">
<path d="M0 2505 l0 -2505 2505 0 2505 0 0 2505 0 2505 -2505 0 -2505 0 0
-2505z m4980 1805 l0 -670 -1145 0 -1145 0 0 295 0 295 -100 0 -100 0 0 -2045
0 -2045 100 0 100 0 2 543 3 542 1143 3 1142 2 0 -600 0 -600 -2475 0 -2475 0
2 598 3 597 1142 3 1143 2 0 -545 0 -545 30 0 30 0 0 2045 0 2045 -30 0 -30 0
0 -295 0 -295 -1145 0 -1145 0 0 670 0 670 2475 0 2475 0 0 -670z m-2660
-1280 l0 -580 -1145 0 -1145 0 0 580 0 580 1145 0 1145 0 0 -580z m2660 0 l0
-580 -1145 0 -1145 0 0 580 0 580 1145 0 1145 0 0 -580z m-2660 -1190 l0 -580
-1145 0 -1145 0 0 580 0 580 1145 0 1145 0 0 -580z m2660 0 l0 -580 -1145 0
-1145 0 0 580 0 580 1145 0 1145 0 0 -580z"/>
<path d="M630 4600 l0 -130 1880 0 1881 0 -3 128 -3 127 -1877 3 -1878 2 0
-130z"/>
<path d="M630 4295 l0 -35 1880 0 1880 0 0 35 0 35 -1880 0 -1880 0 0 -35z"/>
</g>
</svg>
