<svg width="682" height="696" version="1.1" viewBox="0 0 180.45 184.15" xmlns="http://www.w3.org/2000/svg">
  <path d="m180.08 29.312v16.144c0 14.227-39.69 25.831-88.611 25.831-48.921 0-88.611-11.604-88.611-25.831v-16.144c0-14.227 39.69-25.831 88.611-25.831 48.921 0 88.611 11.604 88.611 25.831zm0 36.325v36.325c0 14.227-39.69 25.831-88.611 25.831-48.921 0-88.611-11.604-88.611-25.831v-36.325c19.038 11.705 53.882 17.154 88.611 17.154 34.729 0 69.573-5.4489 88.611-17.154zm0 56.505v36.325c0 14.227-39.69 25.831-88.611 25.831-48.921 0-88.611-11.604-88.611-25.831v-36.325c19.038 11.705 53.882 17.154 88.611 17.154 34.729 0 69.573-5.4489 88.611-17.154z" fill="#fffc6b" stroke="#000" stroke-width="3.175"/>
  <g transform="matrix(.13143 0 0 .1307 17.351 41.019)">
    <g fill="none" stroke="#fff" stroke-linecap="round" stroke-linejoin="round" stroke-width="12.465">
      <path d="m323.2 324.23c2.833-23.601 1.984-27.062 19.563-23.239l4.463 0.392c13.517 0.615 31.199-2.174 41.587-7 22.362-10.376 35.622-27.7 13.572-23.148-50.297 10.376-53.755-6.655-53.755-6.655 53.111-78.803 75.313-178.84 56.149-203.32-52.27-66.789-142.75-35.206-144.26-34.386l-0.482 0.089c-9.938-2.062-21.06-3.294-33.554-3.496-22.761-0.374-40.032 5.967-53.133 15.904 0 0-161.41-66.498-153.9 83.628 1.597 31.936 45.777 241.66 98.47 178.31 19.259-23.163 37.871-42.748 37.871-42.748 9.242 6.14 20.307 9.272 31.912 8.147l0.897-0.765c-0.281 2.876-0.157 5.689 0.359 9.019-13.572 15.167-9.584 17.83-36.723 23.416-27.457 5.659-11.326 15.734-0.797 18.367 12.768 3.193 42.305 7.716 62.268-20.224l-0.795 3.188c5.325 4.26 4.965 30.619 5.72 49.452 0.756 18.834 2.017 36.409 5.856 46.771 3.839 10.36 8.369 37.05 44.036 29.406 29.809-6.388 52.6-15.582 54.677-101.11" fill="#000" stroke="#000" stroke-linecap="butt" stroke-linejoin="miter" stroke-width="37.395"/>
      <path d="m402.4 271.23c-50.302 10.376-53.76-6.655-53.76-6.655 53.111-78.808 75.313-178.84 56.153-203.33-52.27-66.785-142.75-35.2-144.26-34.38l-0.486 0.087c-9.938-2.063-21.06-3.292-33.56-3.496-22.761-0.373-40.026 5.967-53.127 15.902 0 0-161.41-66.495-153.9 83.63 1.597 31.938 45.776 241.66 98.471 178.31 19.26-23.163 37.869-42.748 37.869-42.748 9.243 6.14 20.308 9.272 31.908 8.147l0.901-0.765c-0.28 2.876-0.152 5.689 0.361 9.019-13.575 15.167-9.586 17.83-36.723 23.416-27.459 5.659-11.328 15.734-0.796 18.367 12.768 3.193 42.307 7.716 62.266-20.224l-0.796 3.188c5.319 4.26 9.054 27.711 8.428 48.969-0.626 21.259-1.044 35.854 3.147 47.254s8.368 37.05 44.042 29.406c29.809-6.388 45.256-22.942 47.405-50.555 1.525-19.631 4.976-16.729 5.194-34.28l2.768-8.309c3.192-26.611 0.507-35.196 18.872-31.203l4.463 0.392c13.517 0.615 31.208-2.174 41.591-7 22.358-10.376 35.618-27.7 13.573-23.148z" fill="#336791" stroke="none"/>
      <path d="m215.87 286.48c-1.385 49.516 0.348 99.377 5.193 111.5 4.848 12.118 15.223 35.688 50.9 28.045 29.806-6.39 40.651-18.756 45.357-46.051 3.466-20.082 10.148-75.854 11.005-87.281"/>
      <path d="m173.1 38.256s-161.52-66.016-154.01 84.109c1.597 31.938 45.779 241.66 98.473 178.32 19.256-23.166 36.671-41.335 36.671-41.335"/>
      <path d="m260.35 26.207c-5.591 1.753 89.848-34.889 144.09 34.417 19.159 24.484-3.043 124.52-56.153 203.33"/>
      <path d="m348.28 263.95s3.461 17.036 53.764 6.653c22.04-4.552 8.776 12.774-13.577 23.155-18.345 8.514-59.474 10.696-60.146-1.069-1.729-30.355 21.647-21.133 19.96-28.739-1.525-6.85-11.979-13.573-18.894-30.338-6.037-14.633-82.796-126.85 21.287-110.18 3.813-0.789-27.146-99.002-124.55-100.6-97.385-1.597-94.19 119.76-94.19 119.76" stroke-linejoin="bevel"/>
      <path d="m188.6 274.33c-13.577 15.166-9.584 17.829-36.723 23.417-27.459 5.66-11.326 15.733-0.797 18.365 12.768 3.195 42.307 7.718 62.266-20.229 6.078-8.509-0.036-22.086-8.385-25.547-4.034-1.671-9.428-3.765-16.361 3.994z"/>
      <path d="m187.72 274.07c-1.368-8.917 2.93-19.528 7.536-31.942 6.922-18.626 22.893-37.255 10.117-96.339-9.523-44.029-73.396-9.163-73.436-3.193-0.039 5.968 2.889 30.26-1.067 58.548-5.162 36.913 23.488 68.132 56.479 64.938"/>
      <path d="m172.52 141.7c-0.288 2.039 3.733 7.48 8.976 8.207 5.234 0.73 9.714-3.522 9.998-5.559 0.284-2.039-3.732-4.285-8.977-5.015-5.237-0.731-9.719 0.333-9.996 2.367z" fill="#fff" stroke-linecap="butt" stroke-linejoin="miter" stroke-width="4.155"/>
      <path d="m331.94 137.54c0.284 2.039-3.732 7.48-8.976 8.207-5.238 0.73-9.718-3.522-10.005-5.559-0.277-2.039 3.74-4.285 8.979-5.015s9.718 0.333 10.002 2.368z" fill="#fff" stroke-linecap="butt" stroke-linejoin="miter" stroke-width="2.0775"/>
      <path d="m350.68 123.43c0.863 15.994-3.445 26.888-3.988 43.914-0.804 24.748 11.799 53.074-7.191 81.435"/>
      <path d="m0 60.232" stroke-width="3"/>
    </g>
  </g>
  <g transform="matrix(.20698 0 0 .20711 92.819 11.191)" fill="#00546b">
    <path d="m235.65 194.21c-13.918-0.34707-24.705 1.0456-33.753 4.8723-2.6097 1.0434-6.7857 1.0445-7.1338 4.3495 1.3927 1.3927 1.5663 3.6543 2.7843 5.5676 2.0891 3.4785 5.7412 8.1773 9.0472 10.613 3.6531 2.7832 7.3074 5.5665 11.134 8.0026 6.7857 4.176 14.441 6.611 21.052 10.787 3.8289 2.434 7.6544 5.5676 11.482 8.1773 1.9145 1.3905 3.1314 3.6531 5.5676 4.523v-0.52172c-1.2181-1.5662-1.5663-3.8278-2.7832-5.5676-1.7387-1.7398-3.4796-3.3061-5.2194-5.0459-5.0459-6.7846-11.309-12.7-18.094-17.572-5.5665-3.8278-17.746-9.0472-20.008-15.485 0 0-0.17462-0.17354-0.34816-0.34708 3.8278-0.34818 8.3508-1.7398 12.005-2.7844 5.9158-1.5662 11.309-1.2181 17.398-2.7832 2.7832-0.69635 5.5676-1.5662 8.3508-2.4362v-1.5652c-3.1303-3.1325-5.3929-7.3074-8.699-10.265-8.8726-7.6567-18.616-15.137-28.707-21.399-5.3941-3.4796-12.353-5.7422-18.094-8.699-2.0869-1.0456-5.5676-1.5662-6.7846-3.3061-3.1325-3.8278-4.8723-8.8725-7.1338-13.397-5.0436-9.57-9.9171-20.181-14.267-30.272-3.1303-6.7857-5.0448-13.571-8.8726-19.834-17.92-29.577-37.406-47.496-67.331-65.069-6.4375-3.6532-14.092-5.2194-22.269-7.1327-4.3484-0.17464-8.699-0.52172-13.049-0.69636-2.7832-1.2181-5.5676-4.523-8.0038-6.0893-9.9149-6.2639-35.491-19.833-42.799-1.9133-4.6977 11.309 6.9592 22.443 10.96 28.185 2.959 4.0013 6.7857 8.5244 8.8737 13.049 1.2181 2.9557 1.5652 6.0893 2.7832 9.2207 2.7843 7.6534 5.3929 16.18 9.0472 23.314 1.9144 3.6532 4.0013 7.4809 6.4375 10.786 1.3916 1.9133 3.8267 2.7843 4.3495 5.9158-2.4351 3.4796-2.6097 8.699-4.0024 13.049-6.2628 19.66-3.8267 44.017 5.0459 58.457 2.7832 4.3484 9.3953 13.92 18.268 10.265 7.8291-3.1314 6.0893-13.049 8.3508-21.748 0.52283-2.0891 0.17464-3.4796 1.2181-4.8712 9.06e-4 0.17354 0 0.34818 0 0.34818 2.4362 4.8712 4.8712 9.569 7.1327 14.44 5.394 8.5244 14.788 17.398 22.617 23.314 4.1771 3.1303 7.482 8.5244 12.701 10.439v-0.52283h-0.34818c-1.0445-1.5662-2.6097-2.2615-4.0013-3.4796-3.1314-3.1314-6.6121-6.9592-9.0472-10.439-7.3063-9.7436-13.745-20.529-19.486-31.665-2.7832-5.393-5.2194-11.309-7.4809-16.702-1.0445-2.0891-1.0445-5.2194-2.7843-6.2628-2.6097 3.8267-6.4364 7.1328-8.3508 11.83-3.3039 7.4809-3.6531 16.702-4.8712 26.271-0.69527 0.17465-0.34819 0-0.69637 0.34819-5.5665-1.3927-7.4809-7.1328-9.569-12.005-5.2194-12.352-6.0893-32.186-1.5652-46.452 1.2181-3.6542 6.4375-15.137 4.3495-18.616-1.0434-3.3061-4.5242-5.2194-6.4375-7.8291-2.2615-3.3061-4.6977-7.4809-6.2628-11.135-4.176-9.7425-6.2639-20.529-10.787-30.273-2.088-4.5241-5.7411-9.2207-8.699-13.396-3.305-4.6977-6.9592-8.0037-9.5689-13.571-0.8688-1.9133-2.088-5.0448-0.69636-7.1328 0.34818-1.3916 1.0434-1.9133 2.4362-2.2615 2.2615-1.9144 8.699 0.52172 10.96 1.5652 6.4375 2.6086 11.83 5.0459 17.224 8.699 2.4351 1.7398 5.0448 5.0459 8.1762 5.9158h3.6542c5.5676 1.217 11.83 0.34817 17.05 1.9133 9.2218 2.9568 17.572 7.3074 25.054 12.005 22.792 14.44 41.581 34.971 54.282 59.501 2.088 4.0002 2.9568 7.6556 4.8712 11.83 3.6542 8.5255 8.1773 17.224 11.83 25.575 3.6531 8.1762 7.1327 16.528 12.352 23.314 2.6108 3.652 13.049 5.5665 17.746 7.4809 3.4796 1.5652 8.8737 2.9579 12.005 4.8712 5.9147 3.652 11.83 7.8291 17.398 11.83 2.7843 2.0869 11.482 6.4375 12.005 9.916z"/>
    <path d="m58.186 43.022c-2.9579 0-5.0448 0.34929-7.1327 0.87102v0.34818h0.34819c1.3927 2.7832 3.8267 4.6977 5.5665 7.1327 1.3927 2.7832 2.6097 5.5676 4.0024 8.3519 0.17353-0.17465 0.34707-0.34818 0.34707-0.34818 2.4373-1.7409 3.6542-4.5241 3.6542-8.699-1.0445-1.2181-1.2181-2.4362-2.088-3.6542-1.0434-1.7409-3.3061-2.6097-4.6977-4.0024z"/>
  </g>
  <g transform="matrix(.22639 -.13693 .13693 .22639 18.211 142.91)" fill="none" fill-rule="evenodd">
    <path d="m476.71 60.463c-0.46106 0.09238-0.92212 1.1078-0.92212 1.6612-0.0924 3.6911-0.18476 13.473-0.18476 20.117 0 0.18477 0.27629 0.55344 0.55344 0.55344 1.384 0.09238 4.7064 0.18477 7.5669 0.18477 3.9682 0 6.2752-0.55344 7.5678-1.1069 3.3215-1.6612 4.8903-5.2607 4.8903-9.229 0-8.9509-6.2752-12.366-15.596-12.366-0.64582-0.09152-2.4909-0.09152-3.8758 0.18477zm23.809 41.25c0-9.1357-6.7372-14.212-18.918-14.212-0.55344 0-4.4293-0.09238-5.3523 0.09238-0.27715 0.09239-0.64582 0.27715-0.64582 0.55431 0 6.5515-0.0924 16.98 0.18476 21.039 0.18391 1.7536 1.4764 4.2454 3.0452 4.9836 1.6603 0.92298 5.4446 1.1069 8.028 1.1069 7.2906 0 13.658-4.0597 13.658-13.565zm-42.634-46.325c0.92212 0 3.6911 0.27629 10.797 0.27629 6.7363 0 12.089-0.18391 18.641-0.18391 8.028 0 19.102 2.8605 19.102 14.857 0 5.9066-4.153 10.613-9.5976 12.92-0.27629 0.09238-0.27629 0.27629 0 0.36867 7.7517 1.9383 14.581 6.7372 14.581 15.78 0 8.8594-5.537 14.488-13.566 17.995-4.8912 2.1223-10.982 2.8605-17.165 2.8605-4.7064 0-17.348-0.55344-24.362-0.36868-0.73821-0.27715 0.64583-3.5995 1.2917-4.153 1.6612-0.0924 2.9528-0.18477 4.7064-0.73821 2.4918-0.64583 2.7681-1.384 3.1376-5.1675 0.18477-3.23 0.18477-14.674 0.18477-22.794 0-11.166 0.0924-18.733 0-22.424-0.0924-2.8605-1.1078-3.7834-3.1376-4.3378-1.5688-0.27629-4.153-0.64583-6.2752-0.92212-0.46192-0.46192 1.1069-3.5995 1.6612-3.9682zm-53.247 57.399c2.2155 1.7527 6.5524 2.4909 10.428 2.4909 4.9836 0 9.9663-0.92212 14.765-5.2599 4.8912-4.4293 8.3051-11.258 8.3051-22.147 0-10.428-3.9682-18.918-12.089-23.901-4.614-2.8613-10.521-4.0606-17.349-4.0606-2.0299 0-3.9682 0.09239-5.1675 0.64583-0.27715 0.18477-0.92298 1.0154-0.92298 1.4764-0.18477 1.846-0.18477 16.057-0.18477 24.363 0 8.5823 0 20.578 0.18477 21.962 0 1.3849 0.64583 3.5072 2.0299 4.4301zm-20.948-57.399c1.7536 0 8.4899 0.27629 11.72 0.27629 5.8142 0 9.9663-0.27629 20.948-0.27629 9.2281 0 16.98 2.4918 22.517 7.1974 6.7363 5.8142 10.243 13.843 10.243 23.625 0 13.935-6.3676 21.963-12.735 26.577-6.3668 4.7064-14.673 7.4745-26.484 7.4745-6.2752 0-17.072-0.18477-26.024-0.27716h-0.0924c-0.46105-0.82973 0.73822-4.0597 1.4764-4.1521 2.3994-0.27715 3.0452-0.36954 4.2454-0.83059 1.9375-0.73822 2.307-1.7536 2.5842-5.1675 0.27629-6.3676 0.18391-14.027 0.18391-22.702 0-6.1829 0.0924-18.272-0.0924-22.148-0.27629-3.2291-1.6603-4.0597-4.4293-4.614-1.384-0.27629-3.23-0.64583-5.8133-0.92212-0.36954-0.64669 1.2916-3.5072 1.7527-4.0606z" fill="#8e714e"/>
    <path d="m272.03 116.39c-2.307-0.27716-3.9682-0.64583-5.999-1.5688-0.27629-0.18477-0.73821-1.1069-0.73821-1.4764-0.18477-3.23-0.18477-12.458-0.18477-18.641 0-4.9836-0.82974-9.3205-2.9528-12.366-2.4918-3.5072-6.0905-5.537-10.705-5.537-4.0606 0-9.5052 2.7689-14.027 6.6448-0.0924 0.09152-0.83059 0.73821-0.73821-0.27715 0-1.0154 0.18477-3.0452 0.27716-4.4293 0.0924-1.2925-0.64583-1.9383-0.64583-1.9383-2.9537 1.4764-11.259 3.4148-14.304 3.6911-2.2146 0.46192-2.7681 2.5842-0.46106 3.3224h0.0924c2.4909 0.73821 4.1521 1.5688 5.4438 2.3994 0.92298 0.73821 0.83059 1.7536 0.83059 2.5842 0.0924 6.9211 0.0924 17.533-0.1839 23.347-0.0924 2.307-0.73822 3.1368-2.3994 3.5063l0.18391-0.0924c-1.2917 0.27715-2.307 0.55344-3.8758 0.73821-0.55344 0.55345-0.55344 3.5072 0 4.153 1.0154 0 6.3676-0.27716 10.798-0.27716 6.0905 0 9.2281 0.27716 10.797 0.27716 0.64583-0.73821 0.8306-3.5072 0.46106-4.153-1.7536-0.0924-3.0452-0.27629-4.2445-0.64583-1.6612-0.36953-2.1231-1.1993-2.2155-3.1376-0.18391-4.8912-0.18391-15.226-0.18391-22.24 0-1.9383 0.55344-2.8613 1.1069-3.4148 2.1222-1.8451 5.537-3.1376 8.5823-3.1376 2.9528 0 4.8912 0.92298 6.3676 2.1231 2.0299 1.6603 2.6757 4.0597 2.9528 5.8133 0.46106 3.9682 0.27715 11.812 0.27715 18.641 0 3.6911-0.27715 4.614-1.6612 5.0751-0.64583 0.27715-2.307 0.64669-4.2454 0.8306-0.64583 0.64583-0.46106 3.5072 0 4.153 2.6766 0 5.8142-0.27715 10.428-0.27715 5.7209 0 9.4129 0.27715 10.889 0.27715 0.46106-0.55344 0.64583-3.23 0.27629-3.9682h8.7e-4zm25.562-35.251c-4.8912 0-7.9364 3.7834-7.9364 9.6891 0 5.9981 2.6757 12.919 10.243 12.919 1.2916 0 3.6911-0.55345 4.798-1.8451 1.7536-1.6612 2.9537-4.9836 2.9537-8.4899 0-7.6593-3.7843-12.273-10.059-12.273zm-0.64669 40.788c-1.8451 0-3.1376 0.55345-3.9674 1.0154-3.8767 2.4909-5.6294 4.8903-5.6294 7.7517 0 2.6757 1.0145 4.798 3.23 6.6439 2.6757 2.307 6.3668 3.4148 11.073 3.4148 9.4129 0 13.566-5.076 13.566-10.059 0-3.5072-1.7536-5.8142-5.3522-7.1058-2.5842-1.1078-7.2906-1.6612-12.92-1.6612zm0.64669 23.993c-5.6294 0-9.69-1.2001-13.196-3.8758-3.4148-2.5842-4.8912-6.46-4.8912-9.1357 0-0.73821 0.18476-2.769 1.846-4.614 1.0145-1.1078 3.2291-3.23 8.4899-6.8287 0.18391-0.0924 0.27629-0.18477 0.27629-0.36953 0-0.18477-0.18477-0.36954-0.36867-0.46106-4.3378-1.6612-5.6294-4.3378-5.999-5.8142v-0.18477c-0.0915-0.55344-0.27629-1.1069 0.55431-1.6612 0.64583-0.46105 1.5688-1.0145 2.5833-1.6603 1.5688-0.92298 3.23-1.9383 4.2454-2.7689 0.18477-0.18477 0.18477-0.36867 0.18477-0.55344s-0.18477-0.36954-0.36954-0.46106c-6.4591-2.1231-9.6892-6.9219-9.6892-14.119 0-4.7064 2.1223-8.9518 5.9057-11.627 2.5842-2.0307 9.0433-4.5217 13.289-4.5217h0.27716c4.3369 0.09152 6.7363 1.0145 10.15 2.2146 1.846 0.64583 3.5995 0.92212 5.999 0.92212 3.5987 0 5.1675-1.1069 6.4591-2.3985 0.0924 0.18391 0.27716 0.64583 0.36954 1.8451 0.0924 1.2001-0.27715 2.9528-1.2001 4.2454-0.73822 1.0145-2.3986 1.7536-4.0597 1.7536h-0.46192c-1.6612-0.18477-2.3994-0.36954-2.3994-0.36954l-0.36868 0.18477c-0.0924 0.18477 0 0.36868 0.0924 0.64583l0.0924 0.18477c0.18391 0.8306 0.55345 3.3215 0.55345 3.9682 0 7.5669-3.0452 10.888-6.2752 13.38-3.1376 2.307-6.7363 3.7834-10.797 4.153-0.0924 0-0.46106 0-1.2916 0.0924-0.46193 0-1.1078 0.0924-1.2001 0.0924h-0.0924c-0.73822 0.1839-2.5833 1.1069-2.5833 2.6757 0 1.384 0.83059 3.0452 4.7979 3.3224 0.8306 0.0924 1.6612 0.0924 2.5842 0.18477 5.2599 0.36867 11.812 0.83059 14.858 1.8451 4.2445 1.5688 6.9211 5.3522 6.9211 9.8748 0 6.8287-4.8912 13.196-13.012 17.164-3.9682 1.7536-7.9364 2.6766-12.273 2.6766zm52.6-64.32c-1.9384 0-3.6919 0.46106-4.9836 1.384-3.5987 2.2146-5.4446 6.6448-5.4446 13.104 0 12.089 6.0905 20.579 14.765 20.579 2.5842 0 4.614-0.73821 6.3676-2.2146 2.6757-2.2155 4.0606-6.6448 4.0606-12.828 0-11.996-5.9989-20.025-14.765-20.025zm1.6612 39.497c-15.688 0-21.318-11.535-21.318-22.332 0-7.5669 3.0452-13.381 9.1357-17.534 4.3378-2.6757 9.5052-4.1521 14.119-4.1521 11.996 0 20.395 8.5823 20.395 20.948 0 8.3975-3.3224 15.041-9.69 19.102-3.0452 2.0299-8.3051 3.9682-12.643 3.9682zm-164.45-39.497c-1.9383 0-3.6911 0.46106-4.9836 1.384-3.5987 2.2146-5.4446 6.6448-5.4446 13.104 0 12.089 6.0905 20.579 14.765 20.579 2.5842 0 4.614-0.73821 6.3676-2.2146 2.6757-2.2155 4.0606-6.6448 4.0606-12.828 0-11.996-5.9066-20.025-14.765-20.025zm1.6612 39.497c-15.688 0-21.318-11.535-21.318-22.332 0-7.5669 3.0452-13.381 9.1357-17.534 4.3378-2.6757 9.5052-4.1521 14.119-4.1521 11.997 0 20.395 8.5823 20.395 20.948 0 8.3975-3.3224 15.041-9.69 19.102-2.9528 2.0299-8.2127 3.9682-12.642 3.9682zm-105.48-0.92299c-0.18477-0.27629-0.36954-1.1069-0.27715-2.1222 0-0.73821 0.18477-1.2001 0.27715-1.384 1.9375-0.27715 2.9528-0.55431 4.0597-0.8306 1.846-0.46192 2.5842-1.4764 2.6766-3.7834 0.27715-5.537 0.27715-16.058 0.18477-23.347v-0.18477c0-0.8306 0-1.846-1.0154-2.5842-1.4764-0.92212-3.23-1.7527-5.537-2.3994-0.8306-0.27629-1.384-0.73821-1.2917-1.2917 0-0.55344 0.55344-1.1993 1.7536-1.384 3.0452-0.27715 10.981-2.2146 14.118-3.5987 0.18477 0.1839 0.46192 0.73821 0.46192 1.4764l-0.09238 1.0145c-0.09238 1.0154-0.18477 2.2155-0.18477 3.4148 0 0.36868 0.36954 0.64583 0.73821 0.64583 0.18477 0 0.36954-0.09238 0.5543-0.18477 5.9057-4.614 11.258-6.2752 14.026-6.2752 4.5225 0 8.0288 2.1231 10.705 6.5524 0.18391 0.27715 0.36868 0.36867 0.64583 0.36867 0.18477 0 0.46106-0.09152 0.55345-0.27629 5.4446-4.153 10.889-6.6448 14.488-6.6448 8.5822 0 13.658 6.3676 13.658 17.165 0 3.0452 0 7.0135-0.0924 10.613 0 3.2291-0.0924 6.1828-0.0924 8.3051 0 0.46106 0.64583 1.9375 1.6612 2.2146 1.2916 0.64583 3.0452 0.92299 5.3522 1.2917h0.0924c0.18477 0.64583-0.18477 3.0452-0.55345 3.5072-0.5543 0-1.3849 0-2.307-0.0924-1.7536-0.0924-4.2454-0.18477-7.0134-0.18477-5.7218 0-8.6746 0.0924-11.536 0.27716-0.18391-0.73821-0.27629-2.9528 0-3.5072 1.6612-0.27629 2.4918-0.55344 3.5072-0.8306 1.846-0.55344 2.307-1.384 2.3994-3.7834 0-1.7527 0.36868-16.703-0.18477-20.302-0.55344-3.6911-3.3224-8.028-9.4128-8.028-2.307 0-5.9057 0.92298-9.4129 3.5987-0.18391 0.18477-0.36868 0.64583-0.36868 0.92298v0.09238c0.36868 1.9375 0.36868 4.153 0.36868 7.5669v5.9981c0 4.153-0.0924 8.0288 0 10.982 0 2.0307 1.2001 2.4918 2.2155 2.8613 0.55344 0.0915 0.92212 0.18391 1.384 0.27629 0.8306 0.18477 1.6612 0.36954 2.9528 0.64583 0.18477 0.36954 0.18477 1.5688-0.0924 2.5842-0.0924 0.55344-0.27716 0.83059-0.36868 0.92298-3.1376-0.0924-6.3676-0.18477-11.074-0.18477-1.384 0-3.7834 0.0924-5.8142 0.0924-1.6612 0-3.23 0.0924-4.1521 0.0924-0.0924-0.18477-0.27715-0.8306-0.27715-1.846 0-0.83059 0.18477-1.4764 0.36954-1.6612 0.46105-0.0924 0.82973-0.18391 1.2916-0.18391 1.1069-0.18476 2.0299-0.36953 2.9528-0.5543 1.5688-0.46106 2.1222-1.2917 2.2146-3.3215 0.27715-4.614 0.55344-17.81-0.0924-21.133-1.1069-5.3523-4.1521-8.0288-9.0433-8.0288-2.8605 0-6.46 1.384-9.4129 3.5995-0.46106 0.36868-0.8306 1.2917-0.8306 2.1223v5.4446c0 6.6439 0 14.95 0.09238 18.549 0.09238 1.1069 0.46106 2.3994 2.5842 2.8605 0.46106 0.0924 1.1993 0.27716 2.1223 0.36954l1.6612 0.27629c0.18477 0.55431 0.0924 2.769-0.27715 3.5072-0.92299 0-2.0299-0.0924-3.3224-0.0924-1.9375-0.0924-4.4293-0.18477-7.1974-0.18477-3.23 0-5.537 0.0924-7.383 0.18477-1.2917-0.18477-2.307-0.18477-3.4139-0.18477z" fill="#442d22"/>
    <path d="m35.053 142.32-3.7834-1.2925s0.46192-19.287-6.4591-20.671c-4.614-5.3522 0.73821-227.01 17.348-0.73821 0 0-5.7209 2.8605-6.7363 7.7517-1.1078 4.7988-0.36954 14.95-0.36954 14.95z" fill="#fff"/>
    <path d="m35.053 142.32-3.7834-1.2925s0.46192-19.287-6.4591-20.671c-4.614-5.3522 0.73821-227.01 17.348-0.73821 0 0-5.7209 2.8605-6.7363 7.7517-1.1078 4.7988-0.36954 14.95-0.36954 14.95z" fill="#a6a385"/>
    <path d="m37.084 123.68s33.129-21.779 25.377-67.089c-7.4745-32.944-25.101-43.741-27.038-47.894-2.1223-2.9528-4.153-8.1203-4.153-8.1203l1.3849 91.635c0 0.09238-2.8613 28.054 4.4293 31.469" fill="#fff"/>
    <path d="m37.084 123.68s33.129-21.779 25.377-67.089c-7.4745-32.944-25.101-43.741-27.038-47.894-2.1223-2.9528-4.153-8.1203-4.153-8.1203l1.3849 91.635c0 0.09238-2.8613 28.054 4.4293 31.469" fill="#499d4a"/>
    <path d="m29.333 124.88s-31.099-21.225-29.253-58.599c1.7527-37.374 23.716-55.738 27.961-59.06 2.7689-2.9528 2.8613-4.0606 3.0461-7.0135 1.9375 4.153 1.5688 62.106 1.8451 68.934 0.8306 26.3-1.4764 50.755-3.5987 55.738z" fill="#fff"/>
    <path d="m29.333 124.88s-31.099-21.225-29.253-58.599c1.7527-37.374 23.716-55.738 27.961-59.06 2.7689-2.9528 2.8613-4.0606 3.0461-7.0135 1.9375 4.153 1.5688 62.106 1.8451 68.934 0.8306 26.3-1.4764 50.755-3.5987 55.738z" fill="#58aa50"/>
  </g>
</svg>
