<?xml version="1.0" encoding="UTF-8" standalone="no"?>
<svg
   xmlns:dc="http://purl.org/dc/elements/1.1/"
   xmlns:cc="http://creativecommons.org/ns#"
   xmlns:rdf="http://www.w3.org/1999/02/22-rdf-syntax-ns#"
   xmlns:svg="http://www.w3.org/2000/svg"
   xmlns="http://www.w3.org/2000/svg"
   xmlns:sodipodi="http://sodipodi.sourceforge.net/DTD/sodipodi-0.dtd"
   xmlns:inkscape="http://www.inkscape.org/namespaces/inkscape"
   width="682"
   height="696"
   viewBox="0 0 180.44583 184.15001"
   version="1.1"
   id="svg690"
   inkscape:version="1.0.1 (0767f8302a, 2020-10-17)"
   sodipodi:docname="db.svg">
  <defs
     id="defs684" />
  <sodipodi:namedview
     id="base"
     pagecolor="#ffffff"
     bordercolor="#666666"
     borderopacity="1.0"
     inkscape:pageopacity="0.0"
     inkscape:pageshadow="2"
     inkscape:zoom="0.35"
     inkscape:cx="-121.42857"
     inkscape:cy="560"
     inkscape:document-units="mm"
     inkscape:current-layer="layer1"
     inkscape:document-rotation="0"
     showgrid="false"
     inkscape:window-width="1366"
     inkscape:window-height="704"
     inkscape:window-x="0"
     inkscape:window-y="0"
     inkscape:window-maximized="0"
     units="px" />
  <metadata
     id="metadata687">
    <rdf:RDF>
      <cc:Work
         rdf:about="">
        <dc:format>image/svg+xml</dc:format>
        <dc:type
           rdf:resource="http://purl.org/dc/dcmitype/StillImage" />
        <dc:title></dc:title>
      </cc:Work>
    </rdf:RDF>
  </metadata>
  <g
     inkscape:label="Layer 1"
     inkscape:groupmode="layer"
     id="layer1">
    <path
       style="display:inline;opacity:1;fill:#fffc6b;fill-opacity:1;stroke:#000000;stroke-width:3.175;stroke-miterlimit:4;stroke-dasharray:none;stroke-opacity:1"
       d="M 180.0812,29.311878 V 45.45624 c 0,14.227317 -39.6902,25.831027 -88.610964,25.831027 -48.920775,0 -88.6109734,-11.60371 -88.6109734,-25.831027 V 29.311878 c 0,-14.227419 39.6901984,-25.8311875 88.6109734,-25.8311875 48.920764,0 88.610964,11.6037685 88.610964,25.8311875 z m 0,36.324849 V 101.9615 c 0,14.22733 -39.6902,25.83105 -88.610964,25.83105 -48.920775,0 -88.6109734,-11.60372 -88.6109734,-25.83105 V 65.636727 C 21.896772,77.341457 56.74107,82.790329 91.470236,82.790329 c 34.729174,0 69.573064,-5.448872 88.610964,-17.153602 z m 0,56.505293 v 36.32479 c 0,14.22733 -39.6902,25.83105 -88.610964,25.83105 -48.920775,0 -88.6109734,-11.60372 -88.6109734,-25.83105 v -36.32479 c 19.0375094,11.70472 53.8818074,17.1536 88.6109734,17.1536 34.729174,0 69.573064,-5.44888 88.610964,-17.1536 z"
       id="path1647" />
    <g
       transform="matrix(0.13142927,0,0,0.1306987,17.350944,41.019222)"
       id="g164"
       style="display:inline;opacity:1">
      <g
         id="orginal"
         style="clip-rule:nonzero;fill-rule:nonzero;stroke:#000000;stroke-miterlimit:4" />
      <g
         id="Layer_x0020_3"
         style="clip-rule:nonzero;fill:none;fill-rule:nonzero;stroke:#ffffff;stroke-width:12.4651;stroke-linecap:round;stroke-linejoin:round;stroke-miterlimit:4">
        <path
           style="fill:#000000;stroke:#000000;stroke-width:37.3953;stroke-linecap:butt;stroke-linejoin:miter"
           d="m 323.205,324.227 c 2.833,-23.601 1.984,-27.062 19.563,-23.239 l 4.463,0.392 c 13.517,0.615 31.199,-2.174 41.587,-7 22.362,-10.376 35.622,-27.7 13.572,-23.148 -50.297,10.376 -53.755,-6.655 -53.755,-6.655 C 401.746,185.774 423.948,85.741 404.784,61.255 352.514,-5.534 262.036,26.049 260.522,26.869 l -0.482,0.089 c -9.938,-2.062 -21.06,-3.294 -33.554,-3.496 -22.761,-0.374 -40.032,5.967 -53.133,15.904 0,0 -161.408,-66.498 -153.899,83.628 1.597,31.936 45.777,241.655 98.47,178.31 19.259,-23.163 37.871,-42.748 37.871,-42.748 9.242,6.14 20.307,9.272 31.912,8.147 l 0.897,-0.765 c -0.281,2.876 -0.157,5.689 0.359,9.019 -13.572,15.167 -9.584,17.83 -36.723,23.416 -27.457,5.659 -11.326,15.734 -0.797,18.367 12.768,3.193 42.305,7.716 62.268,-20.224 l -0.795,3.188 c 5.325,4.26 4.965,30.619 5.72,49.452 0.756,18.834 2.017,36.409 5.856,46.771 3.839,10.36 8.369,37.05 44.036,29.406 29.809,-6.388 52.6,-15.582 54.677,-101.107"
           id="path117" />
        <path
           style="fill:#336791;stroke:none"
           d="m 402.395,271.23 c -50.302,10.376 -53.76,-6.655 -53.76,-6.655 53.111,-78.808 75.313,-178.843 56.153,-203.326 -52.27,-66.785 -142.752,-35.2 -144.262,-34.38 l -0.486,0.087 c -9.938,-2.063 -21.06,-3.292 -33.56,-3.496 -22.761,-0.373 -40.026,5.967 -53.127,15.902 0,0 -161.411,-66.495 -153.904,83.63 1.597,31.938 45.776,241.657 98.471,178.312 19.26,-23.163 37.869,-42.748 37.869,-42.748 9.243,6.14 20.308,9.272 31.908,8.147 l 0.901,-0.765 c -0.28,2.876 -0.152,5.689 0.361,9.019 -13.575,15.167 -9.586,17.83 -36.723,23.416 -27.459,5.659 -11.328,15.734 -0.796,18.367 12.768,3.193 42.307,7.716 62.266,-20.224 l -0.796,3.188 c 5.319,4.26 9.054,27.711 8.428,48.969 -0.626,21.259 -1.044,35.854 3.147,47.254 4.191,11.4 8.368,37.05 44.042,29.406 29.809,-6.388 45.256,-22.942 47.405,-50.555 1.525,-19.631 4.976,-16.729 5.194,-34.28 l 2.768,-8.309 c 3.192,-26.611 0.507,-35.196 18.872,-31.203 l 4.463,0.392 c 13.517,0.615 31.208,-2.174 41.591,-7 22.358,-10.376 35.618,-27.7 13.573,-23.148 z"
           id="path119" />
        <path
           d="m 215.866,286.484 c -1.385,49.516 0.348,99.377 5.193,111.495 4.848,12.118 15.223,35.688 50.9,28.045 29.806,-6.39 40.651,-18.756 45.357,-46.051 3.466,-20.082 10.148,-75.854 11.005,-87.281"
           id="path121" />
        <path
           d="m 173.104,38.256 c 0,0 -161.521,-66.016 -154.012,84.109 1.597,31.938 45.779,241.664 98.473,178.316 19.256,-23.166 36.671,-41.335 36.671,-41.335"
           id="path123" />
        <path
           d="m 260.349,26.207 c -5.591,1.753 89.848,-34.889 144.087,34.417 19.159,24.484 -3.043,124.519 -56.153,203.329"
           id="path125" />
        <path
           style="stroke-linejoin:bevel"
           d="m 348.282,263.953 c 0,0 3.461,17.036 53.764,6.653 22.04,-4.552 8.776,12.774 -13.577,23.155 -18.345,8.514 -59.474,10.696 -60.146,-1.069 -1.729,-30.355 21.647,-21.133 19.96,-28.739 -1.525,-6.85 -11.979,-13.573 -18.894,-30.338 -6.037,-14.633 -82.796,-126.849 21.287,-110.183 3.813,-0.789 -27.146,-99.002 -124.553,-100.599 -97.385,-1.597 -94.19,119.762 -94.19,119.762"
           id="path127" />
        <path
           d="m 188.604,274.334 c -13.577,15.166 -9.584,17.829 -36.723,23.417 -27.459,5.66 -11.326,15.733 -0.797,18.365 12.768,3.195 42.307,7.718 62.266,-20.229 6.078,-8.509 -0.036,-22.086 -8.385,-25.547 -4.034,-1.671 -9.428,-3.765 -16.361,3.994 z"
           id="path129" />
        <path
           d="m 187.715,274.069 c -1.368,-8.917 2.93,-19.528 7.536,-31.942 6.922,-18.626 22.893,-37.255 10.117,-96.339 -9.523,-44.029 -73.396,-9.163 -73.436,-3.193 -0.039,5.968 2.889,30.26 -1.067,58.548 -5.162,36.913 23.488,68.132 56.479,64.938"
           id="path131" />
        <path
           style="fill:#ffffff;stroke-width:4.155;stroke-linecap:butt;stroke-linejoin:miter"
           d="m 172.517,141.7 c -0.288,2.039 3.733,7.48 8.976,8.207 5.234,0.73 9.714,-3.522 9.998,-5.559 0.284,-2.039 -3.732,-4.285 -8.977,-5.015 -5.237,-0.731 -9.719,0.333 -9.996,2.367 z"
           id="path133" />
        <path
           style="fill:#ffffff;stroke-width:2.0775;stroke-linecap:butt;stroke-linejoin:miter"
           d="m 331.941,137.543 c 0.284,2.039 -3.732,7.48 -8.976,8.207 -5.238,0.73 -9.718,-3.522 -10.005,-5.559 -0.277,-2.039 3.74,-4.285 8.979,-5.015 5.239,-0.73 9.718,0.333 10.002,2.368 z"
           id="path135" />
        <path
           d="m 350.676,123.432 c 0.863,15.994 -3.445,26.888 -3.988,43.914 -0.804,24.748 11.799,53.074 -7.191,81.435"
           id="path137" />
        <path
           style="stroke-width:3"
           d="M 0,60.232"
           id="path139" />
      </g>
    </g>
    <g
       transform="matrix(0.20698185,0,0,0.20710761,92.819446,11.190831)"
       id="g1470"
       style="display:inline;opacity:1">
      <path
         d="m 235.64828,194.21163 c -13.91843,-0.34707 -24.70541,1.04564 -33.75268,4.87233 -2.6097,1.04345 -6.78567,1.04454 -7.13383,4.3495 1.39273,1.39273 1.56626,3.65426 2.78433,5.56759 2.08909,3.4785 5.74115,8.17729 9.04722,10.61346 3.65314,2.78324 7.30737,5.56648 11.1341,8.00264 6.78567,4.17597 14.4412,6.61102 21.05226,10.78697 3.8289,2.43395 7.65444,5.56759 11.48225,8.17729 1.91448,1.39052 3.13145,3.65313 5.56762,4.52304 v -0.52172 c -1.21811,-1.56625 -1.56627,-3.82778 -2.78324,-5.56759 -1.73872,-1.7398 -3.47961,-3.30606 -5.21941,-5.04586 -5.04588,-6.78458 -11.30877,-12.7003 -18.09435,-17.57153 -5.56649,-3.8278 -17.7462,-9.0472 -20.00779,-15.4847 0,0 -0.17462,-0.17354 -0.34816,-0.34708 3.82777,-0.34818 8.35082,-1.73979 12.00509,-2.78435 5.91578,-1.56625 11.30877,-1.21807 17.39799,-2.78324 2.78324,-0.69635 5.56761,-1.56625 8.35085,-2.43616 v -1.56515 c -3.13031,-3.13254 -5.39294,-7.30739 -8.69901,-10.26529 -8.87256,-7.65667 -18.61614,-15.13651 -28.70676,-21.39939 -5.39408,-3.4796 -12.35329,-5.74224 -18.09435,-8.69902 -2.08687,-1.04564 -5.56761,-1.56625 -6.78459,-3.30607 -3.13252,-3.82778 -4.87232,-8.87254 -7.13384,-13.39672 -5.04365,-9.56998 -9.91712,-20.18127 -14.26657,-30.27191 -3.13031,-6.78568 -5.04476,-13.571381 -8.87255,-19.834147 C 136.65317,60.247905 117.1671,42.32811 87.242308,24.755457 80.804823,21.102305 73.150378,19.536054 64.973063,17.622712 60.624665,17.448068 56.274047,17.100997 51.924507,16.926352 49.141266,15.708258 46.356919,12.403309 43.920746,10.837044 34.005876,4.5730961 8.429423,-8.9960711 1.1220548,8.9237024 -3.5756358,20.232452 8.0812675,31.366477 12.082548,37.108681 c 2.958988,4.001337 6.785671,8.52437 8.873657,13.048565 1.218089,2.955677 1.565157,6.089302 2.783246,9.220731 2.784342,7.653362 5.392941,16.179897 9.047189,23.313829 1.914445,3.653152 4.001326,7.480936 6.43749,10.78586 1.391616,1.91334 3.826679,2.784347 4.349499,5.91577 -2.435054,3.479594 -2.609701,8.699014 -4.002431,13.048554 -6.262843,19.6595 -3.826684,44.01681 5.045873,58.4569 2.783241,4.34841 9.395336,13.91953 18.267961,10.26529 7.829109,-3.13144 6.089302,-13.04855 8.350828,-21.74757 0.522829,-2.08909 0.174642,-3.47959 1.218085,-4.87123 9.06e-4,0.17354 0,0.34818 0,0.34818 2.436159,4.87123 4.871226,9.56895 7.132744,14.4401 5.394047,8.52436 14.788354,17.39801 22.617411,23.31384 4.17708,3.13031 7.48204,8.52438 12.70142,10.43881 v -0.52283 h -0.34818 c -1.04454,-1.56625 -2.6097,-2.26152 -4.00132,-3.47959 -3.13143,-3.13143 -6.61214,-6.95923 -9.04719,-10.43881 -7.306285,-9.74359 -13.744889,-20.52945 -19.485981,-31.66458 -2.783241,-5.39295 -5.219401,-11.30877 -7.480928,-16.70169 -1.044543,-2.08908 -1.044543,-5.2194 -2.784346,-6.26284 -2.609701,3.82668 -6.436384,7.13275 -8.350829,11.83045 -3.303854,7.48092 -3.653143,16.70168 -4.871227,26.27053 -0.695269,0.17465 -0.348187,0 -0.69637,0.34819 -5.566486,-1.39273 -7.480931,-7.13275 -9.568954,-12.00509 -5.219405,-12.35212 -6.089301,-32.18637 -1.565156,-46.45181 1.218084,-3.65425 6.437489,-15.136527 4.349503,-18.616138 C 50.0111,92.086027 46.530392,90.172697 44.617053,87.562997 42.355526,84.256927 39.919367,80.082065 38.35421,76.427858 34.178238,66.685381 32.090261,55.898411 27.567235,46.154815 25.47925,41.630666 21.826107,36.934084 18.868219,32.759206 15.563264,28.061528 11.909007,24.755457 9.2992702,19.187851 8.4304697,17.274509 7.2112844,14.143092 8.6029095,12.055097 8.9510921,10.663485 9.6463473,10.14176 11.039069,9.793575 c 2.261527,-1.9144455 8.699016,0.521716 10.960493,1.565161 6.437489,2.608589 11.830444,5.045873 17.224491,8.699015 2.435058,1.739801 5.044758,5.045872 8.176187,5.915773 h 3.654243 c 5.567588,1.216981 11.830444,0.348166 17.049845,1.913341 9.221836,2.956783 17.571536,7.307389 25.053642,12.005086 22.79206,14.440098 41.58058,34.970664 54.28209,59.501494 2.08799,4.000225 2.95679,7.655565 4.87123,11.830445 3.65425,8.52547 8.17729,17.22449 11.83044,25.57533 3.65314,8.17618 7.13274,16.52814 12.35213,23.31383 2.61081,3.65204 13.04854,5.56648 17.74617,7.48092 3.4796,1.56517 8.87368,2.9579 12.00508,4.87124 5.91469,3.65203 11.83047,7.82912 17.39803,11.83044 2.78433,2.08688 11.48226,6.43749 12.00509,9.916 z"
         fill="#00546b"
         id="path1456" />
      <path
         d="m 58.186489,43.022264 c -2.957883,0 -5.044758,0.349289 -7.132744,0.871017 0,-9.07e-4 0,0.174642 0,0.348182 h 0.348187 c 1.392726,2.78324 3.826683,4.697686 5.566482,7.132735 1.392731,2.783241 2.6097,5.567596 4.002431,8.351943 0.173532,-0.174646 0.347072,-0.348183 0.347072,-0.348183 2.437275,-1.740908 3.654249,-4.524149 3.654249,-8.699015 -1.044548,-1.218085 -1.218089,-2.436164 -2.087986,-3.654249 -1.043443,-1.740912 -3.306075,-2.609699 -4.697691,-4.00243 z"
         fill="#00546b"
         id="path1458" />
    </g>
    <g
       transform="matrix(0.22639227,-0.13693385,0.13693385,0.22639227,18.210796,142.91178)"
       style="display:inline;opacity:1;fill:none;fill-rule:evenodd;stroke:none;stroke-width:1"
       id="g1617">
      <path
         id="path1599"
         fill="#8e714e"
         d="m 476.71344,60.462624 c -0.46106,0.09238 -0.92212,1.10775 -0.92212,1.661194 -0.0924,3.691062 -0.18476,13.473457 -0.18476,20.117369 0,0.184769 0.27629,0.553444 0.55344,0.553444 1.38404,0.09238 4.70643,0.184769 7.56689,0.184769 3.96822,0 6.27524,-0.553444 7.56776,-1.106888 3.32152,-1.661193 4.89033,-5.260735 4.89033,-9.228951 0,-8.950934 -6.27523,-12.365706 -15.59571,-12.365706 -0.64582,-0.09152 -2.49092,-0.09152 -3.87583,0.184769 z m 23.8093,41.250106 c 0,-9.135705 -6.73716,-14.211671 -18.9181,-14.211671 -0.55344,0 -4.42927,-0.09238 -5.35226,0.09238 -0.27715,0.09239 -0.64582,0.277154 -0.64582,0.554307 0,6.551528 -0.0924,16.979754 0.18476,21.039494 0.18391,1.75358 1.47643,4.24537 3.04524,4.98358 1.66033,0.92298 5.44464,1.10689 8.02795,1.10689 7.29061,0 13.65823,-4.05974 13.65823,-13.56498 z M 457.88859,55.387521 c 0.92212,0 3.69107,0.27629 10.7969,0.27629 6.7363,0 12.08855,-0.183906 18.64094,-0.183906 8.02796,0 19.10201,2.860466 19.10201,14.856634 0,5.906564 -4.15299,10.612992 -9.59763,12.920014 -0.27629,0.09238 -0.27629,0.27629 0,0.368674 7.75166,1.938348 14.58121,6.737161 14.58121,15.780479 0,8.859414 -5.53703,14.487964 -13.56584,17.995114 -4.8912,2.12226 -10.98167,2.86047 -17.16452,2.86047 -4.70643,0 -17.34843,-0.55344 -24.36188,-0.36868 -0.73821,-0.27715 0.64583,-3.59954 1.29166,-4.15298 1.66119,-0.0924 2.95285,-0.18477 4.70643,-0.73821 2.49179,-0.64583 2.76808,-1.38404 3.13762,-5.16749 0.18477,-3.23 0.18477,-14.673593 0.18477,-22.79393 0,-11.166435 0.0924,-18.733329 0,-22.424391 -0.0924,-2.860466 -1.10775,-3.783447 -3.13762,-4.337754 -1.56881,-0.27629 -4.15299,-0.645828 -6.27524,-0.922118 -0.46192,-0.461923 1.10689,-3.599542 1.66119,-3.968216 z m -53.24713,57.399259 c 2.2155,1.75271 6.55239,2.49093 10.42822,2.49093 4.98358,0 9.9663,-0.92212 14.76511,-5.25987 4.8912,-4.42928 8.30511,-11.257962 8.30511,-22.147243 0,-10.428223 -3.96822,-18.918098 -12.08855,-23.900816 -4.61405,-2.861329 -10.52061,-4.060601 -17.34929,-4.060601 -2.02987,0 -3.96822,0.09239 -5.16749,0.645828 -0.27715,0.184769 -0.92298,1.015366 -0.92298,1.476425 -0.18477,1.845963 -0.18477,16.056769 -0.18477,24.362739 0,8.58226 0,20.578428 0.18477,21.962468 0,1.38491 0.64583,3.50716 2.02987,4.43014 z M 383.69349,55.387521 c 1.75358,0 8.48988,0.27629 11.71988,0.27629 5.81418,0 9.9663,-0.27629 20.94796,-0.27629 9.22809,0 16.97976,2.491791 22.51678,7.197356 6.7363,5.814178 10.24345,13.842995 10.24345,23.624526 0,13.934517 -6.36762,21.963337 -12.73524,26.577377 -6.36676,4.70643 -14.67273,7.47451 -26.48413,7.47451 -6.27524,0 -17.07213,-0.18477 -26.02393,-0.27716 h -0.0924 c -0.46105,-0.82973 0.73822,-4.05973 1.47643,-4.15212 2.39941,-0.27715 3.04523,-0.36954 4.24537,-0.83059 1.93748,-0.73822 2.30702,-1.75358 2.58417,-5.16749 0.27629,-6.36762 0.18391,-14.026901 0.18391,-22.701546 0,-6.182853 0.0924,-18.272269 -0.0924,-22.148101 -0.27629,-3.22914 -1.66034,-4.059737 -4.42928,-4.614044 -1.38404,-0.27629 -3.23,-0.645828 -5.81331,-0.922118 -0.36954,-0.646691 1.29165,-3.507157 1.75271,-4.0606 v 0 z" />
      <path
         id="path1601"
         fill="#442d22"
         d="m 272.03346,116.38546 c -2.30703,-0.27716 -3.96822,-0.64583 -5.99895,-1.56881 -0.27629,-0.18477 -0.73821,-1.10689 -0.73821,-1.47643 -0.18477,-3.23 -0.18477,-12.45809 -0.18477,-18.640942 0,-4.983582 -0.82974,-9.320472 -2.95285,-12.365706 -2.49179,-3.507157 -6.09047,-5.537026 -10.70452,-5.537026 -4.0606,0 -9.50524,2.768945 -14.0269,6.644776 -0.0924,0.09152 -0.83059,0.738212 -0.73821,-0.277154 0,-1.015365 0.18477,-3.045234 0.27716,-4.429274 0.0924,-1.29252 -0.64583,-1.938348 -0.64583,-1.938348 -2.95372,1.476425 -11.25882,3.414773 -14.30406,3.691063 -2.21463,0.461922 -2.76808,2.584175 -0.46106,3.322387 h 0.0924 c 2.49093,0.738213 4.15212,1.56881 5.44378,2.399407 0.92298,0.738212 0.83059,1.753578 0.83059,2.584175 0.0924,6.921066 0.0924,17.533192 -0.1839,23.347372 -0.0924,2.30702 -0.73822,3.13676 -2.39941,3.50629 l 0.18391,-0.0924 c -1.29166,0.27715 -2.30703,0.55344 -3.87584,0.73821 -0.55344,0.55345 -0.55344,3.50716 0,4.15299 1.01537,0 6.36763,-0.27716 10.79777,-0.27716 6.09046,0 9.22808,0.27716 10.79689,0.27716 0.64583,-0.73821 0.8306,-3.50716 0.46106,-4.15299 -1.75358,-0.0924 -3.04523,-0.27629 -4.2445,-0.64583 -1.6612,-0.36953 -2.12312,-1.19927 -2.2155,-3.13761 -0.18391,-4.8912 -0.18391,-15.226177 -0.18391,-22.239627 0,-1.938347 0.55344,-2.861329 1.10689,-3.414772 2.12225,-1.8451 5.53702,-3.137619 8.58226,-3.137619 2.95285,0 4.89119,0.922981 6.36762,2.123116 2.02987,1.660331 2.6757,4.059737 2.95285,5.813316 0.46106,3.968216 0.27715,11.812266 0.27715,18.640946 0,3.69106 -0.27715,4.61404 -1.66119,5.0751 -0.64583,0.27715 -2.30702,0.64669 -4.24537,0.8306 -0.64583,0.64583 -0.46106,3.50716 0,4.15298 2.67656,0 5.81418,-0.27715 10.42822,-0.27715 5.72093,0 9.41286,0.27715 10.88928,0.27715 0.46106,-0.55344 0.64583,-3.23 0.27629,-3.96821 h 8.7e-4 z M 297.59547,81.1343 c -4.8912,0 -7.93644,3.783447 -7.93644,9.689147 0,5.998084 2.6757,12.919153 10.24346,12.919153 1.29165,0 3.69106,-0.55345 4.79795,-1.8451 1.75358,-1.6612 2.95371,-4.983584 2.95371,-8.489878 0,-7.659278 -3.78431,-12.273322 -10.05868,-12.273322 z m -0.64669,40.78818 c -1.8451,0 -3.13762,0.55345 -3.96736,1.01537 -3.87669,2.49093 -5.62941,4.89033 -5.62941,7.75166 0,2.6757 1.01451,4.79795 3.23001,6.64391 2.67569,2.30702 6.36676,3.41477 11.07318,3.41477 9.41286,0 13.56584,-5.07596 13.56584,-10.05868 0,-3.50716 -1.75357,-5.81418 -5.35225,-7.10583 -2.58418,-1.10775 -7.29061,-1.6612 -12.92001,-1.6612 z m 0.64669,23.9932 c -5.62941,0 -9.69001,-1.20013 -13.19631,-3.87583 -3.41477,-2.58417 -4.89119,-6.46001 -4.89119,-9.1357 0,-0.73821 0.18476,-2.76895 1.84596,-4.61405 1.0145,-1.10775 3.22914,-3.23 8.48987,-6.82868 0.18391,-0.0924 0.27629,-0.18477 0.27629,-0.36953 0,-0.18477 -0.18477,-0.36954 -0.36867,-0.46106 -4.33775,-1.6612 -5.62941,-4.33776 -5.99895,-5.81418 v -0.18477 c -0.0915,-0.55344 -0.27629,-1.10689 0.55431,-1.6612 0.64583,-0.46105 1.56881,-1.0145 2.58331,-1.66033 1.56881,-0.92298 3.23,-1.93834 4.24537,-2.76894 0.18477,-0.18477 0.18477,-0.36867 0.18477,-0.55344 0,-0.18477 -0.18477,-0.36954 -0.36954,-0.46106 -6.45914,-2.12312 -9.68915,-6.92193 -9.68915,-14.119288 0,-4.706428 2.12226,-8.951798 5.9057,-11.627494 2.58418,-2.030732 9.04332,-4.521659 13.28869,-4.521659 h 0.27716 c 4.33689,0.09152 6.73629,1.014502 10.1502,2.214637 1.84596,0.645828 3.59954,0.922118 5.99895,0.922118 3.59868,0 5.16749,-1.106887 6.45914,-2.398543 0.0924,0.183906 0.27716,0.645828 0.36954,1.8451 0.0924,1.200135 -0.27715,2.95285 -1.20013,4.245369 -0.73822,1.014502 -2.39855,1.753578 -4.05974,1.753578 h -0.46192 c -1.6612,-0.184769 -2.39941,-0.369538 -2.39941,-0.369538 l -0.36868,0.184769 c -0.0924,0.184769 0,0.368675 0.0924,0.645828 l 0.0924,0.184769 c 0.18391,0.830597 0.55345,3.321525 0.55345,3.968216 0,7.566894 -3.04524,10.888418 -6.27524,13.380208 -3.13762,2.30702 -6.7363,3.78345 -10.7969,4.15299 -0.0924,0 -0.46106,0 -1.29165,0.0924 -0.46193,0 -1.10775,0.0924 -1.20014,0.0924 h -0.0924 c -0.73822,0.1839 -2.58331,1.10688 -2.58331,2.67569 0,1.38404 0.83059,3.04524 4.79794,3.32239 0.8306,0.0924 1.6612,0.0924 2.58418,0.18477 5.25987,0.36867 11.81226,0.83059 14.8575,1.8451 4.2445,1.56881 6.92106,5.35225 6.92106,9.87478 0,6.82868 -4.89119,13.1963 -13.01153,17.16365 -3.96822,1.75358 -7.93643,2.67656 -12.27332,2.67656 v 0 z m 52.60044,-64.320321 c -1.93835,0 -3.69192,0.461059 -4.98358,1.384041 -3.59868,2.214637 -5.44464,6.644775 -5.44464,13.103919 0,12.089421 6.09047,20.579291 14.76511,20.579291 2.58418,0 4.61405,-0.73821 6.36762,-2.21464 2.6757,-2.2155 4.0606,-6.64477 4.0606,-12.82763 0,-11.996165 -5.99894,-20.024981 -14.76511,-20.024981 z m 1.6612,39.496531 c -15.6881,0 -21.31751,-11.53511 -21.31751,-22.332012 0,-7.566893 3.04524,-13.381072 9.1357,-17.534057 4.33776,-2.675696 9.50525,-4.152121 14.11929,-4.152121 11.99617,0 20.39452,8.582259 20.39452,20.947966 0,8.397494 -3.32239,15.041404 -9.69001,19.102004 -3.04523,2.02987 -8.3051,3.96822 -12.64286,3.96822 z M 187.41099,81.595359 c -1.93834,0 -3.69106,0.461059 -4.98358,1.384041 -3.59868,2.214637 -5.44464,6.644775 -5.44464,13.103919 0,12.089421 6.09047,20.579291 14.76511,20.579291 2.58418,0 4.61405,-0.73821 6.36763,-2.21464 2.67569,-2.2155 4.0606,-6.64477 4.0606,-12.82763 0,-11.996165 -5.90657,-20.024981 -14.76512,-20.024981 z m 1.6612,39.496531 c -15.6881,0 -21.31751,-11.53511 -21.31751,-22.332012 0,-7.566893 3.04524,-13.381072 9.13571,-17.534057 4.33775,-2.675696 9.50524,-4.152121 14.11928,-4.152121 11.99703,0 20.39452,8.582259 20.39452,20.947966 0,8.397494 -3.32238,15.041404 -9.69001,19.102004 -2.95285,2.02987 -8.21272,3.96822 -12.64199,3.96822 z M 83.594144,120.1689 c -0.184769,-0.27629 -0.369538,-1.10688 -0.277153,-2.12225 0,-0.73821 0.184769,-1.20013 0.277153,-1.38404 1.937484,-0.27715 2.95285,-0.55431 4.059737,-0.8306 1.845963,-0.46192 2.584176,-1.47642 2.67656,-3.78344 0.277154,-5.53703 0.277154,-16.057636 0.184769,-23.347376 v -0.184769 c 0,-0.830597 0,-1.845963 -1.015366,-2.584176 -1.476425,-0.922118 -3.230003,-1.752715 -5.537025,-2.399406 -0.830597,-0.27629 -1.384041,-0.738212 -1.291656,-1.291656 0,-0.553443 0.553443,-1.199271 1.753578,-1.38404 3.045235,-0.277154 10.980803,-2.214638 14.118422,-3.598678 0.184769,0.183905 0.461922,0.738212 0.461922,1.476425 l -0.09238,1.014502 c -0.09238,1.015366 -0.184769,2.215501 -0.184769,3.414772 0,0.368675 0.369538,0.645828 0.738212,0.645828 0.184769,0 0.369538,-0.09238 0.554302,-0.184769 5.9057,-4.614043 11.25796,-6.275237 14.02604,-6.275237 4.52252,0 8.02882,2.123116 10.70537,6.552391 0.18391,0.277153 0.36868,0.368674 0.64583,0.368674 0.18477,0 0.46106,-0.09152 0.55345,-0.27629 5.44464,-4.152984 10.88928,-6.644775 14.48796,-6.644775 8.58225,0 13.65822,6.367622 13.65822,17.164519 0,3.045235 0,7.013451 -0.0924,10.612991 0,3.22914 -0.0924,6.18285 -0.0924,8.30511 0,0.46106 0.64583,1.93748 1.6612,2.21463 1.29165,0.64583 3.04523,0.92299 5.35225,1.29166 h 0.0924 c 0.18477,0.64583 -0.18477,3.04523 -0.55345,3.50716 -0.5543,0 -1.3849,0 -2.30702,-0.0924 -1.75358,-0.0924 -4.24537,-0.18477 -7.01345,-0.18477 -5.72179,0 -8.67464,0.0924 -11.53597,0.27716 -0.18391,-0.73821 -0.27629,-2.95285 0,-3.50716 1.66119,-0.27629 2.49179,-0.55344 3.50715,-0.8306 1.84597,-0.55344 2.30703,-1.38404 2.39941,-3.78344 0,-1.75272 0.36868,-16.7026 -0.18477,-20.302142 -0.55344,-3.691062 -3.32239,-8.027953 -9.41285,-8.027953 -2.30703,0 -5.9057,0.922982 -9.41286,3.598678 -0.18391,0.184769 -0.36868,0.645828 -0.36868,0.922982 v 0.09238 c 0.36868,1.937484 0.36868,4.152985 0.36868,7.566894 v 5.998091 c 0,4.15298 -0.0924,8.02881 0,10.98166 0,2.03073 1.20013,2.49179 2.2155,2.86133 0.55344,0.0915 0.92212,0.18391 1.38404,0.27629 0.8306,0.18477 1.66119,0.36954 2.95285,0.64583 0.18477,0.36954 0.18477,1.56881 -0.0924,2.58418 -0.0924,0.55344 -0.27716,0.83059 -0.36868,0.92298 -3.13762,-0.0924 -6.36762,-0.18477 -11.07405,-0.18477 -1.38404,0 -3.78345,0.0924 -5.81418,0.0924 -1.66119,0 -3.23,0.0924 -4.15212,0.0924 -0.0924,-0.18477 -0.27715,-0.8306 -0.27715,-1.84597 0,-0.83059 0.18477,-1.47642 0.36954,-1.66119 0.46105,-0.0924 0.82973,-0.18391 1.29165,-0.18391 1.10689,-0.18476 2.02987,-0.36953 2.95285,-0.5543 1.56881,-0.46106 2.12225,-1.29166 2.21464,-3.32153 0.27715,-4.61404 0.55344,-17.810348 -0.0924,-21.132736 -1.10688,-5.352256 -4.15212,-8.028816 -9.04331,-8.028816 -2.86047,0 -6.46001,1.38404 -9.412857,3.599541 -0.461059,0.368675 -0.830597,1.291656 -0.830597,2.122253 v 5.444641 c 0,6.643917 0,14.949887 0.09238,18.548567 0.09238,1.10688 0.461059,2.3994 2.584174,2.86046 0.46106,0.0924 1.19927,0.27716 2.12226,0.36954 l 1.66119,0.27629 c 0.18477,0.55431 0.0924,2.76895 -0.27715,3.50716 -0.92299,0 -2.02987,-0.0924 -3.32239,-0.0924 -1.937487,-0.0924 -4.429278,-0.18477 -7.197358,-0.18477 -3.230004,0 -5.537026,0.0924 -7.382989,0.18477 -1.291656,-0.18477 -2.307022,-0.18477 -3.413909,-0.18477 v 0 z" />
      <g
         id="g1615">
        <path
           id="path1603"
           fill="#ffffff"
           d="m 35.053436,142.317 -3.783447,-1.29251 c 0,0 0.461923,-19.28678 -6.459143,-20.67082 -4.614044,-5.35225 0.738212,-227.01285 17.348425,-0.73821 0,0 -5.720931,2.86047 -6.736297,7.75166 -1.10775,4.79882 -0.369538,14.94988 -0.369538,14.94988 z" />
        <path
           id="path1605"
           fill="#a6a385"
           d="m 35.053436,142.317 -3.783447,-1.29251 c 0,0 0.461923,-19.28678 -6.459143,-20.67082 -4.614044,-5.35225 0.738212,-227.01285 17.348425,-0.73821 0,0 -5.720931,2.86047 -6.736297,7.75166 -1.10775,4.79882 -0.369538,14.94988 -0.369538,14.94988 z" />
        <path
           id="path1607"
           fill="#ffffff"
           d="m 37.084168,123.67606 c 0,0 33.128904,-21.77856 25.377241,-67.089267 C 54.9869,23.642658 37.360458,12.845761 35.422974,8.6927757 33.300721,5.7399258 31.269989,0.57243845 31.269989,0.57243845 L 32.654893,92.207487 c 0,0.09238 -2.861329,28.053803 4.429275,31.468573" />
        <path
           id="path1609"
           fill="#499d4a"
           d="m 37.084168,123.67606 c 0,0 33.128904,-21.77856 25.377241,-67.089267 C 54.9869,23.642658 37.360458,12.845761 35.422974,8.6927757 33.300721,5.7399258 31.269989,0.57243845 31.269989,0.57243845 L 32.654893,92.207487 c 0,0.09238 -2.861329,28.053803 4.429275,31.468573" />
        <path
           id="path1611"
           fill="#ffffff"
           d="m 29.332506,124.87533 c 0,0 -31.0990355,-21.22512 -29.25307261,-58.598527 C 1.8321484,28.90253 23.795481,10.538739 28.039987,7.2163508 c 2.768944,-2.95285 2.861328,-4.0606004 3.046097,-7.01345029 1.937484,4.15298479 1.56881,62.10568649 1.8451,68.93436749 0.830597,26.300223 -1.476425,50.755342 -3.598678,55.738062 z" />
        <path
           id="path1613"
           fill="#58aa50"
           d="m 29.332506,124.87533 c 0,0 -31.0990355,-21.22512 -29.25307261,-58.598527 C 1.8321484,28.90253 23.795481,10.538739 28.039987,7.2163508 c 2.768944,-2.95285 2.861328,-4.0606004 3.046097,-7.01345029 1.937484,4.15298479 1.56881,62.10568649 1.8451,68.93436749 0.830597,26.300223 -1.476425,50.755342 -3.598678,55.738062 z" />
      </g>
    </g>
  </g>
</svg>
