<?xml version="1.0" encoding="UTF-8" standalone="no"?>
<svg
   xmlns:dc="http://purl.org/dc/elements/1.1/"
   xmlns:cc="http://creativecommons.org/ns#"
   xmlns:rdf="http://www.w3.org/1999/02/22-rdf-syntax-ns#"
   xmlns:svg="http://www.w3.org/2000/svg"
   xmlns="http://www.w3.org/2000/svg"
   xmlns:xlink="http://www.w3.org/1999/xlink"
   xmlns:sodipodi="http://sodipodi.sourceforge.net/DTD/sodipodi-0.dtd"
   xmlns:inkscape="http://www.inkscape.org/namespaces/inkscape"
   sodipodi:docname="drawing.redux.svg"
   inkscape:version="1.0.1 (0767f8302a, 2020-10-17)"
   id="svg8"
   version="1.1"
   viewBox="0 0 594 420"
   height="1587.4016"
   width="2245.0393">
  <defs
     id="defs2">
    <rect
       id="rect24"
       height="30.814058"
       width="40.029476"
       y="62.780045"
       x="56.732426" />
    <linearGradient
       gradientUnits="userSpaceOnUse"
       gradientTransform="matrix(0.99888681,0,0,1.0011144,-25.049987,-75.431883)"
       x1="24.714943"
       y1="22.898218"
       x2="151.13554"
       y2="148.33669"
       id="linearGradient-1">
      <stop
         stop-color="#387EB8"
         offset="0%"
         id="stop1140" />
      <stop
         stop-color="#366994"
         offset="100%"
         id="stop1142" />
    </linearGradient>
    <linearGradient
       gradientUnits="userSpaceOnUse"
       gradientTransform="matrix(0.99888678,0,0,1.0011145,-25.049987,-75.431883)"
       x1="102.48342"
       y1="103.26588"
       x2="238.25963"
       y2="231.90547"
       id="linearGradient-2">
      <stop
         stop-color="#FFE052"
         offset="0%"
         id="stop1145" />
      <stop
         stop-color="#FFC331"
         offset="100%"
         id="stop1147" />
    </linearGradient>
    <clipPath
       clipPathUnits="userSpaceOnUse"
       id="clipPath3444">
      <path
         d="M 11.52,162 C 11.52,81.677 135.307,16.561 288,16.561 v 0 c 152.693,0 276.481,65.116 276.481,145.439 v 0 c 0,80.322 -123.788,145.439 -276.481,145.439 v 0 C 135.307,307.439 11.52,242.322 11.52,162"
         id="path3446" />
    </clipPath>
    <radialGradient
       cx="0"
       cy="0"
       fx="0"
       fy="0"
       gradientTransform="matrix(363.05789,0,0,-363.05789,177.52002,256.30713)"
       gradientUnits="userSpaceOnUse"
       id="radialGradient3452"
       r="1"
       spreadMethod="pad">
      <stop
         id="stop3454"
         offset="0"
         style="stop-opacity:1;stop-color:#aeb2d5" />
      <stop
         id="stop3456"
         offset="0.3"
         style="stop-opacity:1;stop-color:#aeb2d5" />
      <stop
         id="stop3458"
         offset="0.75"
         style="stop-opacity:1;stop-color:#484c89" />
      <stop
         id="stop3460"
         offset="1"
         style="stop-opacity:1;stop-color:#484c89" />
    </radialGradient>
    <clipPath
       clipPathUnits="userSpaceOnUse"
       id="clipPath3468">
      <path
         d="M 0,324 H 576 V 0 H 0 Z"
         id="path3470" />
    </clipPath>
    <clipPath
       clipPathUnits="userSpaceOnUse"
       id="clipPath3480">
      <path
         d="M 0,324 H 576 V 0 H 0 Z"
         id="path3482" />
    </clipPath>
    <linearGradient
       gradientUnits="userSpaceOnUse"
       gradientTransform="scale(0.93681241,1.0674496)"
       x1="79.823227"
       y1="21.345526"
       x2="32.862125"
       y2="105.42175"
       id="linearGradient-1-9">
      <stop
         stop-color="#41873F"
         offset="0%"
         id="stop1249" />
      <stop
         stop-color="#418B3D"
         offset="32.88%"
         id="stop1251" />
      <stop
         stop-color="#419637"
         offset="63.52%"
         id="stop1253" />
      <stop
         stop-color="#3FA92D"
         offset="93.19%"
         id="stop1255" />
      <stop
         stop-color="#3FAE2A"
         offset="100%"
         id="stop1257" />
    </linearGradient>
    <path
       id="path-2"
       d="m 57.903386,1.8492099 c -1.84921,-1.04018056 -4.045147,-1.04018056 -5.894357,0 L 3.351693,29.934086 c -1.8492099,1.04018 -2.88939052,3.004966 -2.88939052,5.085327 V 91.30474 c 0,2.080362 1.15575622,4.045147 2.88939052,5.085328 l 48.657336,28.084872 c 1.84921,1.04018 4.045147,1.04018 5.894357,0 L 106.56072,96.390068 c 1.84921,-1.040181 2.88939,-3.004966 2.88939,-5.085328 V 35.019413 c 0,-2.080361 -1.15575,-4.045147 -2.88939,-5.085327 z" />
    <linearGradient
       gradientUnits="userSpaceOnUse"
       gradientTransform="scale(0.92601891,1.0798916)"
       x1="51.368568"
       y1="64.593353"
       x2="184.67371"
       y2="-19.865484"
       id="linearGradient-4">
      <stop
         stop-color="#41873F"
         offset="13.76%"
         id="stop1261" />
      <stop
         stop-color="#54A044"
         offset="40.32%"
         id="stop1263" />
      <stop
         stop-color="#66B848"
         offset="71.36%"
         id="stop1265" />
      <stop
         stop-color="#6CC04A"
         offset="90.81%"
         id="stop1267" />
    </linearGradient>
    <linearGradient
       gradientUnits="userSpaceOnUse"
       gradientTransform="scale(1.6329932,0.61237242)"
       x1="5.4425087"
       y1="1.3971804"
       x2="60.600269"
       y2="1.3971804"
       id="linearGradient-5">
      <stop
         stop-color="#6CC04A"
         offset="9.191646%"
         id="stop1270" />
      <stop
         stop-color="#66B848"
         offset="28.64%"
         id="stop1272" />
      <stop
         stop-color="#54A044"
         offset="59.68%"
         id="stop1274" />
      <stop
         stop-color="#41873F"
         offset="86.24%"
         id="stop1276" />
    </linearGradient>
    <linearGradient
       gradientUnits="userSpaceOnUse"
       gradientTransform="scale(0.92514088,1.0809165)"
       x1="-1.421301"
       y1="66.989319"
       x2="120.2794"
       y2="66.989319"
       id="linearGradient-6">
      <stop
         stop-color="#6CC04A"
         offset="9.191646%"
         id="stop1279" />
      <stop
         stop-color="#66B848"
         offset="28.64%"
         id="stop1281" />
      <stop
         stop-color="#54A044"
         offset="59.68%"
         id="stop1283" />
      <stop
         stop-color="#41873F"
         offset="86.24%"
         id="stop1285" />
    </linearGradient>
    <linearGradient
       gradientUnits="userSpaceOnUse"
       gradientTransform="scale(0.65464693,1.527541)"
       x1="118.0377"
       y1="68.362541"
       x2="169.63257"
       y2="68.362541"
       id="linearGradient-7">
      <stop
         stop-color="#6CC04A"
         offset="9.191646%"
         id="stop1288" />
      <stop
         stop-color="#66B848"
         offset="28.64%"
         id="stop1290" />
      <stop
         stop-color="#54A044"
         offset="59.68%"
         id="stop1292" />
      <stop
         stop-color="#41873F"
         offset="86.24%"
         id="stop1294" />
    </linearGradient>
    <linearGradient
       gradientUnits="userSpaceOnUse"
       gradientTransform="scale(1.2659753,0.7899048)"
       x1="-1.0386474"
       y1="150.75189"
       x2="87.896973"
       y2="150.75189"
       id="linearGradient-8">
      <stop
         stop-color="#6CC04A"
         offset="9.191646%"
         id="stop1297" />
      <stop
         stop-color="#66B848"
         offset="28.64%"
         id="stop1299" />
      <stop
         stop-color="#54A044"
         offset="59.68%"
         id="stop1301" />
      <stop
         stop-color="#41873F"
         offset="86.24%"
         id="stop1303" />
    </linearGradient>
    <linearGradient
       gradientUnits="userSpaceOnUse"
       gradientTransform="scale(1.2659753,0.7899048)"
       x1="100.85383"
       y1="37.182369"
       x2="46.004009"
       y2="216.51357"
       id="linearGradient-9">
      <stop
         stop-color="#41873F"
         offset="0%"
         id="stop1306" />
      <stop
         stop-color="#418B3D"
         offset="32.88%"
         id="stop1308" />
      <stop
         stop-color="#419637"
         offset="63.52%"
         id="stop1310" />
      <stop
         stop-color="#3FA92D"
         offset="93.19%"
         id="stop1312" />
      <stop
         stop-color="#3FAE2A"
         offset="100%"
         id="stop1314" />
    </linearGradient>
  </defs>
  <sodipodi:namedview
     inkscape:window-maximized="0"
     inkscape:window-y="0"
     inkscape:window-x="0"
     inkscape:window-height="704"
     inkscape:window-width="1366"
     units="px"
     inkscape:connector-spacing="3"
     showgrid="false"
     inkscape:document-rotation="0"
     inkscape:current-layer="g1364"
     inkscape:document-units="in"
     inkscape:cy="585.58196"
     inkscape:cx="1065.7747"
     inkscape:zoom="0.84158404"
     inkscape:pageshadow="2"
     inkscape:pageopacity="0.0"
     borderopacity="1.0"
     bordercolor="#666666"
     pagecolor="#ffffff"
     id="base" />
  <metadata
     id="metadata5">
    <rdf:RDF>
      <cc:Work
         rdf:about="">
        <dc:format>image/svg+xml</dc:format>
        <dc:type
           rdf:resource="http://purl.org/dc/dcmitype/StillImage" />
        <dc:title />
      </cc:Work>
    </rdf:RDF>
  </metadata>
  <g
     id="layer1"
     inkscape:groupmode="layer"
     inkscape:label="Hardware"
     style="display:inline">
    <text
       id="text20"
       y="97.711456"
       x="120.39034"
       style="font-style:normal;font-weight:normal;font-size:7.93748px;line-height:1.25;font-family:sans-serif;fill:#000000;fill-opacity:1;stroke:none;stroke-width:0.198438"
       xml:space="preserve"><tspan
         style="stroke-width:0.198438"
         y="97.711456"
         x="120.39034"
         id="tspan18"
         sodipodi:role="line" /></text>
    <text
       transform="matrix(0.75,0,0,0.75,65.529799,8.9410459)"
       style="font-style:normal;font-weight:normal;font-size:10.5833px;line-height:1.25;font-family:sans-serif;white-space:pre;shape-inside:url(#rect24);fill:#000000;fill-opacity:1;stroke:none;"
       id="text22"
       xml:space="preserve" />
    <g
       id="g1684"
       transform="matrix(0.81061178,0,0,0.68418678,49.49755,-173.10696)" />
    <g
       inkscape:groupmode="layer"
       id="layer3"
       inkscape:label="Server">
      <g
         inkscape:groupmode="layer"
         id="layer5"
         inkscape:label="Box" />
      <g
         inkscape:groupmode="layer"
         id="layer4"
         inkscape:label="Front panel" />
    </g>
  </g>
  <g
     inkscape:label="Tech Icons"
     id="layer2"
     inkscape:groupmode="layer"
     style="display:inline;opacity:1">
    <g
       id="g1104"
       transform="translate(-3.229777e-5,103.83824)">
      <path
         style="display:inline;opacity:1;fill:#fffc6b;fill-opacity:1;stroke:#000000;stroke-width:2.14771;stroke-miterlimit:4;stroke-dasharray:none;stroke-opacity:1"
         d="m 570.51559,208.04335 v 11.39987 c 0,10.04621 -25.71989,18.23984 -57.42135,18.23984 -31.70146,0 -57.42135,-8.19363 -57.42135,-18.23984 v -11.39987 c 0,-10.04628 25.71989,-18.23995 57.42135,-18.23995 31.70146,0 57.42135,8.19367 57.42135,18.23995 z m 0,25.64974 v 25.6497 c 0,10.04622 -25.71989,18.23985 -57.42135,18.23985 -31.70146,0 -57.42135,-8.19363 -57.42135,-18.23985 v -25.6497 c 12.33661,8.26496 34.91629,12.11252 57.42135,12.11252 22.50508,0 45.08448,-3.84756 57.42135,-12.11252 z m 0,39.89959 v 25.6497 c 0,10.04622 -25.71989,18.23985 -57.42135,18.23985 -31.70146,0 -57.42135,-8.19363 -57.42135,-18.23985 v -25.6497 c 12.33661,8.26495 34.91629,12.11252 57.42135,12.11252 22.50508,0 45.08448,-3.84757 57.42135,-12.11252 z"
         id="path1647" />
      <g
         transform="matrix(0.08516831,0,0,0.09228911,465.06374,216.31015)"
         id="g164">
        <g
           id="orginal"
           style="clip-rule:nonzero;fill-rule:nonzero;stroke:#000000;stroke-miterlimit:4" />
        <g
           id="Layer_x0020_3"
           style="clip-rule:nonzero;fill:none;fill-rule:nonzero;stroke:#ffffff;stroke-width:12.4651;stroke-linecap:round;stroke-linejoin:round;stroke-miterlimit:4">
          <path
             style="fill:#000000;stroke:#000000;stroke-width:37.3953;stroke-linecap:butt;stroke-linejoin:miter"
             d="m 323.205,324.227 c 2.833,-23.601 1.984,-27.062 19.563,-23.239 l 4.463,0.392 c 13.517,0.615 31.199,-2.174 41.587,-7 22.362,-10.376 35.622,-27.7 13.572,-23.148 -50.297,10.376 -53.755,-6.655 -53.755,-6.655 C 401.746,185.774 423.948,85.741 404.784,61.255 352.514,-5.534 262.036,26.049 260.522,26.869 l -0.482,0.089 c -9.938,-2.062 -21.06,-3.294 -33.554,-3.496 -22.761,-0.374 -40.032,5.967 -53.133,15.904 0,0 -161.408,-66.498 -153.899,83.628 1.597,31.936 45.777,241.655 98.47,178.31 19.259,-23.163 37.871,-42.748 37.871,-42.748 9.242,6.14 20.307,9.272 31.912,8.147 l 0.897,-0.765 c -0.281,2.876 -0.157,5.689 0.359,9.019 -13.572,15.167 -9.584,17.83 -36.723,23.416 -27.457,5.659 -11.326,15.734 -0.797,18.367 12.768,3.193 42.305,7.716 62.268,-20.224 l -0.795,3.188 c 5.325,4.26 4.965,30.619 5.72,49.452 0.756,18.834 2.017,36.409 5.856,46.771 3.839,10.36 8.369,37.05 44.036,29.406 29.809,-6.388 52.6,-15.582 54.677,-101.107"
             id="path117" />
          <path
             style="fill:#336791;stroke:none"
             d="m 402.395,271.23 c -50.302,10.376 -53.76,-6.655 -53.76,-6.655 53.111,-78.808 75.313,-178.843 56.153,-203.326 -52.27,-66.785 -142.752,-35.2 -144.262,-34.38 l -0.486,0.087 c -9.938,-2.063 -21.06,-3.292 -33.56,-3.496 -22.761,-0.373 -40.026,5.967 -53.127,15.902 0,0 -161.411,-66.495 -153.904,83.63 1.597,31.938 45.776,241.657 98.471,178.312 19.26,-23.163 37.869,-42.748 37.869,-42.748 9.243,6.14 20.308,9.272 31.908,8.147 l 0.901,-0.765 c -0.28,2.876 -0.152,5.689 0.361,9.019 -13.575,15.167 -9.586,17.83 -36.723,23.416 -27.459,5.659 -11.328,15.734 -0.796,18.367 12.768,3.193 42.307,7.716 62.266,-20.224 l -0.796,3.188 c 5.319,4.26 9.054,27.711 8.428,48.969 -0.626,21.259 -1.044,35.854 3.147,47.254 4.191,11.4 8.368,37.05 44.042,29.406 29.809,-6.388 45.256,-22.942 47.405,-50.555 1.525,-19.631 4.976,-16.729 5.194,-34.28 l 2.768,-8.309 c 3.192,-26.611 0.507,-35.196 18.872,-31.203 l 4.463,0.392 c 13.517,0.615 31.208,-2.174 41.591,-7 22.358,-10.376 35.618,-27.7 13.573,-23.148 z"
             id="path119" />
          <path
             d="m 215.866,286.484 c -1.385,49.516 0.348,99.377 5.193,111.495 4.848,12.118 15.223,35.688 50.9,28.045 29.806,-6.39 40.651,-18.756 45.357,-46.051 3.466,-20.082 10.148,-75.854 11.005,-87.281"
             id="path121" />
          <path
             d="m 173.104,38.256 c 0,0 -161.521,-66.016 -154.012,84.109 1.597,31.938 45.779,241.664 98.473,178.316 19.256,-23.166 36.671,-41.335 36.671,-41.335"
             id="path123" />
          <path
             d="m 260.349,26.207 c -5.591,1.753 89.848,-34.889 144.087,34.417 19.159,24.484 -3.043,124.519 -56.153,203.329"
             id="path125" />
          <path
             style="stroke-linejoin:bevel"
             d="m 348.282,263.953 c 0,0 3.461,17.036 53.764,6.653 22.04,-4.552 8.776,12.774 -13.577,23.155 -18.345,8.514 -59.474,10.696 -60.146,-1.069 -1.729,-30.355 21.647,-21.133 19.96,-28.739 -1.525,-6.85 -11.979,-13.573 -18.894,-30.338 -6.037,-14.633 -82.796,-126.849 21.287,-110.183 3.813,-0.789 -27.146,-99.002 -124.553,-100.599 -97.385,-1.597 -94.19,119.762 -94.19,119.762"
             id="path127" />
          <path
             d="m 188.604,274.334 c -13.577,15.166 -9.584,17.829 -36.723,23.417 -27.459,5.66 -11.326,15.733 -0.797,18.365 12.768,3.195 42.307,7.718 62.266,-20.229 6.078,-8.509 -0.036,-22.086 -8.385,-25.547 -4.034,-1.671 -9.428,-3.765 -16.361,3.994 z"
             id="path129" />
          <path
             d="m 187.715,274.069 c -1.368,-8.917 2.93,-19.528 7.536,-31.942 6.922,-18.626 22.893,-37.255 10.117,-96.339 -9.523,-44.029 -73.396,-9.163 -73.436,-3.193 -0.039,5.968 2.889,30.26 -1.067,58.548 -5.162,36.913 23.488,68.132 56.479,64.938"
             id="path131" />
          <path
             style="fill:#ffffff;stroke-width:4.155;stroke-linecap:butt;stroke-linejoin:miter"
             d="m 172.517,141.7 c -0.288,2.039 3.733,7.48 8.976,8.207 5.234,0.73 9.714,-3.522 9.998,-5.559 0.284,-2.039 -3.732,-4.285 -8.977,-5.015 -5.237,-0.731 -9.719,0.333 -9.996,2.367 z"
             id="path133" />
          <path
             style="fill:#ffffff;stroke-width:2.0775;stroke-linecap:butt;stroke-linejoin:miter"
             d="m 331.941,137.543 c 0.284,2.039 -3.732,7.48 -8.976,8.207 -5.238,0.73 -9.718,-3.522 -10.005,-5.559 -0.277,-2.039 3.74,-4.285 8.979,-5.015 5.239,-0.73 9.718,0.333 10.002,2.368 z"
             id="path135" />
          <path
             d="m 350.676,123.432 c 0.863,15.994 -3.445,26.888 -3.988,43.914 -0.804,24.748 11.799,53.074 -7.191,81.435"
             id="path137" />
          <path
             style="stroke-width:3"
             d="M 0,60.232"
             id="path139" />
        </g>
      </g>
      <g
         transform="matrix(0.13412761,0,0,0.14624305,513.96855,195.2477)"
         id="g1470">
        <path
           d="m 235.64828,194.21163 c -13.91843,-0.34707 -24.70541,1.04564 -33.75268,4.87233 -2.6097,1.04345 -6.78567,1.04454 -7.13383,4.3495 1.39273,1.39273 1.56626,3.65426 2.78433,5.56759 2.08909,3.4785 5.74115,8.17729 9.04722,10.61346 3.65314,2.78324 7.30737,5.56648 11.1341,8.00264 6.78567,4.17597 14.4412,6.61102 21.05226,10.78697 3.8289,2.43395 7.65444,5.56759 11.48225,8.17729 1.91448,1.39052 3.13145,3.65313 5.56762,4.52304 v -0.52172 c -1.21811,-1.56625 -1.56627,-3.82778 -2.78324,-5.56759 -1.73872,-1.7398 -3.47961,-3.30606 -5.21941,-5.04586 -5.04588,-6.78458 -11.30877,-12.7003 -18.09435,-17.57153 -5.56649,-3.8278 -17.7462,-9.0472 -20.00779,-15.4847 0,0 -0.17462,-0.17354 -0.34816,-0.34708 3.82777,-0.34818 8.35082,-1.73979 12.00509,-2.78435 5.91578,-1.56625 11.30877,-1.21807 17.39799,-2.78324 2.78324,-0.69635 5.56761,-1.56625 8.35085,-2.43616 v -1.56515 c -3.13031,-3.13254 -5.39294,-7.30739 -8.69901,-10.26529 -8.87256,-7.65667 -18.61614,-15.13651 -28.70676,-21.39939 -5.39408,-3.4796 -12.35329,-5.74224 -18.09435,-8.69902 -2.08687,-1.04564 -5.56761,-1.56625 -6.78459,-3.30607 -3.13252,-3.82778 -4.87232,-8.87254 -7.13384,-13.39672 -5.04365,-9.56998 -9.91712,-20.18127 -14.26657,-30.27191 -3.13031,-6.78568 -5.04476,-13.571381 -8.87255,-19.834147 C 136.65317,60.247905 117.1671,42.32811 87.242308,24.755457 80.804823,21.102305 73.150378,19.536054 64.973063,17.622712 60.624665,17.448068 56.274047,17.100997 51.924507,16.926352 49.141266,15.708258 46.356919,12.403309 43.920746,10.837044 34.005876,4.5730961 8.429423,-8.9960711 1.1220548,8.9237024 -3.5756358,20.232452 8.0812675,31.366477 12.082548,37.108681 c 2.958988,4.001337 6.785671,8.52437 8.873657,13.048565 1.218089,2.955677 1.565157,6.089302 2.783246,9.220731 2.784342,7.653362 5.392941,16.179897 9.047189,23.313829 1.914445,3.653152 4.001326,7.480936 6.43749,10.78586 1.391616,1.91334 3.826679,2.784347 4.349499,5.91577 -2.435054,3.479594 -2.609701,8.699014 -4.002431,13.048554 -6.262843,19.6595 -3.826684,44.01681 5.045873,58.4569 2.783241,4.34841 9.395336,13.91953 18.267961,10.26529 7.829109,-3.13144 6.089302,-13.04855 8.350828,-21.74757 0.522829,-2.08909 0.174642,-3.47959 1.218085,-4.87123 9.06e-4,0.17354 0,0.34818 0,0.34818 2.436159,4.87123 4.871226,9.56895 7.132744,14.4401 5.394047,8.52436 14.788354,17.39801 22.617411,23.31384 4.17708,3.13031 7.48204,8.52438 12.70142,10.43881 v -0.52283 h -0.34818 c -1.04454,-1.56625 -2.6097,-2.26152 -4.00132,-3.47959 -3.13143,-3.13143 -6.61214,-6.95923 -9.04719,-10.43881 -7.306285,-9.74359 -13.744889,-20.52945 -19.485981,-31.66458 -2.783241,-5.39295 -5.219401,-11.30877 -7.480928,-16.70169 -1.044543,-2.08908 -1.044543,-5.2194 -2.784346,-6.26284 -2.609701,3.82668 -6.436384,7.13275 -8.350829,11.83045 -3.303854,7.48092 -3.653143,16.70168 -4.871227,26.27053 -0.695269,0.17465 -0.348187,0 -0.69637,0.34819 -5.566486,-1.39273 -7.480931,-7.13275 -9.568954,-12.00509 -5.219405,-12.35212 -6.089301,-32.18637 -1.565156,-46.45181 1.218084,-3.65425 6.437489,-15.136527 4.349503,-18.616138 C 50.0111,92.086027 46.530392,90.172697 44.617053,87.562997 42.355526,84.256927 39.919367,80.082065 38.35421,76.427858 34.178238,66.685381 32.090261,55.898411 27.567235,46.154815 25.47925,41.630666 21.826107,36.934084 18.868219,32.759206 15.563264,28.061528 11.909007,24.755457 9.2992702,19.187851 8.4304697,17.274509 7.2112844,14.143092 8.6029095,12.055097 8.9510921,10.663485 9.6463473,10.14176 11.039069,9.793575 c 2.261527,-1.9144455 8.699016,0.521716 10.960493,1.565161 6.437489,2.608589 11.830444,5.045873 17.224491,8.699015 2.435058,1.739801 5.044758,5.045872 8.176187,5.915773 h 3.654243 c 5.567588,1.216981 11.830444,0.348166 17.049845,1.913341 9.221836,2.956783 17.571536,7.307389 25.053642,12.005086 22.79206,14.440098 41.58058,34.970664 54.28209,59.501494 2.08799,4.000225 2.95679,7.655565 4.87123,11.830445 3.65425,8.52547 8.17729,17.22449 11.83044,25.57533 3.65314,8.17618 7.13274,16.52814 12.35213,23.31383 2.61081,3.65204 13.04854,5.56648 17.74617,7.48092 3.4796,1.56517 8.87368,2.9579 12.00508,4.87124 5.91469,3.65203 11.83047,7.82912 17.39803,11.83044 2.78433,2.08688 11.48226,6.43749 12.00509,9.916 z"
           fill="#00546b"
           id="path1456" />
        <path
           d="m 58.186489,43.022264 c -2.957883,0 -5.044758,0.349289 -7.132744,0.871017 0,-9.07e-4 0,0.174642 0,0.348182 h 0.348187 c 1.392726,2.78324 3.826683,4.697686 5.566482,7.132735 1.392731,2.783241 2.6097,5.567596 4.002431,8.351943 0.173532,-0.174646 0.347072,-0.348183 0.347072,-0.348183 2.437275,-1.740908 3.654249,-4.524149 3.654249,-8.699015 -1.044548,-1.218085 -1.218089,-2.436164 -2.087986,-3.654249 -1.043443,-1.740912 -3.306075,-2.609699 -4.697691,-4.00243 z"
           fill="#00546b"
           id="path1458" />
      </g>
      <g
         transform="matrix(0.14670587,-0.09669188,0.08873536,0.15986036,465.62093,288.25864)"
         style="fill:none;fill-rule:evenodd;stroke:none;stroke-width:1"
         id="g1617">
        <path
           id="path1599"
           fill="#8e714e"
           d="m 476.71344,60.462624 c -0.46106,0.09238 -0.92212,1.10775 -0.92212,1.661194 -0.0924,3.691062 -0.18476,13.473457 -0.18476,20.117369 0,0.184769 0.27629,0.553444 0.55344,0.553444 1.38404,0.09238 4.70643,0.184769 7.56689,0.184769 3.96822,0 6.27524,-0.553444 7.56776,-1.106888 3.32152,-1.661193 4.89033,-5.260735 4.89033,-9.228951 0,-8.950934 -6.27523,-12.365706 -15.59571,-12.365706 -0.64582,-0.09152 -2.49092,-0.09152 -3.87583,0.184769 z m 23.8093,41.250106 c 0,-9.135705 -6.73716,-14.211671 -18.9181,-14.211671 -0.55344,0 -4.42927,-0.09238 -5.35226,0.09238 -0.27715,0.09239 -0.64582,0.277154 -0.64582,0.554307 0,6.551528 -0.0924,16.979754 0.18476,21.039494 0.18391,1.75358 1.47643,4.24537 3.04524,4.98358 1.66033,0.92298 5.44464,1.10689 8.02795,1.10689 7.29061,0 13.65823,-4.05974 13.65823,-13.56498 z M 457.88859,55.387521 c 0.92212,0 3.69107,0.27629 10.7969,0.27629 6.7363,0 12.08855,-0.183906 18.64094,-0.183906 8.02796,0 19.10201,2.860466 19.10201,14.856634 0,5.906564 -4.15299,10.612992 -9.59763,12.920014 -0.27629,0.09238 -0.27629,0.27629 0,0.368674 7.75166,1.938348 14.58121,6.737161 14.58121,15.780479 0,8.859414 -5.53703,14.487964 -13.56584,17.995114 -4.8912,2.12226 -10.98167,2.86047 -17.16452,2.86047 -4.70643,0 -17.34843,-0.55344 -24.36188,-0.36868 -0.73821,-0.27715 0.64583,-3.59954 1.29166,-4.15298 1.66119,-0.0924 2.95285,-0.18477 4.70643,-0.73821 2.49179,-0.64583 2.76808,-1.38404 3.13762,-5.16749 0.18477,-3.23 0.18477,-14.673593 0.18477,-22.79393 0,-11.166435 0.0924,-18.733329 0,-22.424391 -0.0924,-2.860466 -1.10775,-3.783447 -3.13762,-4.337754 -1.56881,-0.27629 -4.15299,-0.645828 -6.27524,-0.922118 -0.46192,-0.461923 1.10689,-3.599542 1.66119,-3.968216 z m -53.24713,57.399259 c 2.2155,1.75271 6.55239,2.49093 10.42822,2.49093 4.98358,0 9.9663,-0.92212 14.76511,-5.25987 4.8912,-4.42928 8.30511,-11.257962 8.30511,-22.147243 0,-10.428223 -3.96822,-18.918098 -12.08855,-23.900816 -4.61405,-2.861329 -10.52061,-4.060601 -17.34929,-4.060601 -2.02987,0 -3.96822,0.09239 -5.16749,0.645828 -0.27715,0.184769 -0.92298,1.015366 -0.92298,1.476425 -0.18477,1.845963 -0.18477,16.056769 -0.18477,24.362739 0,8.58226 0,20.578428 0.18477,21.962468 0,1.38491 0.64583,3.50716 2.02987,4.43014 z M 383.69349,55.387521 c 1.75358,0 8.48988,0.27629 11.71988,0.27629 5.81418,0 9.9663,-0.27629 20.94796,-0.27629 9.22809,0 16.97976,2.491791 22.51678,7.197356 6.7363,5.814178 10.24345,13.842995 10.24345,23.624526 0,13.934517 -6.36762,21.963337 -12.73524,26.577377 -6.36676,4.70643 -14.67273,7.47451 -26.48413,7.47451 -6.27524,0 -17.07213,-0.18477 -26.02393,-0.27716 h -0.0924 c -0.46105,-0.82973 0.73822,-4.05973 1.47643,-4.15212 2.39941,-0.27715 3.04523,-0.36954 4.24537,-0.83059 1.93748,-0.73822 2.30702,-1.75358 2.58417,-5.16749 0.27629,-6.36762 0.18391,-14.026901 0.18391,-22.701546 0,-6.182853 0.0924,-18.272269 -0.0924,-22.148101 -0.27629,-3.22914 -1.66034,-4.059737 -4.42928,-4.614044 -1.38404,-0.27629 -3.23,-0.645828 -5.81331,-0.922118 -0.36954,-0.646691 1.29165,-3.507157 1.75271,-4.0606 v 0 z" />
        <path
           id="path1601"
           fill="#442d22"
           d="m 272.03346,116.38546 c -2.30703,-0.27716 -3.96822,-0.64583 -5.99895,-1.56881 -0.27629,-0.18477 -0.73821,-1.10689 -0.73821,-1.47643 -0.18477,-3.23 -0.18477,-12.45809 -0.18477,-18.640942 0,-4.983582 -0.82974,-9.320472 -2.95285,-12.365706 -2.49179,-3.507157 -6.09047,-5.537026 -10.70452,-5.537026 -4.0606,0 -9.50524,2.768945 -14.0269,6.644776 -0.0924,0.09152 -0.83059,0.738212 -0.73821,-0.277154 0,-1.015365 0.18477,-3.045234 0.27716,-4.429274 0.0924,-1.29252 -0.64583,-1.938348 -0.64583,-1.938348 -2.95372,1.476425 -11.25882,3.414773 -14.30406,3.691063 -2.21463,0.461922 -2.76808,2.584175 -0.46106,3.322387 h 0.0924 c 2.49093,0.738213 4.15212,1.56881 5.44378,2.399407 0.92298,0.738212 0.83059,1.753578 0.83059,2.584175 0.0924,6.921066 0.0924,17.533192 -0.1839,23.347372 -0.0924,2.30702 -0.73822,3.13676 -2.39941,3.50629 l 0.18391,-0.0924 c -1.29166,0.27715 -2.30703,0.55344 -3.87584,0.73821 -0.55344,0.55345 -0.55344,3.50716 0,4.15299 1.01537,0 6.36763,-0.27716 10.79777,-0.27716 6.09046,0 9.22808,0.27716 10.79689,0.27716 0.64583,-0.73821 0.8306,-3.50716 0.46106,-4.15299 -1.75358,-0.0924 -3.04523,-0.27629 -4.2445,-0.64583 -1.6612,-0.36953 -2.12312,-1.19927 -2.2155,-3.13761 -0.18391,-4.8912 -0.18391,-15.226177 -0.18391,-22.239627 0,-1.938347 0.55344,-2.861329 1.10689,-3.414772 2.12225,-1.8451 5.53702,-3.137619 8.58226,-3.137619 2.95285,0 4.89119,0.922981 6.36762,2.123116 2.02987,1.660331 2.6757,4.059737 2.95285,5.813316 0.46106,3.968216 0.27715,11.812266 0.27715,18.640946 0,3.69106 -0.27715,4.61404 -1.66119,5.0751 -0.64583,0.27715 -2.30702,0.64669 -4.24537,0.8306 -0.64583,0.64583 -0.46106,3.50716 0,4.15298 2.67656,0 5.81418,-0.27715 10.42822,-0.27715 5.72093,0 9.41286,0.27715 10.88928,0.27715 0.46106,-0.55344 0.64583,-3.23 0.27629,-3.96821 h 8.7e-4 z M 297.59547,81.1343 c -4.8912,0 -7.93644,3.783447 -7.93644,9.689147 0,5.998084 2.6757,12.919153 10.24346,12.919153 1.29165,0 3.69106,-0.55345 4.79795,-1.8451 1.75358,-1.6612 2.95371,-4.983584 2.95371,-8.489878 0,-7.659278 -3.78431,-12.273322 -10.05868,-12.273322 z m -0.64669,40.78818 c -1.8451,0 -3.13762,0.55345 -3.96736,1.01537 -3.87669,2.49093 -5.62941,4.89033 -5.62941,7.75166 0,2.6757 1.01451,4.79795 3.23001,6.64391 2.67569,2.30702 6.36676,3.41477 11.07318,3.41477 9.41286,0 13.56584,-5.07596 13.56584,-10.05868 0,-3.50716 -1.75357,-5.81418 -5.35225,-7.10583 -2.58418,-1.10775 -7.29061,-1.6612 -12.92001,-1.6612 z m 0.64669,23.9932 c -5.62941,0 -9.69001,-1.20013 -13.19631,-3.87583 -3.41477,-2.58417 -4.89119,-6.46001 -4.89119,-9.1357 0,-0.73821 0.18476,-2.76895 1.84596,-4.61405 1.0145,-1.10775 3.22914,-3.23 8.48987,-6.82868 0.18391,-0.0924 0.27629,-0.18477 0.27629,-0.36953 0,-0.18477 -0.18477,-0.36954 -0.36867,-0.46106 -4.33775,-1.6612 -5.62941,-4.33776 -5.99895,-5.81418 v -0.18477 c -0.0915,-0.55344 -0.27629,-1.10689 0.55431,-1.6612 0.64583,-0.46105 1.56881,-1.0145 2.58331,-1.66033 1.56881,-0.92298 3.23,-1.93834 4.24537,-2.76894 0.18477,-0.18477 0.18477,-0.36867 0.18477,-0.55344 0,-0.18477 -0.18477,-0.36954 -0.36954,-0.46106 -6.45914,-2.12312 -9.68915,-6.92193 -9.68915,-14.119288 0,-4.706428 2.12226,-8.951798 5.9057,-11.627494 2.58418,-2.030732 9.04332,-4.521659 13.28869,-4.521659 h 0.27716 c 4.33689,0.09152 6.73629,1.014502 10.1502,2.214637 1.84596,0.645828 3.59954,0.922118 5.99895,0.922118 3.59868,0 5.16749,-1.106887 6.45914,-2.398543 0.0924,0.183906 0.27716,0.645828 0.36954,1.8451 0.0924,1.200135 -0.27715,2.95285 -1.20013,4.245369 -0.73822,1.014502 -2.39855,1.753578 -4.05974,1.753578 h -0.46192 c -1.6612,-0.184769 -2.39941,-0.369538 -2.39941,-0.369538 l -0.36868,0.184769 c -0.0924,0.184769 0,0.368675 0.0924,0.645828 l 0.0924,0.184769 c 0.18391,0.830597 0.55345,3.321525 0.55345,3.968216 0,7.566894 -3.04524,10.888418 -6.27524,13.380208 -3.13762,2.30702 -6.7363,3.78345 -10.7969,4.15299 -0.0924,0 -0.46106,0 -1.29165,0.0924 -0.46193,0 -1.10775,0.0924 -1.20014,0.0924 h -0.0924 c -0.73822,0.1839 -2.58331,1.10688 -2.58331,2.67569 0,1.38404 0.83059,3.04524 4.79794,3.32239 0.8306,0.0924 1.6612,0.0924 2.58418,0.18477 5.25987,0.36867 11.81226,0.83059 14.8575,1.8451 4.2445,1.56881 6.92106,5.35225 6.92106,9.87478 0,6.82868 -4.89119,13.1963 -13.01153,17.16365 -3.96822,1.75358 -7.93643,2.67656 -12.27332,2.67656 v 0 z m 52.60044,-64.320321 c -1.93835,0 -3.69192,0.461059 -4.98358,1.384041 -3.59868,2.214637 -5.44464,6.644775 -5.44464,13.103919 0,12.089421 6.09047,20.579291 14.76511,20.579291 2.58418,0 4.61405,-0.73821 6.36762,-2.21464 2.6757,-2.2155 4.0606,-6.64477 4.0606,-12.82763 0,-11.996165 -5.99894,-20.024981 -14.76511,-20.024981 z m 1.6612,39.496531 c -15.6881,0 -21.31751,-11.53511 -21.31751,-22.332012 0,-7.566893 3.04524,-13.381072 9.1357,-17.534057 4.33776,-2.675696 9.50525,-4.152121 14.11929,-4.152121 11.99617,0 20.39452,8.582259 20.39452,20.947966 0,8.397494 -3.32239,15.041404 -9.69001,19.102004 -3.04523,2.02987 -8.3051,3.96822 -12.64286,3.96822 z M 187.41099,81.595359 c -1.93834,0 -3.69106,0.461059 -4.98358,1.384041 -3.59868,2.214637 -5.44464,6.644775 -5.44464,13.103919 0,12.089421 6.09047,20.579291 14.76511,20.579291 2.58418,0 4.61405,-0.73821 6.36763,-2.21464 2.67569,-2.2155 4.0606,-6.64477 4.0606,-12.82763 0,-11.996165 -5.90657,-20.024981 -14.76512,-20.024981 z m 1.6612,39.496531 c -15.6881,0 -21.31751,-11.53511 -21.31751,-22.332012 0,-7.566893 3.04524,-13.381072 9.13571,-17.534057 4.33775,-2.675696 9.50524,-4.152121 14.11928,-4.152121 11.99703,0 20.39452,8.582259 20.39452,20.947966 0,8.397494 -3.32238,15.041404 -9.69001,19.102004 -2.95285,2.02987 -8.21272,3.96822 -12.64199,3.96822 z M 83.594144,120.1689 c -0.184769,-0.27629 -0.369538,-1.10688 -0.277153,-2.12225 0,-0.73821 0.184769,-1.20013 0.277153,-1.38404 1.937484,-0.27715 2.95285,-0.55431 4.059737,-0.8306 1.845963,-0.46192 2.584176,-1.47642 2.67656,-3.78344 0.277154,-5.53703 0.277154,-16.057636 0.184769,-23.347376 v -0.184769 c 0,-0.830597 0,-1.845963 -1.015366,-2.584176 -1.476425,-0.922118 -3.230003,-1.752715 -5.537025,-2.399406 -0.830597,-0.27629 -1.384041,-0.738212 -1.291656,-1.291656 0,-0.553443 0.553443,-1.199271 1.753578,-1.38404 3.045235,-0.277154 10.980803,-2.214638 14.118422,-3.598678 0.184769,0.183905 0.461922,0.738212 0.461922,1.476425 l -0.09238,1.014502 c -0.09238,1.015366 -0.184769,2.215501 -0.184769,3.414772 0,0.368675 0.369538,0.645828 0.738212,0.645828 0.184769,0 0.369538,-0.09238 0.554302,-0.184769 5.9057,-4.614043 11.25796,-6.275237 14.02604,-6.275237 4.52252,0 8.02882,2.123116 10.70537,6.552391 0.18391,0.277153 0.36868,0.368674 0.64583,0.368674 0.18477,0 0.46106,-0.09152 0.55345,-0.27629 5.44464,-4.152984 10.88928,-6.644775 14.48796,-6.644775 8.58225,0 13.65822,6.367622 13.65822,17.164519 0,3.045235 0,7.013451 -0.0924,10.612991 0,3.22914 -0.0924,6.18285 -0.0924,8.30511 0,0.46106 0.64583,1.93748 1.6612,2.21463 1.29165,0.64583 3.04523,0.92299 5.35225,1.29166 h 0.0924 c 0.18477,0.64583 -0.18477,3.04523 -0.55345,3.50716 -0.5543,0 -1.3849,0 -2.30702,-0.0924 -1.75358,-0.0924 -4.24537,-0.18477 -7.01345,-0.18477 -5.72179,0 -8.67464,0.0924 -11.53597,0.27716 -0.18391,-0.73821 -0.27629,-2.95285 0,-3.50716 1.66119,-0.27629 2.49179,-0.55344 3.50715,-0.8306 1.84597,-0.55344 2.30703,-1.38404 2.39941,-3.78344 0,-1.75272 0.36868,-16.7026 -0.18477,-20.302142 -0.55344,-3.691062 -3.32239,-8.027953 -9.41285,-8.027953 -2.30703,0 -5.9057,0.922982 -9.41286,3.598678 -0.18391,0.184769 -0.36868,0.645828 -0.36868,0.922982 v 0.09238 c 0.36868,1.937484 0.36868,4.152985 0.36868,7.566894 v 5.998091 c 0,4.15298 -0.0924,8.02881 0,10.98166 0,2.03073 1.20013,2.49179 2.2155,2.86133 0.55344,0.0915 0.92212,0.18391 1.38404,0.27629 0.8306,0.18477 1.66119,0.36954 2.95285,0.64583 0.18477,0.36954 0.18477,1.56881 -0.0924,2.58418 -0.0924,0.55344 -0.27716,0.83059 -0.36868,0.92298 -3.13762,-0.0924 -6.36762,-0.18477 -11.07405,-0.18477 -1.38404,0 -3.78345,0.0924 -5.81418,0.0924 -1.66119,0 -3.23,0.0924 -4.15212,0.0924 -0.0924,-0.18477 -0.27715,-0.8306 -0.27715,-1.84597 0,-0.83059 0.18477,-1.47642 0.36954,-1.66119 0.46105,-0.0924 0.82973,-0.18391 1.29165,-0.18391 1.10689,-0.18476 2.02987,-0.36953 2.95285,-0.5543 1.56881,-0.46106 2.12225,-1.29166 2.21464,-3.32153 0.27715,-4.61404 0.55344,-17.810348 -0.0924,-21.132736 -1.10688,-5.352256 -4.15212,-8.028816 -9.04331,-8.028816 -2.86047,0 -6.46001,1.38404 -9.412857,3.599541 -0.461059,0.368675 -0.830597,1.291656 -0.830597,2.122253 v 5.444641 c 0,6.643917 0,14.949887 0.09238,18.548567 0.09238,1.10688 0.461059,2.3994 2.584174,2.86046 0.46106,0.0924 1.19927,0.27716 2.12226,0.36954 l 1.66119,0.27629 c 0.18477,0.55431 0.0924,2.76895 -0.27715,3.50716 -0.92299,0 -2.02987,-0.0924 -3.32239,-0.0924 -1.937487,-0.0924 -4.429278,-0.18477 -7.197358,-0.18477 -3.230004,0 -5.537026,0.0924 -7.382989,0.18477 -1.291656,-0.18477 -2.307022,-0.18477 -3.413909,-0.18477 v 0 z" />
        <g
           id="g1615">
          <path
             id="path1603"
             fill="#ffffff"
             d="m 35.053436,142.317 -3.783447,-1.29251 c 0,0 0.461923,-19.28678 -6.459143,-20.67082 -4.614044,-5.35225 0.738212,-227.01285 17.348425,-0.73821 0,0 -5.720931,2.86047 -6.736297,7.75166 -1.10775,4.79882 -0.369538,14.94988 -0.369538,14.94988 z" />
          <path
             id="path1605"
             fill="#a6a385"
             d="m 35.053436,142.317 -3.783447,-1.29251 c 0,0 0.461923,-19.28678 -6.459143,-20.67082 -4.614044,-5.35225 0.738212,-227.01285 17.348425,-0.73821 0,0 -5.720931,2.86047 -6.736297,7.75166 -1.10775,4.79882 -0.369538,14.94988 -0.369538,14.94988 z" />
          <path
             id="path1607"
             fill="#ffffff"
             d="m 37.084168,123.67606 c 0,0 33.128904,-21.77856 25.377241,-67.089267 C 54.9869,23.642658 37.360458,12.845761 35.422974,8.6927757 33.300721,5.7399258 31.269989,0.57243845 31.269989,0.57243845 L 32.654893,92.207487 c 0,0.09238 -2.861329,28.053803 4.429275,31.468573" />
          <path
             id="path1609"
             fill="#499d4a"
             d="m 37.084168,123.67606 c 0,0 33.128904,-21.77856 25.377241,-67.089267 C 54.9869,23.642658 37.360458,12.845761 35.422974,8.6927757 33.300721,5.7399258 31.269989,0.57243845 31.269989,0.57243845 L 32.654893,92.207487 c 0,0.09238 -2.861329,28.053803 4.429275,31.468573" />
          <path
             id="path1611"
             fill="#ffffff"
             d="m 29.332506,124.87533 c 0,0 -31.0990355,-21.22512 -29.25307261,-58.598527 C 1.8321484,28.90253 23.795481,10.538739 28.039987,7.2163508 c 2.768944,-2.95285 2.861328,-4.0606004 3.046097,-7.01345029 1.937484,4.15298479 1.56881,62.10568649 1.8451,68.93436749 0.830597,26.300223 -1.476425,50.755342 -3.598678,55.738062 z" />
          <path
             id="path1613"
             fill="#58aa50"
             d="m 29.332506,124.87533 c 0,0 -31.0990355,-21.22512 -29.25307261,-58.598527 C 1.8321484,28.90253 23.795481,10.538739 28.039987,7.2163508 c 2.768944,-2.95285 2.861328,-4.0606004 3.046097,-7.01345029 1.937484,4.15298479 1.56881,62.10568649 1.8451,68.93436749 0.830597,26.300223 -1.476425,50.755342 -3.598678,55.738062 z" />
        </g>
      </g>
    </g>
    <g
       id="g1072"
       transform="translate(-25.046146,63.500003)">
      <path
         inkscape:connector-curvature="0"
         inkscape:connector-type="polyline"
         id="path1705"
         d="m 264.89095,78.207465 v 0"
         style="display:inline;fill:none;fill-rule:evenodd;stroke:#000000;stroke-width:0.176836px;stroke-linecap:butt;stroke-linejoin:miter;stroke-opacity:1" />
      <rect
         style="display:inline;fill:#afafaf;fill-opacity:1;stroke:#000000;stroke-width:1.57783;stroke-linecap:round;stroke-linejoin:round;stroke-miterlimit:4;stroke-dasharray:none;stroke-opacity:1"
         id="rect1649"
         width="114.70485"
         height="40.741425"
         x="260.44064"
         y="18.575966"
         ry="4.3654094" />
      <rect
         style="display:inline;fill:#afafaf;fill-opacity:1;stroke:#000000;stroke-width:1.57783;stroke-linecap:round;stroke-linejoin:round;stroke-miterlimit:4;stroke-dasharray:none;stroke-opacity:1"
         id="rect2216"
         width="114.70485"
         height="40.741425"
         x="260.44064"
         y="61.1824"
         ry="4.3654094" />
      <rect
         style="display:inline;fill:#afafaf;fill-opacity:1;stroke:#000000;stroke-width:1.57783;stroke-linecap:round;stroke-linejoin:round;stroke-miterlimit:4;stroke-dasharray:none;stroke-opacity:1"
         id="rect2224"
         width="114.70485"
         height="40.741425"
         x="260.44064"
         y="103.81895"
         ry="4.3654094" />
      <ellipse
         style="display:inline;fill:#0ed200;fill-opacity:1;stroke:#000000;stroke-width:1.57879;stroke-linecap:round;stroke-linejoin:round;stroke-miterlimit:4;stroke-dasharray:none;stroke-opacity:1"
         id="path1651"
         cx="355.36203"
         cy="38.946678"
         rx="5.9847155"
         ry="5.3376675" />
      <rect
         style="display:inline;fill:#000000;fill-opacity:1;stroke:none;stroke-width:0.482926;stroke-linecap:round;stroke-linejoin:round;stroke-miterlimit:4;stroke-dasharray:none;stroke-opacity:1"
         id="rect1657"
         width="31.433508"
         height="3.4671345"
         x="310.96976"
         y="33.519184"
         ry="0.70131969" />
      <rect
         style="display:inline;fill:#000000;fill-opacity:1;stroke:none;stroke-width:0.482926;stroke-linecap:round;stroke-linejoin:round;stroke-miterlimit:4;stroke-dasharray:none;stroke-opacity:1"
         id="rect1673"
         width="31.433508"
         height="3.4671345"
         x="310.84241"
         y="40.907024"
         ry="0.70131969" />
      <ellipse
         style="display:inline;fill:#0ed200;fill-opacity:1;stroke:#000000;stroke-width:1.57879;stroke-linecap:round;stroke-linejoin:round;stroke-miterlimit:4;stroke-dasharray:none;stroke-opacity:1"
         id="ellipse2218"
         cx="355.36203"
         cy="81.553101"
         rx="5.9847155"
         ry="5.3376675" />
      <rect
         style="display:inline;fill:#000000;fill-opacity:1;stroke:none;stroke-width:0.482926;stroke-linecap:round;stroke-linejoin:round;stroke-miterlimit:4;stroke-dasharray:none;stroke-opacity:1"
         id="rect2220"
         width="31.433508"
         height="3.4671345"
         x="310.96976"
         y="76.125618"
         ry="0.70131969" />
      <rect
         style="display:inline;fill:#000000;fill-opacity:1;stroke:none;stroke-width:0.482926;stroke-linecap:round;stroke-linejoin:round;stroke-miterlimit:4;stroke-dasharray:none;stroke-opacity:1"
         id="rect2222"
         width="31.433508"
         height="3.4671345"
         x="310.84241"
         y="83.513451"
         ry="0.70131969" />
      <ellipse
         style="display:inline;fill:#0ed200;fill-opacity:1;stroke:#000000;stroke-width:1.57879;stroke-linecap:round;stroke-linejoin:round;stroke-miterlimit:4;stroke-dasharray:none;stroke-opacity:1"
         id="ellipse2226"
         cx="355.36203"
         cy="124.18962"
         rx="5.9847155"
         ry="5.3376675" />
      <rect
         style="display:inline;fill:#000000;fill-opacity:1;stroke:none;stroke-width:0.482926;stroke-linecap:round;stroke-linejoin:round;stroke-miterlimit:4;stroke-dasharray:none;stroke-opacity:1"
         id="rect2228"
         width="31.433508"
         height="3.4671345"
         x="310.96976"
         y="118.76216"
         ry="0.70131969" />
      <rect
         style="display:inline;fill:#000000;fill-opacity:1;stroke:none;stroke-width:0.482926;stroke-linecap:round;stroke-linejoin:round;stroke-miterlimit:4;stroke-dasharray:none;stroke-opacity:1"
         id="rect2230"
         width="31.433508"
         height="3.4671345"
         x="310.84241"
         y="126.14997"
         ry="0.70131969" />
      <g
         transform="matrix(0.12831557,0,0,0.13803076,272.10479,31.512739)"
         id="g1156"
         style="display:inline;opacity:1">
        <path
           style="fill:url(#linearGradient-1)"
           d="m 101.86588,-75.359607 c -64.832284,5e-6 -60.783738,28.11519 -60.783738,28.11519 l 0.07227,29.127047 h 61.867878 v 8.7453405 H 16.58073 c 0,0 -41.486166,-4.7049095 -41.486166,60.7114675 -4e-6,65.416352 36.210051,63.096552 36.210051,63.096552 H 32.915004 V 84.080259 c 0,0 -1.164855,-36.210052 35.631847,-36.210052 h 61.361939 c 0,0 34.47544,0.5573 34.47544,-33.31903 v -56.01355 c 0,-5e-6 5.23432,-33.897234 -62.51835,-33.897234 z m -34.11406,19.586675 c 6.1554,-5e-6 11.130433,4.975035 11.130433,11.130434 10e-6,6.155399 -4.975033,11.130435 -11.130433,11.130435 -6.1554,5e-6 -11.130435,-4.975036 -11.130435,-11.130435 -5e-6,-6.155399 4.975035,-11.130434 11.130435,-11.130434 z"
           fill="url(#linearGradient-1)"
           id="path1152" />
        <path
           style="fill:url(#linearGradient-2)"
           d="m 103.70711,178.69439 c 64.8323,0 60.78374,-28.11519 60.78374,-28.11519 l -0.0723,-29.12705 h -61.86787 v -8.74534 h 86.44156 c 0,0 41.48617,4.7049 41.48617,-60.711482 2e-5,-65.416354 -36.21005,-63.096552 -36.21005,-63.096552 H 172.65797 V 19.2545 c 0,0 1.16487,36.210048 -35.63185,36.210048 H 75.664173 c 0,0 -34.475435,-0.55729 -34.475435,33.319061 v 56.013551 c 0,0 -5.234323,33.89723 62.518352,33.89723 v 0 z m 34.11406,-19.58667 c -6.1554,0 -11.13043,-4.97504 -11.13043,-11.13044 0,-6.1554 4.97503,-11.13043 11.13043,-11.13043 6.1554,0 11.13043,4.97503 11.13043,11.13043 3e-5,6.1554 -4.97503,11.13044 -11.13043,11.13044 z"
           fill="url(#linearGradient-2)"
           id="path1154" />
      </g>
      <g
         id="g3438"
         transform="matrix(0.05926227,0,0,-0.12055662,267.71591,143.75507)"
         style="display:inline">
        <g
           id="g3440">
          <g
             clip-path="url(#clipPath3444)"
             id="g3442">
            <g
               id="g3448">
              <g
                 id="g3450">
                <path
                   d="M 11.52,162 C 11.52,81.677 135.307,16.561 288,16.561 v 0 c 152.693,0 276.481,65.116 276.481,145.439 v 0 c 0,80.322 -123.788,145.439 -276.481,145.439 v 0 C 135.307,307.439 11.52,242.322 11.52,162"
                   id="path3462"
                   style="fill:url(#radialGradient3452);stroke:none" />
              </g>
            </g>
          </g>
        </g>
        <g
           id="g3464">
          <g
             clip-path="url(#clipPath3468)"
             id="g3466">
            <g
               id="g3472"
               transform="translate(288,27.3594)">
              <path
                 d="M 0,0 C 146.729,0 265.68,60.281 265.68,134.641 265.68,209 146.729,269.282 0,269.282 -146.729,269.282 -265.68,209 -265.68,134.641 -265.68,60.281 -146.729,0 0,0"
                 id="path3474"
                 style="fill:#777bb3;fill-opacity:1;fill-rule:nonzero;stroke:none" />
            </g>
          </g>
        </g>
        <g
           id="g3476">
          <g
             clip-path="url(#clipPath3480)"
             id="g3478">
            <g
               id="g3484"
               transform="translate(161.7344,145.3066)">
              <path
                 d="m 0,0 c 12.065,0 21.072,2.225 26.771,6.611 5.638,4.341 9.532,11.862 11.573,22.353 1.903,9.806 1.178,16.653 -2.154,20.348 C 32.783,53.086 25.417,55 14.297,55 H -4.984 L -15.673,0 Z m -63.063,-67.75 c -0.895,0 -1.745,0.4 -2.314,1.092 -0.57,0.691 -0.801,1.601 -0.63,2.48 L -37.679,81.573 C -37.405,82.982 -36.17,84 -34.734,84 H 26.32 C 45.508,84 59.79,78.79 68.767,68.513 77.792,58.182 80.579,43.741 77.05,25.592 75.614,18.198 73.144,11.331 69.709,5.183 66.27,-0.972 61.725,-6.667 56.198,-11.747 49.582,-17.939 42.094,-22.429 33.962,-25.071 25.959,-27.678 15.681,-29 3.414,-29 h -24.722 l -7.06,-36.322 c -0.274,-1.41 -1.508,-2.428 -2.944,-2.428 z"
                 id="path3486"
                 style="fill:#000000;fill-opacity:1;fill-rule:nonzero;stroke:none" />
            </g>
            <g
               id="g3488"
               transform="translate(159.2236,197.3071)">
              <path
                 d="m 0,0 h 16.808 c 13.421,0 18.083,-2.945 19.667,-4.7 2.628,-2.914 3.124,-9.058 1.435,-17.767 C 36.012,-32.217 32.494,-39.13 27.452,-43.012 22.29,-46.986 13.898,-49 2.511,-49 H -9.523 Z m 28.831,35 h -61.055 c -2.872,0 -5.341,-2.036 -5.889,-4.855 l -28.328,-145.751 c -0.342,-1.759 0.12,-3.578 1.259,-4.961 1.14,-1.383 2.838,-2.183 4.63,-2.183 h 31.75 c 2.873,0 5.342,2.036 5.89,4.855 L -16.324,-84 H 5.925 c 12.582,0 23.174,1.372 31.479,4.077 8.541,2.775 16.399,7.48 23.354,13.984 5.752,5.292 10.49,11.232 14.08,17.657 3.591,6.427 6.171,13.594 7.668,21.302 3.715,19.104 0.697,34.402 -8.969,45.466 C 63.965,29.444 48.923,35 28.831,35 M -16.802,-55 H 2.511 c 12.801,0 22.336,2.411 28.601,7.234 6.266,4.824 10.492,12.875 12.688,24.157 2.101,10.832 1.144,18.476 -2.871,22.929 C 36.909,3.773 28.87,6 16.808,6 H -4.946 L -16.802,-55 M 28.831,29 C 47.198,29 60.597,24.18 69.019,14.539 77.44,4.898 79.976,-8.559 76.616,-25.836 75.233,-32.953 72.894,-39.46 69.601,-45.355 66.304,-51.254 61.999,-56.648 56.679,-61.539 50.339,-67.472 43.296,-71.7 35.546,-74.218 27.796,-76.743 17.925,-78 5.925,-78 h -27.196 l -7.531,-38.75 h -31.75 L -32.224,29 h 61.055"
                 id="path3490"
                 style="fill:#ffffff;fill-opacity:1;fill-rule:nonzero;stroke:none" />
            </g>
            <g
               id="g3492"
               transform="translate(311.583,116.3066)">
              <path
                 d="m 0,0 c -0.896,0 -1.745,0.4 -2.314,1.092 -0.571,0.691 -0.802,1.6 -0.631,2.48 L 9.586,68.061 C 10.778,74.194 10.484,78.596 8.759,80.456 7.703,81.593 4.531,83.5 -4.848,83.5 H -27.55 L -43.305,2.428 C -43.579,1.018 -44.814,0 -46.25,0 h -31.5 c -0.896,0 -1.745,0.4 -2.315,1.092 -0.57,0.691 -0.801,1.601 -0.63,2.48 l 28.328,145.751 c 0.274,1.409 1.509,2.427 2.945,2.427 h 31.5 c 0.896,0 1.745,-0.4 2.315,-1.091 0.57,-0.692 0.801,-1.601 0.63,-2.481 L -21.813,113 H 2.609 c 18.605,0 31.221,-3.28 38.569,-10.028 7.49,-6.884 9.827,-17.891 6.947,-32.719 L 34.945,2.428 C 34.671,1.018 33.437,0 32,0 Z"
                 id="path3494"
                 style="fill:#000000;fill-opacity:1;fill-rule:nonzero;stroke:none" />
            </g>
            <g
               id="g3496"
               transform="translate(293.6611,271.0571)">
              <path
                 d="m 0,0 h -31.5 c -2.873,0 -5.342,-2.036 -5.89,-4.855 l -28.328,-145.751 c -0.342,-1.759 0.12,-3.578 1.26,-4.961 1.14,-1.383 2.838,-2.183 4.63,-2.183 h 31.5 c 2.872,0 5.342,2.036 5.89,4.855 l 15.283,78.645 h 20.229 c 9.363,0 11.328,-2 11.407,-2.086 0.568,-0.611 1.315,-3.441 0.082,-9.781 l -12.531,-64.489 c -0.342,-1.759 0.12,-3.578 1.26,-4.961 1.14,-1.383 2.838,-2.183 4.63,-2.183 h 32 c 2.872,0 5.342,2.036 5.89,4.855 l 13.179,67.825 c 3.093,15.921 0.447,27.864 -7.861,35.5 -7.928,7.281 -21.208,10.82 -40.599,10.82 H -0.253 L 5.89,-7.145 C 6.231,-5.386 5.77,-3.566 4.63,-2.184 3.49,-0.801 1.792,0 0,0 m 0,-6 -7.531,-38.75 h 28.062 c 17.657,0 29.836,-3.082 36.539,-9.238 6.703,-6.16 8.711,-16.141 6.032,-29.938 l -13.18,-67.824 h -32 l 12.531,64.488 c 1.426,7.336 0.902,12.34 -1.574,15.008 -2.477,2.668 -7.746,4.004 -15.805,4.004 h -25.176 l -16.226,-83.5 h -31.5 L -31.5,-6 H 0"
                 id="path3498"
                 style="fill:#ffffff;fill-opacity:1;fill-rule:nonzero;stroke:none" />
            </g>
            <g
               id="g3500"
               transform="translate(409.5498,145.3066)">
              <path
                 d="m 0,0 c 12.065,0 21.072,2.225 26.771,6.611 5.638,4.34 9.532,11.861 11.574,22.353 1.903,9.806 1.178,16.653 -2.155,20.348 C 32.783,53.086 25.417,55 14.297,55 H -4.984 L -15.673,0 Z m -63.062,-67.75 c -0.895,0 -1.745,0.4 -2.314,1.092 -0.57,0.691 -0.802,1.601 -0.631,2.48 L -37.679,81.573 C -37.404,82.982 -36.17,84 -34.733,84 H 26.32 C 45.509,84 59.79,78.79 68.768,68.513 77.793,58.183 80.579,43.742 77.051,25.592 75.613,18.198 73.144,11.331 69.709,5.183 66.27,-0.972 61.725,-6.667 56.198,-11.747 49.582,-17.939 42.094,-22.429 33.962,-25.071 25.959,-27.678 15.681,-29 3.414,-29 h -24.723 l -7.057,-36.322 c -0.275,-1.41 -1.509,-2.428 -2.946,-2.428 z"
                 id="path3502"
                 style="fill:#000000;fill-opacity:1;fill-rule:nonzero;stroke:none" />
            </g>
            <g
               id="g3504"
               transform="translate(407.0391,197.3071)">
              <path
                 d="M 0,0 H 16.808 C 30.229,0 34.891,-2.945 36.475,-4.7 39.104,-7.614 39.6,-13.758 37.91,-22.466 36.012,-32.217 32.493,-39.13 27.452,-43.012 22.29,-46.986 13.898,-49 2.511,-49 H -9.522 Z m 28.831,35 h -61.054 c -2.872,0 -5.341,-2.036 -5.889,-4.855 L -66.44,-115.606 c -0.342,-1.759 0.12,-3.578 1.259,-4.961 1.14,-1.383 2.838,-2.183 4.63,-2.183 h 31.75 c 2.872,0 5.342,2.036 5.89,4.855 L -16.324,-84 H 5.925 c 12.582,0 23.174,1.372 31.479,4.077 8.541,2.775 16.401,7.481 23.356,13.986 5.752,5.291 10.488,11.23 14.078,17.655 3.591,6.427 6.171,13.594 7.668,21.302 3.715,19.105 0.697,34.403 -8.969,45.467 C 63.965,29.444 48.924,35 28.831,35 M -16.801,-55 H 2.511 c 12.801,0 22.336,2.411 28.601,7.234 6.267,4.824 10.492,12.875 12.688,24.157 2.102,10.832 1.145,18.476 -2.871,22.929 C 36.909,3.773 28.87,6 16.808,6 H -4.946 L -16.801,-55 M 28.831,29 C 47.198,29 60.597,24.18 69.019,14.539 77.441,4.898 79.976,-8.559 76.616,-25.836 75.233,-32.953 72.894,-39.46 69.601,-45.355 66.304,-51.254 61.999,-56.648 56.679,-61.539 50.339,-67.472 43.296,-71.7 35.546,-74.218 27.796,-76.743 17.925,-78 5.925,-78 h -27.196 l -7.53,-38.75 h -31.75 L -32.223,29 h 61.054"
                 id="path3506"
                 style="fill:#ffffff;fill-opacity:1;fill-rule:nonzero;stroke:none" />
            </g>
          </g>
        </g>
      </g>
      <g
         transform="matrix(0.06409018,0,0,0.11200223,268.3838,64.227491)"
         fill="none"
         id="g1364"
         style="display:inline">
        <path
           d="m 253.11061,313.09436 c -1.73364,0 -3.35169,-0.46231 -4.85418,-1.27134 l -15.37155,-9.13047 c -2.31152,-1.27133 -1.15576,-1.73363 -0.46231,-1.96479 3.12054,-1.04017 3.69842,-1.27133 6.93454,-3.12054 0.34673,-0.23115 0.80903,-0.11557 1.15576,0.11558 l 11.78871,7.05011 c 0.4623,0.23115 1.04018,0.23115 1.38691,0 l 46.11467,-26.69797 c 0.4623,-0.23115 0.69345,-0.69345 0.69345,-1.27133 v -53.28036 c 0,-0.57788 -0.23115,-1.04018 -0.69345,-1.27133 l -46.11467,-26.58239 c -0.46231,-0.23116 -1.04018,-0.23116 -1.38691,0 l -46.11467,26.58239 c -0.46231,0.23115 -0.69346,0.80903 -0.69346,1.27133 v 53.28036 c 0,0.4623 0.23115,1.04018 0.69346,1.27133 l 12.59774,7.28127 c 6.81896,3.46727 11.09526,-0.57788 11.09526,-4.62303 v -52.58691 c 0,-0.69345 0.57788,-1.3869 1.38691,-1.3869 h 5.89435 c 0.69346,0 1.38691,0.57788 1.38691,1.3869 v 52.58691 c 0,9.13048 -4.96975,14.44695 -13.63792,14.44695 -2.65824,0 -4.7386,0 -10.63296,-2.88938 l -12.13544,-6.93454 c -3.00497,-1.73364 -4.85418,-4.96975 -4.85418,-8.43702 v -53.28036 c 0,-3.46727 1.84921,-6.70339 4.85418,-8.43702 l 46.11467,-26.69797 c 2.88939,-1.61806 6.81896,-1.61806 9.70836,0 l 46.11467,26.69797 c 3.00496,1.73363 4.85417,4.96975 4.85417,8.43702 v 53.28036 c 0,3.46727 -1.84921,6.70338 -4.85417,8.43702 l -46.11467,26.69797 c -1.50249,0.69345 -3.23612,1.04018 -4.85418,1.04018 z m 14.2158,-36.63748 c -20.22573,0 -24.38646,-9.24605 -24.38646,-17.10519 0,-0.69345 0.57788,-1.3869 1.38691,-1.3869 h 6.00993 c 0.69346,0 1.27134,0.4623 1.27134,1.15575 0.9246,6.12551 3.58284,9.13048 15.83386,9.13048 9.70835,0 13.86907,-2.19594 13.86907,-7.39684 0,-3.00497 -1.15576,-5.20091 -16.29616,-6.70339 -12.59774,-1.27133 -20.45689,-4.04515 -20.45689,-14.10023 0,-9.36162 7.85915,-14.90925 21.03477,-14.90925 14.79368,0 22.07494,5.08533 22.99955,16.18059 0,0.34672 -0.11558,0.69345 -0.34673,1.04018 -0.23115,0.23115 -0.57788,0.4623 -0.92461,0.4623 h -6.00993 c -0.57788,0 -1.15576,-0.4623 -1.27133,-1.04018 -1.38691,-6.35666 -4.96975,-8.43702 -14.44695,-8.43702 -10.63296,0 -11.90429,3.69842 -11.90429,6.47223 0,3.3517 1.50248,4.39188 15.83386,6.24109 14.2158,1.84921 20.91918,4.50745 20.91918,14.44695 -0.11557,10.17065 -8.43701,15.94943 -23.11512,15.94943 z"
           fill="#539e43"
           id="path1319" />
        <path
           d="m 110.02799,104.71151 c 0,-2.08036 -1.15575,-4.04514 -3.00496,-5.085325 L 58.018962,71.425734 c -0.80903,-0.462303 -1.733635,-0.693454 -2.65824,-0.80903 H 54.89842 c -0.924605,0 -1.84921,0.346727 -2.658239,0.80903 L 3.2361174,99.626185 c -1.84921,1.040185 -3.00496616,3.004965 -3.00496616,5.085325 l 0.11557562,75.81761 c 0,1.04018 0.57787811,2.08036 1.50248304,2.54266 0.924605,0.57788 2.0803612,0.57788 2.8893905,0 L 33.863657,166.42889 c 1.84921,-1.04018 3.004966,-3.00496 3.004966,-5.08532 v -35.48172 c 0,-2.08036 1.155756,-4.04515 3.004966,-5.08533 l 12.366592,-7.16569 c 0.924605,-0.57787 1.964785,-0.80902 3.004966,-0.80902 1.04018,0 2.080361,0.23115 2.88939,0.80902 l 12.366592,7.16569 c 1.84921,1.04018 3.004966,3.00497 3.004966,5.08533 v 35.48172 c 0,2.08036 1.155756,4.04514 3.004966,5.08532 l 29.125059,16.64289 c 0.9246,0.57788 2.08036,0.57788 3.00496,0 0.92461,-0.4623 1.50249,-1.50248 1.50249,-2.54266 z"
           fill="#333333"
           id="path1321" />
        <path
           d="m 345.57111,0.34672686 c -0.92461,-0.46230248 -2.08037,-0.46230248 -2.88939,0 -0.92461,0.57787811 -1.50249,1.50248304 -1.50249,2.54266364 V 78.013544 c 0,0.693454 -0.34672,1.386908 -1.04018,1.84921 -0.69345,0.346727 -1.38691,0.346727 -2.08036,0 l -12.25101,-7.050113 c -1.84922,-1.040181 -4.04515,-1.040181 -5.89436,0 l -49.00407,28.316029 c -1.84921,1.04018 -3.00496,3.00496 -3.00496,5.08532 v 56.51648 c 0,2.08036 1.15575,4.04515 3.00496,5.08533 l 49.00407,28.31603 c 1.84921,1.04018 4.04514,1.04018 5.89436,0 l 49.00406,-28.31603 c 1.84921,-1.04018 3.00496,-3.00497 3.00496,-5.08533 V 21.843792 c 0,-2.195937 -1.15575,-4.160722 -3.00496,-5.200903 z M 341.06366,144.1228 c 0,0.57788 -0.23115,1.04018 -0.69346,1.27133 l -16.75846,9.70835 c -0.4623,0.23115 -1.04018,0.23115 -1.50248,0 l -16.75847,-9.70835 c -0.4623,-0.23115 -0.69345,-0.80903 -0.69345,-1.27133 v -19.4167 c 0,-0.57788 0.23115,-1.04019 0.69345,-1.27134 l 16.75847,-9.70835 c 0.4623,-0.23115 1.04018,-0.23115 1.50248,0 l 16.75846,9.70835 c 0.46231,0.23115 0.69346,0.80903 0.69346,1.27134 z"
           fill="#333333"
           id="path1323" />
        <g
           transform="translate(401.0474,70.501129)"
           id="g1329">
          <path
             d="m 107.6009,53.742664 c 1.84921,-1.040181 2.88939,-3.004966 2.88939,-5.085328 V 34.903838 c 0,-2.080362 -1.15575,-4.045147 -2.88939,-5.085328 L 58.943567,1.6180587 c -1.84921,-1.0401806 -4.045147,-1.0401806 -5.894357,0 L 4.0451467,29.934086 c -1.8492099,1.04018 -3.0049661,3.004966 -3.0049661,5.085327 v 56.516479 c 0,2.080361 1.1557562,4.045146 3.0049661,5.085327 L 52.702483,124.35937 c 1.84921,1.04018 4.045147,1.04018 5.778781,0 l 29.471783,-16.41174 c 0.924605,-0.4623 1.502483,-1.50248 1.502483,-2.54266 0,-1.04018 -0.577878,-2.08036 -1.502483,-2.54267 L 38.717833,74.546275 C 37.793228,73.968397 37.21535,73.043792 37.21535,72.003612 v -17.68307 c 0,-1.040181 0.577878,-2.080361 1.502483,-2.542664 L 54.08939,42.994131 c 0.924605,-0.577878 2.080362,-0.577878 3.004967,0 l 15.371557,8.783747 c 0.924605,0.577878 1.502483,1.502483 1.502483,2.542664 v 13.869074 c 0,1.040181 0.577878,2.080361 1.502483,2.542664 0.924605,0.577878 2.080362,0.577878 3.004967,0 z"
             fill="#333333"
             id="path1325" />
          <path
             d="m 55.245147,51.084424 c 0.346727,-0.231151 0.809029,-0.231151 1.155756,0 l 9.361625,5.432055 c 0.346727,0.231151 0.577878,0.577878 0.577878,1.04018 v 10.864108 c 0,0.462303 -0.231151,0.80903 -0.577878,1.040181 l -9.361625,5.432054 c -0.346727,0.231152 -0.809029,0.231152 -1.155756,0 L 45.883521,69.460948 C 45.536795,69.229797 45.305643,68.88307 45.305643,68.420767 V 57.556659 c 0,-0.462302 0.231152,-0.809029 0.577878,-1.04018 z"
             fill="#539e43"
             id="path1327" />
        </g>
        <g
           transform="translate(134.06772,70.501129)"
           id="g1362">
          <mask
             id="mask-3"
             fill="#ffffff">
            <use
               height="100%"
               width="100%"
               y="0"
               x="0"
               xlink:href="#path-2"
               id="use1331" />
          </mask>
          <use
             height="100%"
             width="100%"
             y="0"
             x="0"
             fill="url(#linearGradient-1)"
             xlink:href="#path-2"
             id="use1334"
             style="fill:url(#linearGradient-1-9)" />
          <g
             mask="url(#mask-3)"
             id="g1342">
            <path
               d="M 51.893454,1.8492099 3.1205418,29.934086 C 1.2713318,30.974266 0,32.939052 0,35.019413 V 91.30474 c 0,1.386908 0.5778781,2.65824 1.5024831,3.69842 L 56.285327,1.1557562 C 54.89842,0.92460497 53.280361,1.0401806 51.893454,1.8492099 Z"
               id="path1336" />
            <path
               d="m 56.632054,125.05282 c 0.462303,-0.11557 0.924605,-0.34672 1.386908,-0.57788 L 106.79187,96.390068 c 1.84921,-1.040181 3.00497,-3.004966 3.00497,-5.085328 V 35.019413 c 0,-1.502483 -0.69345,-3.004966 -1.73364,-4.045147 z"
               id="path1338" />
            <path
               style="fill:url(#linearGradient-4)"
               d="M 106.6763,29.934086 57.78781,1.8492099 C 57.325508,1.6180587 56.74763,1.3869074 56.285327,1.2713318 L 1.5024831,95.118736 c 0.4623024,0.577878 1.0401806,1.040181 1.6180587,1.386907 L 52.009029,124.59052 c 1.386908,0.80903 3.004966,1.04018 4.50745,0.57788 L 107.94763,31.089842 c -0.34673,-0.462303 -0.80903,-0.809029 -1.27133,-1.155756 z"
               fill="url(#linearGradient-4)"
               id="path1340" />
          </g>
          <g
             mask="url(#mask-3)"
             id="g1360">
            <g
               transform="translate(0,-9.24605)"
               id="g1358">
              <path
                 d="M 109.79684,100.55079 V 44.265463 c 0,-2.080361 -1.27133,-4.045147 -3.12054,-5.085328 L 57.78781,11.09526 C 57.209932,10.748533 56.632054,10.517382 55.9386,10.401806 l 53.51151,91.420314 c 0.23115,-0.34672 0.34673,-0.80903 0.34673,-1.27133 z"
                 fill="none"
                 id="path1344" />
              <path
                 d="M 3.1205418,39.180135 C 1.2713318,40.220316 0,42.185102 0,44.265463 v 56.285327 c 0,2.08036 1.3869074,4.04515 3.1205418,5.08533 l 48.8884872,28.08487 c 1.155757,0.69346 2.427088,0.92461 3.813996,0.69346 L 3.4672686,39.06456 Z"
                 fill="none"
                 id="path1346" />
              <path
                 style="fill:url(#linearGradient-5)"
                 fill="url(#linearGradient-5)"
                 fill-rule="evenodd"
                 d="M 50.390971,0.80902934 49.697517,1.1557562 h 0.924605 z"
                 id="path1348" />
              <path
                 style="fill:url(#linearGradient-6)"
                 d="m 106.79187,105.63612 c 1.38691,-0.80903 2.42709,-2.19594 2.88939,-3.69842 L 56.054176,10.401806 c -1.386907,-0.231151 -2.88939,-0.115576 -4.160722,0.693454 l -48.541761,27.9693 52.355756,95.46546 c 0.693454,-0.11557 1.502483,-0.34672 2.195937,-0.69345 z"
                 fill="url(#linearGradient-6)"
                 fill-rule="evenodd"
                 id="path1350" />
              <path
                 style="fill:url(#linearGradient-7)"
                 fill="url(#linearGradient-7)"
                 fill-rule="evenodd"
                 d="m 111.29932,104.71151 -0.34672,-0.57788 v 0.80903 z"
                 id="path1352" />
              <path
                 style="fill:url(#linearGradient-8)"
                 d="m 106.79187,105.63612 -48.772908,28.08487 c -0.693454,0.34673 -1.386908,0.57788 -2.195937,0.69346 l 0.924605,1.73363 54.08939,-31.32099 v -0.69346 l -1.38691,-2.31151 c -0.23115,1.61806 -1.27133,3.00497 -2.65824,3.814 z"
                 fill="url(#linearGradient-8)"
                 fill-rule="evenodd"
                 id="path1354" />
              <path
                 style="fill:url(#linearGradient-9)"
                 d="m 106.79187,105.63612 -48.772908,28.08487 c -0.693454,0.34673 -1.386908,0.57788 -2.195937,0.69346 l 0.924605,1.73363 54.08939,-31.32099 v -0.69346 l -1.38691,-2.31151 c -0.23115,1.61806 -1.27133,3.00497 -2.65824,3.814 z"
                 fill="url(#linearGradient-9)"
                 fill-rule="evenodd"
                 id="path1356" />
            </g>
          </g>
        </g>
      </g>
    </g>
    <g
       id="g1162">
      <g
         id="g1815"
         transform="matrix(0.44832863,0,0,0.40699066,-311.71891,285.93137)"
         style="display:inline">
        <g
           id="g1806">
          <rect
             style="opacity:1;fill:#b3b3b3;fill-opacity:1;stroke:none;stroke-width:3.175;stroke-linecap:round;stroke-linejoin:round;stroke-miterlimit:4;stroke-dasharray:none;stroke-opacity:1"
             id="rect1778"
             width="239.11583"
             height="156.06973"
             x="737.44086"
             y="41.779232"
             ry="3.4665928" />
          <rect
             style="opacity:1;fill:#000000;fill-opacity:1;stroke:none;stroke-width:2.98828;stroke-linecap:round;stroke-linejoin:round;stroke-miterlimit:4;stroke-dasharray:none;stroke-opacity:1"
             id="rect1793"
             width="225.05389"
             height="146.89159"
             x="744.4718"
             y="46.368305"
             ry="3.2627294" />
        </g>
        <g
           id="g1802">
          <path
             id="rect1790"
             style="opacity:1;fill:#b3b3b3;fill-opacity:1;stroke:none;stroke-width:2.71901;stroke-linecap:round;stroke-linejoin:round;stroke-miterlimit:4;stroke-dasharray:none;stroke-opacity:1"
             d="m 739.84387,200.5293 h 233.87011 c 2.19147,0 3.60485,1.0096 3.95575,2.22798 l 30.19167,104.83908 c 0.3509,1.21839 -1.7643,2.22799 -3.9557,2.22799 H 709.65217 c -2.19148,0 -4.30663,-1.0096 -3.95575,-2.22799 l 30.19171,-104.83908 c 0.35089,-1.21838 1.76427,-2.22798 3.95574,-2.22798 z"
             sodipodi:nodetypes="sssssssss" />
          <path
             id="path1795"
             style="opacity:1;fill:#666666;fill-opacity:1;stroke:none;stroke-width:1.97569;stroke-linecap:round;stroke-linejoin:round;stroke-miterlimit:4;stroke-dasharray:none;stroke-opacity:1"
             d="m 748.92173,206.50288 h 215.71433 c 2.02135,0 3.43499,0.5326 3.64866,1.27533 l 17.26458,60.012 c 0.21366,0.7427 -1.6274,1.27534 -3.64865,1.27534 H 731.65718 c -2.02135,0 -3.86232,-0.5326 -3.64865,-1.27534 l 17.26455,-60.012 c 0.21367,-0.74273 1.6273,-1.27533 3.64865,-1.27533 z"
             sodipodi:nodetypes="sssssssss" />
          <rect
             style="opacity:1;fill:#4d4d4d;fill-opacity:1;stroke:none;stroke-width:2.13379;stroke-linecap:round;stroke-linejoin:round;stroke-miterlimit:4;stroke-dasharray:none;stroke-opacity:1"
             id="rect1797"
             width="54.066315"
             height="30.691362"
             x="829.74573"
             y="273.24194"
             ry="2.3163445" />
        </g>
      </g>
      <g
         style="display:inline;stroke-width:2.9;stroke-linecap:butt;stroke-linejoin:round;stroke-miterlimit:4;stroke-dasharray:none;paint-order:normal"
         inkscape:connector-avoid="true"
         transform="matrix(0.11607813,0,0,0.08758629,67.098351,309.2378)"
         id="g180">
        <path
           style="stroke-width:2.9;stroke-linecap:butt;stroke-linejoin:round;stroke-miterlimit:4;stroke-dasharray:none;paint-order:normal"
           d="M 91.8,15.6 C 80.9,-0.1 59.2,-4.7 43.6,5.2 L 16.1,22.8 C 8.6,27.5 3.4,35.2 1.9,43.9 0.6,51.2 1.7,58.7 5.2,65.2 2.8,68.8 1.2,72.8 0.5,77 c -1.6,8.9 0.5,18.1 5.7,25.4 11,15.7 32.6,20.3 48.2,10.4 L 81.9,95.3 c 7.5,-4.7 12.7,-12.4 14.2,-21.1 1.3,-7.3 0.2,-14.8 -3.3,-21.3 2.4,-3.6 4,-7.6 4.7,-11.8 1.7,-9 -0.4,-18.2 -5.7,-25.5"
           fill="#ff3e00"
           id="path166" />
        <path
           style="stroke-width:2.9;stroke-linecap:butt;stroke-linejoin:round;stroke-miterlimit:4;stroke-dasharray:none;paint-order:normal"
           d="M 40.9,103.9 C 32,106.2 22.7,102.7 17.5,95.2 14.3,90.8 13.1,85.3 14,79.9 14.2,79 14.4,78.2 14.6,77.3 l 0.5,-1.6 1.4,1 c 3.3,2.4 6.9,4.2 10.8,5.4 l 1,0.3 -0.1,1 c -0.1,1.4 0.3,2.9 1.1,4.1 1.6,2.3 4.4,3.4 7.1,2.7 0.6,-0.2 1.2,-0.4 1.7,-0.7 L 65.5,72 c 1.4,-0.9 2.3,-2.2 2.6,-3.8 0.3,-1.6 -0.1,-3.3 -1,-4.6 -1.6,-2.3 -4.4,-3.3 -7.1,-2.6 -0.6,0.2 -1.2,0.4 -1.7,0.7 l -10.5,6.7 c -1.7,1.1 -3.6,1.9 -5.6,2.4 C 33.3,73.1 24,69.6 18.8,62.1 15.7,57.7 14.4,52.2 15.4,46.8 16.3,41.6 19.5,36.9 24,34.1 L 51.5,16.6 c 1.7,-1.1 3.6,-1.9 5.6,-2.5 8.9,-2.3 18.2,1.2 23.4,8.7 3.2,4.4 4.4,9.9 3.5,15.3 -0.2,0.9 -0.4,1.7 -0.7,2.6 l -0.5,1.6 -1.4,-1 C 78.1,38.9 74.5,37.1 70.6,35.9 l -1,-0.3 0.1,-1 c 0.1,-1.4 -0.3,-2.9 -1.1,-4.1 -1.6,-2.3 -4.4,-3.3 -7.1,-2.6 -0.6,0.2 -1.2,0.4 -1.7,0.7 L 32.4,46.1 c -1.4,0.9 -2.3,2.2 -2.6,3.8 -0.3,1.6 0.1,3.3 1,4.6 1.6,2.3 4.4,3.3 7.1,2.6 0.6,-0.2 1.2,-0.4 1.7,-0.7 l 10.5,-6.7 c 1.7,-1.1 3.6,-1.9 5.6,-2.5 8.9,-2.3 18.2,1.2 23.4,8.7 3.2,4.4 4.4,9.9 3.5,15.3 -0.9,5.2 -4.1,9.9 -8.6,12.7 l -27.5,17.5 c -1.7,1.1 -3.6,1.9 -5.6,2.5"
           fill="#ffffff"
           id="path168" />
      </g>
      <g
         style="display:inline;stroke-linecap:butt"
         inkscape:connector-avoid="true"
         transform="matrix(0.04475713,0,0,0.04519086,101.75953,310.42055)"
         id="g1454">
        <path
           style="stroke-linecap:butt"
           d="m 0.75412411,114.75034 c 0,19.21434 18.76247889,37.15171 48.34307589,47.26218 -5.906969,29.73771 -1.058633,53.7061 15.13534,63.04558 16.645727,9.5991 41.44376,2.95452 64.98045,-17.61928 22.94287,19.74325 46.13074,27.51321 62.30962,18.14718 16.62945,-9.62696 21.68777,-35.221 15.61744,-65.88691 30.80976,-10.18643 48.04389,-25.48149 48.04389,-44.94875 0,-18.768874 -18.79729,-35.006478 -47.97892,-45.052348 6.53495,-31.93328 0.9977,-55.320056 -15.8666,-65.045237 -16.25896,-9.375677 -39.716,-1.2038186 -62.99629,19.056504 C 104.12294,2.2045276 80.897347,-4.3611367 64.049392,5.3923895 47.806238,14.794736 43.17111,39.198696 49.0972,69.486941 20.515429,79.452202 0.75412411,96.056526 0.75412411,114.75034 Z"
           fill="#ffffff"
           id="path1434" />
        <path
           style="stroke-linecap:butt"
           d="m 201.02455,79.674118 c -2.34402,-0.806812 -4.7729,-1.570187 -7.27378,-2.292135 0.41105,-1.677575 0.78831,-3.33343 1.12375,-4.961132 5.50611,-26.727365 1.90602,-48.259116 -10.38721,-55.348285 -11.78766,-6.797575 -31.06548,0.289985 -50.53516,17.233847 -1.87224,1.629311 -3.74971,3.354344 -5.62637,5.162231 -1.25044,-1.196141 -2.49886,-2.352063 -3.74407,-3.457709 C 104.17692,17.893455 83.724267,10.258501 71.443105,17.368182 59.666702,24.185464 56.17923,44.427362 61.135535,69.757084 c 0.478617,2.44658 1.038077,4.945043 1.670737,7.485335 -2.89463,0.821694 -5.689113,1.697685 -8.362935,2.629581 -23.922426,8.340412 -39.200377,21.4119 -39.200377,34.97044 0,14.00339 16.400892,28.049 41.317958,36.56557 1.966353,0.67208 4.006711,1.30755 6.10941,1.91085 -0.682532,2.74743 -1.276179,5.43975 -1.774504,8.06571 -4.725844,24.89012 -1.035262,44.6538 10.709769,51.42805 12.131545,6.99586 32.491687,-0.19507 52.317307,-17.52504 1.56697,-1.36989 3.13957,-2.82264 4.71499,-4.34536 2.04197,1.96635 4.08071,3.82733 6.1086,5.57287 19.20342,16.52517 38.16995,23.19807 49.90412,16.40492 12.11948,-7.01597 16.05822,-28.24688 10.94465,-54.07774 -0.39054,-1.97279 -0.84502,-3.98821 -1.35541,-6.03943 1.42982,-0.42271 2.83349,-0.8591 4.20218,-1.31278 25.90366,-8.58253 42.75743,-22.45721 42.75743,-36.64762 0,-13.60761 -15.77065,-26.767178 -40.17491,-35.168322 z"
           fill="#53c1de"
           id="path1436" />
        <path
           style="stroke-linecap:butt"
           d="m 195.40623,142.32755 c -1.23556,0.40904 -2.50329,0.8044 -3.79516,1.1877 -2.85964,-9.05311 -6.71914,-18.67976 -11.44217,-28.62575 4.50705,-9.7091 8.21734,-19.212667 10.99694,-28.207055 2.31144,0.668857 4.55491,1.374315 6.71673,2.118787 20.90955,7.198165 33.6641,17.840768 33.6641,26.041208 0,8.73497 -13.77453,20.07418 -36.14044,27.48511 z m -9.28035,18.38937 c 2.26116,11.42206 2.58413,21.74894 1.08634,29.82189 -1.34576,7.25407 -4.05216,12.09052 -7.39846,14.02751 -7.12095,4.12174 -22.34902,-1.23596 -38.77204,-15.36844 -1.88269,-1.62006 -3.77907,-3.34992 -5.68147,-5.18074 6.36682,-6.96328 12.73002,-15.05835 18.94038,-24.04871 10.92334,-0.9693 21.24338,-2.55397 30.60216,-4.7174 0.46092,1.85937 0.87036,3.68294 1.22309,5.46589 z m -93.849242,43.13711 c -6.957248,2.45703 -12.49835,2.52742 -15.847868,0.59606 -7.127378,-4.11089 -10.090382,-19.97927 -6.048679,-41.26527 0.462932,-2.43774 1.013945,-4.94183 1.649018,-7.50143 9.25622,2.0468 19.500644,3.51965 30.450121,4.40731 6.2522,8.79731 12.7992,16.88353 19.39688,23.96385 -1.44148,1.39161 -2.87734,2.71645 -4.30514,3.96488 -8.76675,7.66311 -17.55199,13.10004 -25.294332,15.8346 z M 59.68279,142.27406 c -11.017854,-3.76579 -20.116814,-8.66016 -26.353722,-14.00097 -5.604248,-4.79944 -8.433722,-9.5643 -8.433722,-13.43065 0,-8.22779 12.266684,-18.722383 32.725367,-25.855392 2.482376,-0.865533 5.080987,-1.681194 7.777735,-2.447384 2.827462,9.197499 6.536547,18.813686 11.012625,28.537666 -4.533995,9.86837 -8.295767,19.63779 -11.150982,28.94308 -1.922514,-0.55262 -3.7851,-1.1342 -5.577301,-1.74635 z M 70.608541,67.903346 c -4.246423,-21.701882 -1.4262,-38.073011 5.670611,-42.181077 7.55934,-4.376333 24.275158,1.86339 41.893108,17.506941 1.12615,0.999868 2.25674,2.046391 3.39054,3.129112 -6.56511,7.049351 -13.05218,15.074841 -19.24887,23.820267 -10.626917,0.984987 -20.799347,2.56724 -30.152095,4.686027 -0.588016,-2.365336 -1.108864,-4.689244 -1.553294,-6.96127 z m 97.467419,24.067218 c -2.23582,-3.86192 -4.53118,-7.63254 -6.87117,-11.300198 7.20943,0.911384 14.1168,2.1212 20.60347,3.601697 -1.94745,6.241332 -4.37472,12.76702 -7.23195,19.456807 -2.0496,-3.891283 -4.21746,-7.81474 -6.50035,-11.758306 z M 128.329,53.256848 c 4.45235,4.823579 8.91113,10.209031 13.29672,16.052186 -4.41937,-0.208742 -8.89344,-0.317336 -13.40451,-0.317336 -4.46844,0 -8.90952,0.106181 -13.30154,0.311303 4.39001,-5.788858 8.8874,-11.16707 13.40933,-16.046153 z M 88.327441,92.037329 c -2.233414,3.872779 -4.36105,7.774919 -6.378483,11.684301 -2.810972,-6.666459 -5.215723,-13.22191 -7.180066,-19.551726 6.446857,-1.44269 13.321653,-2.622341 20.485229,-3.51643 -2.372977,3.701442 -4.687233,7.499814 -6.92668,11.383051 z m 7.133008,57.682651 c -7.401275,-0.82572 -14.379437,-1.94463 -20.824685,-3.34751 1.995714,-6.44283 4.453556,-13.13825 7.324054,-19.94829 2.022661,3.90657 4.158743,7.81031 6.405832,11.69154 h 4.02e-4 c 2.288917,3.95402 4.660286,7.8272 7.094397,11.60426 z m 33.135611,27.38858 c -4.57502,-4.93619 -9.13838,-10.39645 -13.59515,-16.26977 4.32646,0.16972 8.73738,0.2566 13.2203,0.2566 4.60559,0 9.15848,-0.10377 13.63979,-0.30326 -4.40006,5.9791 -8.84276,11.44781 -13.26494,16.31643 z m 46.07236,-51.03148 c 3.02011,6.88365 5.56604,13.54407 7.58749,19.87711 -6.55143,1.49457 -13.62491,2.69835 -21.07767,3.59285 2.34563,-3.71713 4.66109,-7.55251 6.93634,-11.49768 2.30179,-3.99143 4.48734,-7.98889 6.55384,-11.97228 z m -14.91517,7.14991 c -3.53212,6.12429 -7.15835,11.97066 -10.83968,17.48924 -6.70507,0.47942 -13.63215,0.72637 -20.69236,0.72637 -7.03165,0 -13.87146,-0.21839 -20.45788,-0.64593 -3.82974,-5.59098 -7.5348,-11.45464 -11.044398,-17.517 h 8.04e-4 c -3.500343,-6.04586 -6.721961,-12.1428 -9.641125,-18.20556 2.91836,-6.07683 6.131532,-12.18061 9.611765,-18.215615 l -8.05e-4,0.0012 c 3.489479,-6.051091 7.161969,-11.886202 10.956319,-17.442187 6.71995,-0.507977 13.61083,-0.773027 20.57492,-0.773027 h 4e-4 c 6.99546,0 13.89519,0.26706 20.61313,0.779463 3.73643,5.515362 7.38398,11.331569 10.88714,17.383466 3.54297,6.11986 6.79757,12.18302 9.74087,18.12954 -2.93445,6.04868 -6.18181,12.17297 -9.7091,18.29003 v 0 z m 19.9125,-107.791892 c 7.56658,4.363463 10.50907,21.961301 5.75507,45.037499 -0.30326,1.472452 -0.64473,2.972254 -1.01555,4.492167 -9.37447,-2.16303 -19.55414,-3.772632 -30.21203,-4.7725 -6.20875,-8.841552 -12.64274,-16.87951 -19.10085,-23.838366 1.73629,-1.670335 3.47017,-3.263045 5.19682,-4.766064 16.68162,-14.517393 32.27289,-20.249138 39.37654,-16.152736 z"
           fill="#ffffff"
           id="path1438" />
        <path
           style="stroke-linecap:butt"
           d="m 128.22121,94.665301 c 11.14334,0 20.17714,9.033399 20.17714,20.177139 0,11.14334 -9.0338,20.17715 -20.17714,20.17715 -11.14334,0 -20.17714,-9.03381 -20.17714,-20.17715 0,-11.14374 9.0338,-20.177139 20.17714,-20.177139"
           fill="#53c1de"
           id="path1440" />
      </g>
      <g
         style="display:inline;stroke-width:4.75136;stroke-linecap:butt;stroke-linejoin:round;stroke-miterlimit:4;stroke-dasharray:none;paint-order:normal"
         inkscape:connector-avoid="true"
         transform="matrix(0.06678313,0,0,0.07903819,31.314848,345.27473)"
         id="g1507">
        <path
           style="stroke-width:4.75136;stroke-linecap:butt;stroke-linejoin:round;stroke-miterlimit:4;stroke-dasharray:none;paint-order:normal"
           d="M 131.905,95.64 V 42.95 h 6.816 l 32.243,42.445 V 42.951 h 6.445 V 95.64 h -6.815 L 138.354,52.822 V 95.64 Z m 97.824,-2.064 c -4.248,1.624 -8.832,2.433 -13.744,2.433 -19.083,0 -28.629,-9.15 -28.629,-27.45 0,-17.318 9.212,-25.978 27.632,-25.978 5.285,0 10.199,0.739 14.74,2.215 v 5.894 c -4.542,-1.72 -9.212,-2.58 -14.003,-2.58 -14.368,0 -21.55,6.818 -21.55,20.449 0,14.614 7.07,21.925 21.223,21.925 2.257,0 4.762,-0.296 7.515,-0.888 V 71.691 h 6.816 z M 240.6,75.301 V 42.953 h 6.81 V 75.3 c 0,10.12 5.038,15.186 15.11,15.186 10.07,0 15.108,-5.066 15.108,-15.186 V 42.953 h 6.815 V 75.3 c 0,13.81 -7.307,20.711 -21.922,20.711 -14.615,0 -21.922,-6.9 -21.922,-20.71 z M 303.417,42.95 v 47.165 h 27.566 V 95.64 H 296.605 V 42.95 Z m 37.4,52.691 h -7.073 l 26.196,-59.64 26.196,59.64 h -7.551 l -6.82,-16.583 h -17.422 l 1.877,-5.52 h 13.265 l -9.838,-23.88 z M 393.322,95.64 V 42.95 h 22.476 c 10.024,0 15.034,4.215 15.034,12.638 0,6.855 -4.898,11.928 -14.701,15.216 l 18.09,24.836 h -8.99 L 408.469,71.95 v -4.455 c 10.069,-1.601 15.103,-5.47 15.103,-11.608 0,-4.862 -2.8,-7.298 -8.397,-7.298 h -15.037 v 47.053 h -6.816 z m 66.435,-52.69 v 37.51 c 0,10.12 -5.958,15.18 -17.873,15.18 v -5.527 c 7.37,0 11.056,-3.221 11.056,-9.653 V 42.95 Z m 12.159,50.847 v -6.264 c 5.528,1.964 11.495,2.95 17.907,2.95 9.064,0 13.598,-3.316 13.598,-9.954 0,-5.64 -3.344,-8.472 -10.024,-8.472 h -6.782 c -11.027,0 -16.545,-4.787 -16.545,-14.368 0,-10.07 7.066,-15.11 21.193,-15.11 6.139,0 11.85,0.743 17.132,2.215 v 6.264 c -5.284,-1.967 -10.993,-2.95 -17.132,-2.95 -9.581,0 -14.37,3.195 -14.37,9.581 0,5.647 3.24,8.473 9.722,8.473 h 6.782 c 11.222,0 16.84,4.793 16.84,14.367 0,10.32 -6.804,15.48 -20.415,15.48 -6.41,0 -12.378,-0.74 -17.906,-2.212 z"
           fill="#cccccc"
           id="path1472" />
        <path
           style="stroke-width:4.75136;stroke-linecap:butt;stroke-linejoin:round;stroke-miterlimit:4;stroke-dasharray:none;paint-order:normal"
           d="m 133.63,93.919 v -52.69 h 6.815 l 32.24,42.446 V 41.229 h 6.449 v 52.69 h -6.816 L 140.076,51.1 v 42.818 h -6.446 z m 97.823,-2.064 c -4.248,1.624 -8.829,2.432 -13.743,2.432 -19.085,0 -28.629,-9.148 -28.629,-27.45 0,-17.317 9.212,-25.978 27.636,-25.978 5.28,0 10.195,0.74 14.736,2.214 v 5.894 c -4.542,-1.72 -9.212,-2.58 -14,-2.58 -14.368,0 -21.552,6.819 -21.552,20.45 0,14.614 7.073,21.925 21.222,21.925 2.258,0 4.766,-0.295 7.518,-0.888 V 69.968 h 6.813 z m 10.87,-18.277 V 41.226 h 6.811 v 32.352 c 0,10.12 5.038,15.182 15.11,15.182 10.07,0 15.107,-5.064 15.107,-15.182 V 41.226 h 6.815 v 32.352 c 0,13.809 -7.307,20.707 -21.921,20.707 -14.615,0 -21.922,-6.897 -21.922,-20.707 z m 62.819,-32.352 v 47.165 h 27.562 v 5.525 h -34.375 v -52.69 z m 37.399,52.692 h -7.073 l 26.197,-59.644 26.196,59.644 h -7.556 L 373.49,77.336 h -17.427 l 1.882,-5.525 h 13.261 l -9.835,-23.88 z m 52.505,10e-4 v -52.69 h 22.476 c 10.024,0 15.03,4.212 15.03,12.638 0,6.852 -4.895,11.928 -14.697,15.215 l 18.09,24.837 h -8.994 l -16.76,-23.692 v -4.459 c 10.07,-1.6 15.107,-5.465 15.107,-11.608 0,-4.861 -2.803,-7.293 -8.403,-7.293 h -15.033 v 47.052 z"
           id="path1474" />
        <path
           style="stroke-width:4.75136;stroke-linecap:butt;stroke-linejoin:round;stroke-miterlimit:4;stroke-dasharray:none;paint-order:normal"
           d="m 461.48,41.226 v 37.511 c 0,10.123 -5.956,15.179 -17.871,15.179 V 88.39 c 7.37,0 11.055,-3.223 11.055,-9.655 v -37.51 h 6.817 z m 12.157,50.847 V 85.81 c 5.53,1.964 11.496,2.95 17.908,2.95 9.064,0 13.597,-3.318 13.597,-9.951 0,-5.644 -3.343,-8.473 -10.024,-8.473 h -6.782 c -11.026,0 -16.544,-4.79 -16.544,-14.371 0,-10.07 7.063,-15.11 21.193,-15.11 6.138,0 11.85,0.744 17.132,2.216 v 6.264 c -5.285,-1.968 -10.994,-2.95 -17.132,-2.95 -9.582,0 -14.371,3.194 -14.371,9.58 0,5.648 3.238,8.473 9.722,8.473 h 6.782 c 11.222,0 16.84,4.791 16.84,14.37 0,10.319 -6.803,15.477 -20.414,15.477 -6.41,0 -12.378,-0.74 -17.907,-2.212 z"
           fill="#a6120d"
           id="path1476" />
        <g
           style="stroke-width:4.75136;stroke-linecap:butt;stroke-linejoin:round;stroke-miterlimit:4;stroke-dasharray:none;paint-order:normal"
           id="g1488">
          <path
             style="stroke-width:4.75136;stroke-linecap:butt;stroke-linejoin:round;stroke-miterlimit:4;stroke-dasharray:none;paint-order:normal"
             d="m 61.948,0.651 -61.536,21.656 9.725,80.622 51.877,28.513 52.144,-28.9 9.72,-80.618 L 61.949,0.65 Z"
             fill="#b3b3b3"
             id="path1478" />
          <path
             style="stroke-width:4.75136;stroke-linecap:butt;stroke-linejoin:round;stroke-miterlimit:4;stroke-dasharray:none;paint-order:normal"
             d="M 117.74,26.583 61.806,7.508 V 124.63 l 46.877,-25.944 9.059,-72.103 z"
             fill="#a6120d"
             id="path1480" />
          <path
             style="stroke-width:4.75136;stroke-linecap:butt;stroke-linejoin:round;stroke-miterlimit:4;stroke-dasharray:none;paint-order:normal"
             d="m 7.318,26.927 8.332,72.103 46.154,25.6 V 7.506 L 7.318,26.926 Z"
             fill="#dd1b16"
             id="path1482" />
          <path
             style="stroke-width:4.75136;stroke-linecap:butt;stroke-linejoin:round;stroke-miterlimit:4;stroke-dasharray:none;paint-order:normal"
             d="m 77.202,69.857 -15.397,7.2 H 45.576 l -7.628,19.081 -14.19,0.263 38.047,-84.64 z M 75.713,66.233 61.907,38.899 50.582,65.762 h 11.222 l 13.91,0.47 z"
             fill="#f2f2f2"
             id="path1484" />
          <path
             style="stroke-width:4.75136;stroke-linecap:butt;stroke-linejoin:round;stroke-miterlimit:4;stroke-dasharray:none;paint-order:normal"
             d="m 61.804,11.761 0.102,27.138 12.85,26.884 H 61.833 l -0.03,11.257 17.871,0.017 8.352,19.347 13.577,0.252 -39.8,-84.895 z"
             fill="#b3b3b3"
             id="path1486" />
        </g>
      </g>
      <path
         fill="#cf649a"
         d="m 105.30583,353.25525 c -0.7963,0.003 -1.48584,0.11854 -2.06417,0.29097 -0.21354,-0.25592 -0.42707,-0.47953 -0.46261,-0.64652 -0.0401,-0.19396 -0.089,-0.31252 -0.0401,-0.54415 0.0489,-0.2317 0.27133,-0.56035 0.27133,-0.58729 -0.004,-0.0242 -0.0489,-0.14277 -0.50716,-0.14547 -0.45816,-0.003 -0.85413,0.0539 -0.89862,0.12662 -0.0445,0.0727 -0.13345,0.23974 -0.19129,0.41215 -0.0801,0.25322 -0.91642,1.15026 -1.39243,1.62169 -0.155687,-0.18319 -0.289157,-0.34481 -0.315897,-0.47415 -0.04,-0.19393 -0.089,-0.31248 -0.04,-0.54412 0.0489,-0.2317 0.27137,-0.56032 0.27137,-0.58726 -0.004,-0.0242 -0.0489,-0.14277 -0.5071,-0.14547 -0.45826,-0.003 -0.85414,0.0538 -0.89863,0.12662 -0.0445,0.0727 -0.0934,0.24514 -0.1913,0.41215 -0.0935,0.16702 -1.20562,1.66479 -1.49479,2.05539 -0.1468,0.19935 -0.27577,0.35829 -0.36923,0.46604 -0.0934,0.10775 -0.004,0.008 -0.0134,0.0188 -0.0801,0.0916 -0.12456,0.14278 -0.12456,0.14278 v 0.003 c -0.0622,0.0673 -0.12901,0.13196 -0.1602,0.13196 -0.0223,0 -0.0667,-0.18048 0.009,-0.42828 0.1646,-0.51994 0.56498,-1.33077 0.56058,-1.36039 0,-0.0135 0.0755,-0.15628 -0.25806,-0.22898 -0.32476,-0.0727 -0.44038,0.0485 -0.46712,0.0485 -0.0267,0 -0.0489,0.0431 -0.0489,0.0431 0,0 0.36034,-0.91319 -0.68954,-0.91319 -0.658397,0 -1.565917,0.4337 -2.015237,0.8297 -0.28471,0.0943 -0.88973,0.2936 -1.53033,0.50645 -0.24468,0.0808 -0.49825,0.16701 -0.73848,0.24513 l -0.0489,-0.0324 c -1.27231,-0.82162 -3.625637,-1.40348 -3.527777,-2.50795 0.0357,-0.40139 0.26693,-1.46006 4.519867,-2.74233 3.483297,-1.0506 6.272597,-0.76235 6.757467,-0.12123 0.68954,0.91591 -1.49031,2.61842 -5.111457,2.86356 -1.37908,0.0943 -2.10426,-0.22898 -2.28661,-0.35021 -0.19128,-0.12661 -0.21798,-0.13199 -0.28915,-0.10774 -0.11567,0.0377 -0.0445,0.15084 0,0.21819 0.10676,0.16972 0.55162,0.47142 1.30789,0.62228 0.66281,0.13199 2.28216,0.20473 4.239567,-0.25322 2.19318,-0.51452 3.905897,-1.94226 3.40322,-3.13562 -0.5116,-1.21492 -3.83919,-1.61361 -6.984387,-0.93747 -1.87292,0.40409 -3.901507,1.03445 -5.360657,1.86145 -1.73497,0.98056 -2.01079,1.8372 -1.89513,2.19278 0.40488,1.26879 3.29201,2.09581 4.448647,2.7073 -0.0578,0.0188 -0.11122,0.0377 -0.16015,0.0539 -0.57833,0.17238 -2.780407,0.87012 -3.332037,1.6082 -0.62281,0.83509 0.0979,1.43584 0.57832,1.51666 1.48586,0.25053 3.007287,-0.19935 3.830287,-0.94014 0.81851,-0.74082 0.72069,-1.70252 0.34256,-2.14161 l -0.0135,-0.0161 0.45375,-0.16163 c 0.29366,-0.10506 0.58282,-0.20204 0.83636,-0.28558 -0.14232,0.23436 -0.24469,0.51183 -0.29802,0.91591 -0.0623,0.47414 0.25802,1.08831 0.68064,1.33075 0.18684,0.10504 0.40928,0.10776 0.54719,0.10776 0.48935,0 0.71177,-0.24517 0.95646,-0.53878 0.302497,-0.35827 0.569417,-0.77313 0.569417,-0.77313 0,0 -0.33364,1.12334 0.57832,1.12334 0.33365,0 0.6673,-0.2613 0.81856,-0.396 v 0.003 c 0,0 0.009,-0.008 0.0267,-0.027 a 1.607297,0.97328274 0 0 0 0.0534,-0.0511 v -0.005 c 0.13345,-0.14008 0.43151,-0.46064 0.87638,-0.99133 0.57383,-0.68424 1.12551,-1.54088 1.12551,-1.54088 0,0 0.0534,0.21012 0.21798,0.55494 0.0978,0.20475 0.31137,0.42832 0.47596,0.64651 -0.13346,0.11314 -0.21353,0.17783 -0.21353,0.17783 l 0.004,0.003 c -0.10673,0.0862 -0.22688,0.17782 -0.35141,0.26939 -0.45376,0.32864 -0.99649,0.70311 -1.06767,0.81087 -0.0845,0.12658 -0.0667,0.22087 0.0979,0.29632 0.12013,0.0538 0.33366,0.0646 0.56054,0.0538 0.40927,-0.0162 0.69399,-0.0781 0.83634,-0.11587 0.22244,-0.0485 0.47602,-0.12121 0.72069,-0.22897 0.444857,-0.19932 0.716227,-0.48217 0.689537,-0.8593 -0.0134,-0.20743 -0.12456,-0.41217 -0.26247,-0.60612 0.0401,-0.0351 0.0801,-0.0701 0.12011,-0.10775 0.70289,-0.6223 1.24561,-1.30651 1.24561,-1.30651 0,0 0.0534,0.21012 0.218,0.55492 0.0845,0.17511 0.25356,0.3664 0.40482,0.55496 -0.6584,0.32597 -1.07212,0.7031 -1.21448,0.95093 -0.26247,0.45795 -0.0579,0.66538 0.3292,0.71387 0.17345,0.0215 0.42262,-0.027 0.60942,-0.0754 0.23132,-0.0458 0.5116,-0.12395 0.76966,-0.23976 0.44487,-0.19934 0.87194,-0.47681 0.84969,-0.85125 -0.0134,-0.1724 -0.089,-0.34212 -0.19128,-0.50375 0.56052,-0.14007 1.28561,-0.2209 2.20652,-0.15355 1.97965,0.14008 2.37113,0.88897 2.29555,1.20145 -0.0756,0.31252 -0.48935,0.48489 -0.62731,0.53877 -0.1379,0.0512 -0.18239,0.0701 -0.16904,0.10776 0.0178,0.0566 0.0801,0.0538 0.20018,0.0431 0.16461,-0.0162 1.04099,-0.25591 1.07658,-0.83236 0.0534,-0.74092 -1.10772,-1.54907 -3.16744,-1.54101 z m -15.267754,3.11677 c -0.653947,0.43371 -1.574807,0.59803 -1.966297,0.45795 -0.42262,-0.14816 -0.25807,-0.7866 0.54719,-1.24724 0.48934,-0.28015 1.125497,-0.53877 1.543677,-0.6977 0.0934,-0.0351 0.23578,-0.0862 0.40482,-0.14817 0.0267,-0.0107 0.0445,-0.0161 0.0445,-0.0161 0.0312,-0.0108 0.0667,-0.0242 0.10232,-0.0377 0.29806,0.65728 0.0134,1.23376 -0.67619,1.68903 z m 4.782297,-1.96919 c -0.226877,0.33673 -0.707337,1.20145 -0.996497,1.15297 -0.24917,-0.0405 -0.40038,-0.69502 -0.049,-1.34154 0.17794,-0.32598 0.55608,-0.71386 0.77852,-0.86475 0.360377,-0.24244 0.751807,-0.32325 0.849727,-0.22358 0.11566,0.12932 -0.44042,1.06678 -0.58278,1.2769 z m 3.94596,1.14218 c -0.0979,0.0296 -0.18685,0.0512 -0.22689,0.0351 -0.0312,-0.0108 0.04,-0.0512 0.04,-0.0512 0,0 0.4938,-0.32057 0.68953,-0.46873 0.11122,-0.0862 0.24468,-0.18585 0.38703,-0.29901 v 0.0323 c 4e-5,0.38789 -0.61387,0.6465 -0.88968,0.75156 z m 3.042827,-0.42023 c -0.0711,-0.0323 -0.0623,-0.132 0.17794,-0.44448 0.0935,-0.12392 0.30696,-0.33135 0.6762,-0.528 0.0445,0.0808 0.0712,0.15891 0.0667,0.23167 -0.004,0.48489 -0.57383,0.66538 -0.92088,0.74081 z"
         id="path2276"
         style="display:inline;stroke-width:0.0346178" />
      <g
         id="g2457"
         transform="matrix(0.44832864,0,0,0.40699065,-324.69801,292.00525)">
        <g
           inkscape:connector-avoid="true"
           transform="matrix(0.09915894,-6.3342558e-5,5.9814562e-5,0.09915541,901.10157,92.206447)"
           id="g1515"
           style="display:inline">
          <path
             d="M 0,0 H 256 V 256 H 0 Z"
             fill="#f7df1e"
             id="path1509" />
          <path
             d="m 67.311746,213.93229 19.590908,-11.85605 c 3.779454,6.70111 7.217575,12.3709 15.464436,12.3709 7.90511,0 12.88899,-3.09232 12.88899,-15.12026 v -81.79809 h 24.05749 V 199.667 c 0,24.91733 -14.60581,36.25894 -35.91517,36.25894 -19.245105,0 -30.416457,-9.96734 -36.08706,-21.99568"
             fill="#000000"
             id="path1511" />
          <path
             d="m 152.38095,211.35441 19.58847,-11.34161 c 5.15657,8.42118 11.85849,14.60703 23.71495,14.60703 9.96815,0 16.32467,-4.98387 16.32467,-11.85767 0,-8.24848 -6.52962,-11.17014 -17.52787,-15.98009 l -6.01275,-2.57951 c -17.35721,-7.38783 -28.87111,-16.66722 -28.87111,-36.25772 0,-18.04353 13.7472,-31.79154 35.22844,-31.79154 15.29417,0 26.29201,5.32764 34.19591,19.24713 l -18.73107,12.02834 c -4.12444,-7.38864 -8.59103,-10.30948 -15.46443,-10.30948 -7.04569,0 -11.51391,4.46781 -11.51391,10.30948 0,7.21758 4.46822,10.13964 14.77771,14.60785 l 6.01396,2.57747 c 20.44953,8.76455 31.96343,17.69936 31.96343,37.8043 0,21.65353 -17.01221,33.50958 -39.86692,33.50958 -22.33945,0 -36.7746,-10.65366 -43.81907,-24.57356"
             fill="#000000"
             id="path1513" />
        </g>
        <g
           id="g2400"
           transform="matrix(0.07001103,0,0,0.04960938,840.17309,92.19023)">
          <path
             d="m 108.4,0 h 23 v 22.8 h 21.2 V 0 h 23 v 69 h -23 V 46 h -21 V 69 H 108.4 M 206,23 H 185.7 V 0 h 63.7 V 23 H 229 V 69 H 206 M 259.5,0 h 24.1 L 298.4,24.3 313.2,0 h 24.1 v 69 h -23 V 34.8 L 298.2,59.6 282.1,34.8 V 69 H 259.5 M 348.7,0 h 23 v 46.2 h 32.6 V 69 h -55.6"
             id="path2377"
             style="fill:#ffffff" />
          <path
             fill="#e44d26"
             d="M 107.6,471 74.6,100.6 H 437.4 L 404.4,470.8 255.7,512"
             id="path2379" />
          <path
             fill="#f16529"
             d="M 256,480.5 V 131 H 404.3 L 376,447"
             id="path2381" />
          <path
             fill="#ebebeb"
             d="m 142,176.3 h 114 v 45.4 h -64.2 l 4.2,46.5 h 60 v 45.3 H 154.4 m 2,22.8 H 202 l 3.2,36.3 50.8,13.6 v 47.4 l -93.2,-26"
             id="path2383" />
          <path
             fill="#ffffff"
             d="M 369.6,176.3 H 255.8 v 45.4 h 109.6 m -4.1,46.5 H 255.8 v 45.4 h 56 l -5.3,59 -50.7,13.6 v 47.2 l 93,-25.8"
             id="path2385" />
        </g>
        <g
           id="g3013"
           transform="matrix(0.07002376,0,0,0.04960938,868.02272,92.19023)">
          <polygon
             id="polygon2989"
             points="404.321,470.819 255.778,512 107.644,470.877 74.633,100.62 437.367,100.62 "
             style="fill:#264de4" />
          <polygon
             id="polygon2991"
             points="376.03,447.246 404.27,130.894 256,130.894 256,480.523 "
             style="fill:#2965f1" />
          <polygon
             id="polygon2993"
             points="150.31,268.217 154.38,313.627 256,313.627 256,268.217 "
             style="fill:#ebebeb" />
          <polygon
             id="polygon2995"
             points="255.843,176.305 142.132,176.305 146.26,221.716 256,221.716 256,176.305 "
             style="fill:#ebebeb" />
          <polygon
             id="polygon2997"
             points="162.771,407.634 255.791,433.457 256,433.399 256,386.153 255.801,386.206 205.227,372.55 201.994,336.333 177.419,336.333 156.409,336.333 "
             style="fill:#ebebeb" />
          <path
             id="path2999"
             d="m 160,0 h 55 v 23 h -32 v 23 h 32 v 23 h -55 z"
             inkscape:connector-curvature="0"
             style="fill:#f9f9f9" />
          <path
             id="path3001"
             d="m 226,0 h 55 v 20 h -32 v 4 h 32 V 70 H 226 V 49 h 32 v -4 h -32 z"
             inkscape:connector-curvature="0"
             style="fill:#ffffff" />
          <path
             id="path3003"
             d="m 292,0 h 55 v 20 h -32 v 4 h 32 V 70 H 292 V 49 h 32 v -4 h -32 z"
             inkscape:connector-curvature="0"
             style="fill:#ffffff" />
          <polygon
             id="polygon3005"
             points="306.49,372.521 255.843,386.191 255.843,433.435 348.937,407.634 349.62,399.962 360.291,280.411 361.399,268.217 369.597,176.305 255.843,176.305 255.843,221.716 319.831,221.716 315.699,268.217 255.843,268.217 255.843,313.627 311.761,313.627 "
             style="fill:#ffffff" />
        </g>
      </g>
    </g>
    <rect
       style="opacity:0.572079;fill:#cccccc;stroke:none;stroke-width:20.32;stroke-linecap:round;stroke-linejoin:round;stroke-miterlimit:4;stroke-dasharray:none;stroke-opacity:1"
       id="rect1173"
       width="168.37498"
       height="204.36702"
       x="80.329941"
       y="47.876896"
       ry="0"
       rx="0" />
    <ellipse
       style="opacity:1;fill:#b3b3b3;fill-opacity:1;stroke:none;stroke-width:7.58677;stroke-linecap:round;stroke-linejoin:round;stroke-miterlimit:4;stroke-dasharray:none;stroke-opacity:1"
       id="path2000"
       cx="412.46866"
       cy="146.40608"
       rx="8.2777958"
       ry="8.5874538" />
    <rect
       style="opacity:1;fill:none;stroke:#000000;stroke-width:22.6919;stroke-linecap:round;stroke-linejoin:round;stroke-miterlimit:4;stroke-dasharray:none;stroke-opacity:1"
       id="rect2042"
       width="191.96526"
       height="223.54388"
       x="196.09572"
       y="36.14193"
       ry="0"
       rx="0" />
    <path
       id="path2044"
       style="opacity:1;fill:none;fill-opacity:1;stroke:#000000;stroke-width:0.482071;stroke-linecap:round;stroke-linejoin:round;stroke-miterlimit:4;stroke-dasharray:none;stroke-opacity:1"
       d="m 411.71982,140.20939 v 2.4351 a 3.2817091,4.1318192 0 0 0 -2.5446,4.02608 3.2817091,4.1318192 0 0 0 3.2817,4.13184 3.2817091,4.1318192 0 0 0 3.28171,-4.13184 3.2817091,4.1318192 0 0 0 -2.5446,-4.02608 v -2.4351 z" />
  </g>
</svg>
