<?xml version="1.0" encoding="UTF-8" standalone="no"?>
<svg
   xmlns:dc="http://purl.org/dc/elements/1.1/"
   xmlns:cc="http://creativecommons.org/ns#"
   xmlns:rdf="http://www.w3.org/1999/02/22-rdf-syntax-ns#"
   xmlns:svg="http://www.w3.org/2000/svg"
   xmlns="http://www.w3.org/2000/svg"
   xmlns:sodipodi="http://sodipodi.sourceforge.net/DTD/sodipodi-0.dtd"
   xmlns:inkscape="http://www.inkscape.org/namespaces/inkscape"
   width="690"
   height="489.48499"
   viewBox="0 0 182.5625 129.50957"
   version="1.1"
   id="svg2465"
   inkscape:version="1.0.1 (0767f8302a, 2020-10-17)"
   sodipodi:docname="frontend.svg">
  <defs
     id="defs2459">
    <inkscape:path-effect
       effect="perspective-envelope"
       up_left_point="705.65807,200.5293"
       up_right_point="1007.8998,200.5293"
       down_left_point="705.65807,309.82435"
       down_right_point="1007.8998,309.82435"
       id="path-effect59"
       is_visible="true"
       lpeversion="1"
       deform_type="perspective"
       horizontal_mirror="false"
       vertical_mirror="false"
       overflow_perspective="false" />
    <inkscape:perspective
       sodipodi:type="inkscape:persp3d"
       inkscape:vp_x="-17.726846 : -3.0652739e-15 : 0"
       inkscape:vp_y="-1.6798356e-14 : 129.11945 : 0"
       inkscape:vp_z="17.726845 : 6.1305478e-15 : 0"
       inkscape:persp3d-origin="74.565741 : -74.111746 : 1"
       id="perspective61" />
    <clipPath
       clipPathUnits="userSpaceOnUse"
       id="clipPath721">
      <path
         id="path723"
         style="fill:#ff0000;fill-opacity:1;fill-rule:nonzero;stroke:none;stroke-width:0.264583"
         d="M 184.51432,-0.33382977 V 4.1315307 c 0.17074,0.6420736 0.35756,1.2805312 0.48524,1.9321819 0.0957,0.4881296 0.13959,0.9849202 0.20929,1.4774291 -0.0575,1.3845141 0.32461,2.7441313 0.22531,4.1268793 -0.0115,0.08314 -0.0649,0.170801 -0.0346,0.249081 0.0167,0.0432 0.092,0.01135 0.13798,0.01705 0.0548,0.145014 0.12543,0.285062 0.16433,0.435116 0.17714,0.683841 0.20736,1.230422 0.13436,1.917712 -0.0811,0.254308 -0.11963,0.78513 -0.0625,1.041797 0.0385,0.173009 0.16684,0.107536 0.22014,0.248047 0.0589,0.155373 0.10718,0.314324 0.154,0.473873 0.076,-0.0027 0.15227,-0.0041 0.22738,-0.01137 2.48567,-0.08423 4.97347,-0.03996 7.46,-0.03566 3.0275,0.0026 6.05516,-0.0029 9.08265,-0.0026 3.15341,0.0011 6.30649,0.0011 9.45989,0.001 0.62333,-7e-6 0.89112,3e-6 1.25005,0 0.0302,-0.711695 1.5547,-0.411792 2.13682,-5.29e-4 0.23628,3e-6 0.32653,-4e-6 0.64906,0 0.33106,4e-6 1.07122,-0.321215 0.99322,5.29e-4 -0.0242,0.09998 -0.0538,0.200011 -0.0837,0.30024 5.33038,0.333371 10.67444,0.09415 16.01039,0.05943 4.66785,0.01134 9.33539,0.03037 14.00328,0.02687 5.13619,-0.0073 10.27268,-0.0031 15.40888,-0.0026 5.45519,-1.33e-4 10.91024,-5.82e-4 16.36542,-5.29e-4 3.03501,1.09e-4 6.06988,8e-6 9.10487,0 3.87326,4e-6 7.7467,0 11.61997,0 5.98625,-2e-6 11.97231,0 17.95859,0 h 7.2698 c 0.49077,0 1.24116,-0.06156 1.76014,0 0.53618,0.0636 1.07148,0.135705 1.60713,0.203605 0.30988,0.04326 0.44064,0.06139 0.64389,0.09095 V -0.33382977 Z m 0,18.76526277 v 77.760629 h 144.5612 V 19.378145 c -0.27747,-0.03813 -0.52798,-0.07414 -0.99994,-0.140043 -0.41714,-0.05999 -0.83381,-0.124624 -1.25161,-0.179834 -0.44744,-0.05913 -1.36964,0 -1.76009,0 h -7.26932 c -5.98628,0 -11.97287,-2e-6 -17.95912,0 -3.87326,10e-7 -7.74618,4e-6 -11.61944,0 -3.03501,7e-6 -6.07039,1.08e-4 -9.1054,0 -5.45523,-7.2e-5 -10.91015,3.7e-4 -16.3654,5.29e-4 -5.13545,-5.03e-4 -10.27085,-0.0047 -15.40629,0.0026 -4.66284,0.0035 -9.32551,-0.01535 -13.9883,-0.02687 -5.90202,0.03739 -11.81425,0.324157 -17.70693,-0.173116 -0.0189,-0.02677 -0.04,-0.05313 -0.0599,-0.07958 -0.67507,0.349628 -1.98681,0.540765 -1.95596,-0.10697 -0.35895,4e-6 -0.62665,-6e-6 -1.25005,0 -3.15351,9.9e-5 -6.30741,5.82e-4 -9.46092,-5.29e-4 -3.02896,-2.91e-4 -6.05782,0.0047 -9.08678,0.0021 -2.47003,-0.0043 -4.94122,-0.04817 -7.41041,0.03566 -0.42412,-0.0082 -0.84956,0.01082 -1.27227,-0.0248 -0.19653,-0.01657 -0.42417,-0.118833 -0.63303,-0.255799 z" />
    </clipPath>
  </defs>
  <sodipodi:namedview
     id="base"
     pagecolor="#ffffff"
     bordercolor="#666666"
     borderopacity="1.0"
     inkscape:pageopacity="0.0"
     inkscape:pageshadow="2"
     inkscape:zoom="0.7"
     inkscape:cx="461.43514"
     inkscape:cy="325.07959"
     inkscape:document-units="mm"
     inkscape:current-layer="layer1"
     inkscape:document-rotation="0"
     showgrid="false"
     inkscape:window-width="1366"
     inkscape:window-height="704"
     inkscape:window-x="0"
     inkscape:window-y="0"
     inkscape:window-maximized="0"
     units="px" />
  <metadata
     id="metadata2462">
    <rdf:RDF>
      <cc:Work
         rdf:about="">
        <dc:format>image/svg+xml</dc:format>
        <dc:type
           rdf:resource="http://purl.org/dc/dcmitype/StillImage" />
        <dc:title></dc:title>
      </cc:Work>
    </rdf:RDF>
  </metadata>
  <g
     inkscape:groupmode="layer"
     id="layer2"
     inkscape:label="laptop-lid-back">
    <rect
       style="fill:#999999;fill-opacity:1;stroke:none;stroke-width:1.91504;stroke-linecap:round;stroke-linejoin:round;stroke-miterlimit:4;stroke-dasharray:none;stroke-opacity:1"
       id="rect55"
       width="144.43271"
       height="94"
       x="19.197697"
       y="1.5863605"
       ry="2.0879111" />
  </g>
  <g
     inkscape:groupmode="layer"
     id="layer3"
     inkscape:label="laptop-lid-rim">
    <path
       style="fill:#999999;fill-opacity:1;stroke:none;stroke-width:1.91504;stroke-linecap:round;stroke-linejoin:round;stroke-miterlimit:4;stroke-dasharray:none;stroke-opacity:1"
       d="m 21.285423,1.3158424 c -1.1567,0 -2.087726,0.9310251 -2.087726,2.0877279 V 5.4174011 C 19.490074,4.6141925 20.256191,3.5710018 21.16295,3.5710018 h 140.24517 c 2.22134,0 2.18665,1.8509686 2.22211,1.8463993 V 3.4035703 c 0,-1.1567028 -0.93105,-2.0877279 -2.08773,-2.0877279 z"
       id="rect185"
       sodipodi:nodetypes="sscsscsss" />
  </g>
  <g
     inkscape:label="Layer 1"
     inkscape:groupmode="layer"
     id="layer1">
    <g
       id="g1802"
       transform="matrix(0.60402819,0,0,0.31956339,-426.23738,30.500999)"
       inkscape:path-effect="#path-effect59">
      <path
         id="rect1790"
         style="opacity:1;fill:#b3b3b3;fill-opacity:1;stroke:none;stroke-width:2.71901;stroke-linecap:round;stroke-linejoin:round;stroke-miterlimit:4;stroke-dasharray:none;stroke-opacity:1"
         d="m 739.84388,200.5293 h 233.87014 c 2.19147,0 3.60485,1.0096 3.95575,2.22798 l 30.19163,104.83908 c 0.3509,1.21839 -1.7643,2.22799 -3.9557,2.22799 H 709.65217 c -2.19148,0 -4.30663,-1.0096 -3.95575,-2.22799 l 30.19172,-104.83908 c 0.35089,-1.21838 1.76427,-2.22798 3.95574,-2.22798 z"
         sodipodi:nodetypes="sssssssss"
         inkscape:original-d="m 739.84387,200.5293 h 233.87011 c 2.19147,0 3.60485,1.0096 3.95575,2.22798 l 30.19167,104.83908 c 0.3509,1.21839 -1.7643,2.22799 -3.9557,2.22799 H 709.65217 c -2.19148,0 -4.30663,-1.0096 -3.95575,-2.22799 l 30.19171,-104.83908 c 0.35089,-1.21838 1.76427,-2.22798 3.95574,-2.22798 z" />
      <path
         id="path1795"
         style="opacity:1;fill:#666666;fill-opacity:1;stroke:none;stroke-width:1.97569;stroke-linecap:round;stroke-linejoin:round;stroke-miterlimit:4;stroke-dasharray:none;stroke-opacity:1"
         d="M 748.92174,206.50288 H 964.6361 c 2.02135,0 3.43499,0.5326 3.64866,1.27533 l 17.26458,60.012 c 0.21366,0.7427 -1.6274,1.27534 -3.64865,1.27534 h -250.2435 c -2.02135,0 -3.86232,-0.5326 -3.64865,-1.27534 l 17.26455,-60.012 c 0.21367,-0.74273 1.6273,-1.27533 3.64865,-1.27533 z"
         sodipodi:nodetypes="sssssssss"
         inkscape:original-d="m 748.92173,206.50288 h 215.71433 c 2.02135,0 3.43499,0.5326 3.64866,1.27533 l 17.26458,60.012 c 0.21366,0.7427 -1.6274,1.27534 -3.64865,1.27534 H 731.65718 c -2.02135,0 -3.86232,-0.5326 -3.64865,-1.27534 l 17.26455,-60.012 c 0.21367,-0.74273 1.6273,-1.27533 3.64865,-1.27533 z" />
      <path
         id="path57"
         style="opacity:1;fill:#666666;fill-opacity:1;stroke:none;stroke-width:0.555465;stroke-linecap:round;stroke-linejoin:round;stroke-miterlimit:4;stroke-dasharray:none;stroke-opacity:1"
         d="m 838.20808,272.98992 h 37.14171 c 0.34804,0 0.59144,0.24451 0.62823,0.58548 l 2.97261,27.55059 c 0.0368,0.34096 -0.2802,0.58549 -0.62822,0.58549 h -43.08694 c -0.34803,0 -0.66501,-0.24451 -0.62822,-0.58549 l 2.97261,-27.55059 c 0.0368,-0.34097 0.28019,-0.58548 0.62822,-0.58548 z"
         sodipodi:nodetypes="sssssssss"
         inkscape:original-d="m 838.20806,272.98992 h 37.1417 c 0.34804,0 0.59144,0.24451 0.62823,0.58548 l 2.97261,27.55059 c 0.0368,0.34096 -0.2802,0.58549 -0.62822,0.58549 h -43.08693 c -0.34803,0 -0.66501,-0.24451 -0.62822,-0.58549 l 2.97261,-27.55059 c 0.0368,-0.34097 0.28019,-0.58548 0.62822,-0.58548 z" />
    </g>
    <g
       id="g181"
       transform="translate(-182.98126,-106.22008)">
      <g
         id="g1806"
         transform="matrix(0.60402819,0,0,0.60402819,-243.25612,79.647952)">
        <rect
           style="opacity:1;fill:#b3b3b3;fill-opacity:1;stroke:none;stroke-width:3.175;stroke-linecap:round;stroke-linejoin:round;stroke-miterlimit:4;stroke-dasharray:none;stroke-opacity:1"
           id="rect1778"
           width="239.11583"
           height="156.06973"
           x="737.44086"
           y="43.991623"
           ry="3.4665928" />
        <rect
           style="opacity:1;fill:#000000;fill-opacity:1;stroke:none;stroke-width:2.98828;stroke-linecap:round;stroke-linejoin:round;stroke-miterlimit:4;stroke-dasharray:none;stroke-opacity:1"
           id="rect1793"
           width="225.05389"
           height="146.89159"
           x="744.4718"
           y="48.580696"
           ry="3.2627294" />
      </g>
      <path
         style="stroke-width:0.413483;stroke-linecap:butt;stroke-linejoin:round;stroke-miterlimit:4;stroke-dasharray:none;paint-order:normal"
         d="m 280.46107,118.71441 c -1.70466,-2.04084 -5.09834,-2.63879 -7.53803,-1.35189 l -4.30075,2.28782 c -1.17293,0.61095 -1.98616,1.61187 -2.22075,2.74278 -0.20331,0.94892 -0.0313,1.92385 0.51609,2.76878 -0.37534,0.46796 -0.62556,0.98792 -0.73503,1.53388 -0.25023,1.1569 0.0782,2.35281 0.89142,3.30173 1.7203,2.04084 5.09834,2.63879 7.53804,1.3519 l 4.30074,-2.27482 c 1.17293,-0.61095 1.98616,-1.61187 2.22075,-2.74278 0.20331,-0.94893 0.0313,-1.92385 -0.51609,-2.76878 0.37534,-0.46797 0.62556,-0.98793 0.73504,-1.53388 0.26586,-1.16991 -0.0626,-2.36581 -0.89143,-3.31474"
         fill="#ff3e00"
         id="path166" />
      <path
         style="stroke-width:0.413483;stroke-linecap:butt;stroke-linejoin:round;stroke-miterlimit:4;stroke-dasharray:none;paint-order:normal"
         d="m 272.50078,130.1925 c -1.39188,0.29897 -2.84631,-0.15599 -3.65954,-1.13091 -0.50045,-0.57196 -0.68812,-1.2869 -0.54737,-1.98884 0.0313,-0.11699 0.0626,-0.22099 0.0938,-0.33798 l 0.0782,-0.20798 0.21895,0.12999 c 0.51609,0.31197 1.07909,0.54596 1.68902,0.70194 l 0.15639,0.039 -0.0156,0.12999 c -0.0156,0.18199 0.0469,0.37697 0.17203,0.53296 0.25022,0.29898 0.68812,0.44197 1.11037,0.35097 0.0938,-0.026 0.18767,-0.052 0.26587,-0.091 l 4.2851,-2.27482 c 0.21895,-0.11699 0.3597,-0.28597 0.40662,-0.49396 0.0469,-0.20798 -0.0156,-0.42896 -0.15639,-0.59795 -0.25023,-0.29898 -0.68812,-0.42897 -1.11038,-0.33797 -0.0938,0.026 -0.18767,0.052 -0.26586,0.091 l -1.6421,0.87093 c -0.26587,0.14299 -0.56301,0.24698 -0.87579,0.31197 -1.39188,0.29898 -2.84631,-0.15599 -3.65954,-1.13091 -0.48482,-0.57195 -0.68812,-1.2869 -0.53173,-1.98884 0.14075,-0.67595 0.6412,-1.2869 1.34496,-1.65087 l 4.30074,-2.27482 c 0.26587,-0.14299 0.56301,-0.24698 0.87579,-0.32497 1.39188,-0.29898 2.84631,0.15599 3.65954,1.13091 0.50045,0.57195 0.68812,1.2869 0.54737,1.98884 -0.0313,0.11699 -0.0625,0.22098 -0.10947,0.33797 l -0.0782,0.20799 -0.21894,-0.12999 c -0.51609,-0.31198 -1.0791,-0.54596 -1.68902,-0.70195 l -0.1564,-0.039 0.0156,-0.12999 c 0.0156,-0.18198 -0.0469,-0.37697 -0.17203,-0.53295 -0.25022,-0.29898 -0.68812,-0.42897 -1.11037,-0.33798 -0.0938,0.026 -0.18767,0.052 -0.26586,0.091 l -4.28511,2.27482 c -0.21895,0.11699 -0.3597,0.28598 -0.40662,0.49396 -0.0469,0.20799 0.0156,0.42897 0.15639,0.59796 0.25023,0.29897 0.68812,0.42896 1.11038,0.33797 0.0938,-0.026 0.18767,-0.052 0.26586,-0.091 l 1.64211,-0.87093 c 0.26586,-0.14299 0.563,-0.24698 0.87578,-0.32498 1.39188,-0.29897 2.84631,0.15599 3.65955,1.13091 0.50045,0.57196 0.68812,1.2869 0.54736,1.98885 -0.14075,0.67594 -0.6412,1.28689 -1.34496,1.65086 l -4.30074,2.27482 c -0.26587,0.14299 -0.56301,0.24698 -0.87579,0.32498"
         fill="#ffffff"
         id="path168" />
      <path
         style="stroke:none;stroke-width:0.063595;stroke-linecap:butt"
         d="m 312.84849,126.13813 c 0,1.28869 1.1314,2.49173 2.91513,3.16983 -0.35619,1.99449 -0.0638,3.60202 0.91268,4.22842 1.00375,0.6438 2.49909,0.19815 3.91837,-1.18171 1.38348,1.32416 2.78173,1.84528 3.75733,1.21711 1.00277,-0.64567 1.30779,-2.36224 0.94174,-4.41898 1.85786,-0.68319 2.89709,-1.70902 2.89709,-3.01467 0,-1.25881 -1.13349,-2.34786 -2.89317,-3.02162 0.39406,-2.14174 0.0602,-3.71027 -0.95677,-4.36253 -0.98043,-0.62882 -2.39491,-0.0807 -3.79873,1.2781 -1.46044,-1.4423 -2.86096,-1.88266 -3.87691,-1.2285 -0.97947,0.63061 -1.25898,2.26736 -0.90163,4.29877 -1.7235,0.66836 -2.91513,1.782 -2.91513,3.03578 z"
         fill="#ffffff"
         id="path1434" />
      <path
         style="stroke:none;stroke-width:0.063595;stroke-linecap:butt"
         d="m 324.92497,123.7856 c -0.14135,-0.0541 -0.28781,-0.10532 -0.43861,-0.15374 0.0248,-0.11251 0.0475,-0.22357 0.0678,-0.33273 0.33202,-1.79259 0.11493,-3.2367 -0.62636,-3.71217 -0.7108,-0.4559 -1.87327,0.0194 -3.04731,1.15586 -0.1129,0.10928 -0.22611,0.22498 -0.33928,0.34623 -0.0754,-0.0802 -0.15068,-0.15775 -0.22577,-0.23191 -1.23042,-1.21512 -2.46374,-1.72719 -3.2043,-1.25035 -0.71013,0.45723 -0.92042,1.81484 -0.62156,3.51368 0.0289,0.16409 0.0626,0.33166 0.10075,0.50203 -0.17455,0.0551 -0.34306,0.11387 -0.50429,0.17637 -1.44254,0.55938 -2.36382,1.43608 -2.36382,2.34544 0,0.93919 0.98899,1.88122 2.49151,2.45242 0.11857,0.0451 0.24161,0.0877 0.3684,0.12816 -0.0412,0.18426 -0.077,0.36484 -0.107,0.54096 -0.28497,1.66936 -0.0624,2.99489 0.64581,3.44923 0.73154,0.46921 1.95927,-0.0131 3.15478,-1.17539 0.0945,-0.0919 0.18931,-0.18931 0.28431,-0.29144 0.12314,0.13188 0.24607,0.2567 0.36836,0.37377 1.15798,1.10833 2.30168,1.55588 3.00926,1.10026 0.73081,-0.47055 0.96832,-1.89449 0.65997,-3.62694 -0.0236,-0.13232 -0.051,-0.26749 -0.0817,-0.40506 0.0862,-0.0283 0.17086,-0.0576 0.25339,-0.0881 1.56202,-0.57563 2.57831,-1.50619 2.57831,-2.45793 0,-0.91265 -0.95098,-1.79525 -2.42258,-2.35871 z"
         fill="#53c1de"
         id="path1436" />
      <path
         style="stroke:none;stroke-width:0.063595;stroke-linecap:butt"
         d="m 324.58618,127.98771 c -0.0745,0.0274 -0.15095,0.054 -0.22885,0.0797 -0.17244,-0.60719 -0.40517,-1.25284 -0.68997,-1.91991 0.27178,-0.65118 0.49551,-1.28857 0.66312,-1.89182 0.13938,0.0449 0.27467,0.0922 0.40503,0.14211 1.26086,0.48277 2.02997,1.19656 2.02997,1.74656 0,0.58584 -0.83061,1.34636 -2.1793,1.8434 z m -0.55961,1.23336 c 0.13635,0.76607 0.15582,1.45868 0.0655,2.00013 -0.0811,0.48652 -0.24435,0.8109 -0.44614,0.94081 -0.4294,0.27644 -1.34766,-0.0829 -2.33798,-1.03075 -0.11353,-0.10865 -0.22789,-0.22467 -0.3426,-0.34747 0.38392,-0.46702 0.76763,-1.00995 1.14212,-1.61292 0.65869,-0.065 1.28099,-0.1713 1.84534,-0.31639 0.0278,0.1247 0.0525,0.24701 0.0738,0.36659 z m -5.65919,2.89317 c -0.41953,0.16479 -0.75366,0.16951 -0.95564,0.04 -0.42979,-0.27572 -0.60846,-1.34 -0.36474,-2.76763 0.0279,-0.1635 0.0611,-0.33144 0.0994,-0.50311 0.55815,0.13727 1.1759,0.23606 1.83616,0.29559 0.37702,0.59003 0.77181,1.13236 1.16965,1.60724 -0.0869,0.0933 -0.1735,0.18219 -0.2596,0.26592 -0.52864,0.51396 -1.0584,0.87861 -1.52527,1.06201 z m -1.96544,-4.13012 c -0.66438,-0.25257 -1.21306,-0.58083 -1.58915,-0.93903 -0.33794,-0.3219 -0.50856,-0.64147 -0.50856,-0.90078 0,-0.55184 0.73969,-1.2557 1.97337,-1.7341 0.14969,-0.0581 0.30639,-0.11276 0.469,-0.16415 0.1705,0.61687 0.39416,1.26182 0.66407,1.914 -0.2734,0.66186 -0.50024,1.31709 -0.67241,1.94119 -0.11593,-0.0371 -0.22825,-0.0761 -0.33632,-0.11713 z m 0.65884,-4.98798 c -0.25607,-1.45553 -0.086,-2.55352 0.34194,-2.82905 0.45583,-0.29352 1.46381,0.12498 2.52619,1.17418 0.0679,0.0671 0.13608,0.13725 0.20445,0.20986 -0.39588,0.4728 -0.78706,1.01106 -1.16072,1.59761 -0.64082,0.0661 -1.25422,0.17218 -1.8182,0.31429 -0.0355,-0.15864 -0.0669,-0.31451 -0.0937,-0.46689 z m 5.87736,1.61417 c -0.13482,-0.25902 -0.27323,-0.51191 -0.41433,-0.7579 0.43473,0.0611 0.85125,0.14227 1.2424,0.24157 -0.11743,0.4186 -0.2638,0.85627 -0.43609,1.30495 -0.12359,-0.26099 -0.25432,-0.52413 -0.39198,-0.78862 z m -2.39677,-2.5965 c 0.26848,0.32352 0.53735,0.68471 0.8018,1.07661 -0.26649,-0.014 -0.53628,-0.0213 -0.8083,-0.0213 -0.26945,0 -0.53725,0.007 -0.8021,0.0209 0.26473,-0.38825 0.53592,-0.74897 0.8086,-1.0762 z m -2.41213,2.60098 c -0.13468,0.25974 -0.26298,0.52145 -0.38463,0.78365 -0.1695,-0.44711 -0.31451,-0.88678 -0.43296,-1.31132 0.38875,-0.0968 0.8033,-0.17587 1.23527,-0.23584 -0.14309,0.24825 -0.28264,0.50301 -0.41768,0.76345 z m 0.43013,3.86872 c -0.44631,-0.0554 -0.8671,-0.13042 -1.25575,-0.22451 0.12034,-0.43212 0.26855,-0.88117 0.44165,-1.33792 0.12196,0.26201 0.25077,0.52383 0.38627,0.78414 h 3e-5 c 0.13802,0.2652 0.28102,0.52497 0.4278,0.77829 z m 1.9981,1.83693 c -0.27588,-0.33106 -0.55105,-0.69728 -0.8198,-1.0912 0.26089,0.0114 0.52687,0.0172 0.7972,0.0172 0.27772,0 0.55226,-0.007 0.82249,-0.0203 -0.26533,0.40102 -0.53323,0.7678 -0.79989,1.09433 z m 2.7782,-3.42264 c 0.18212,0.46168 0.33564,0.90839 0.45754,1.33314 -0.39506,0.10024 -0.8216,0.18098 -1.27101,0.24097 0.14145,-0.2493 0.28107,-0.50654 0.41827,-0.77114 0.1388,-0.2677 0.27059,-0.5358 0.3952,-0.80297 z m -0.89939,0.47954 c -0.21299,0.41075 -0.43166,0.80286 -0.65365,1.17299 -0.40432,0.0322 -0.82203,0.0487 -1.24776,0.0487 -0.42402,0 -0.83646,-0.0147 -1.23363,-0.0433 -0.23094,-0.37498 -0.45435,-0.76825 -0.66599,-1.17485 h 5e-5 c -0.21107,-0.40549 -0.40534,-0.81441 -0.58137,-1.22103 0.17598,-0.40757 0.36974,-0.81694 0.5796,-1.22171 l -5e-5,8e-5 c 0.21042,-0.40584 0.43188,-0.79719 0.66068,-1.16983 0.40522,-0.0341 0.82074,-0.0519 1.24068,-0.0519 h 3e-5 c 0.42183,0 0.83789,0.0179 1.24299,0.0523 0.22531,0.36991 0.44526,0.76 0.6565,1.1659 0.21365,0.41045 0.4099,0.8171 0.58738,1.21593 -0.17695,0.40568 -0.37276,0.81643 -0.58546,1.22669 v 0 z m 1.20074,-7.22951 c 0.45627,0.29265 0.6337,1.47293 0.34703,3.02063 -0.0183,0.0988 -0.0389,0.19934 -0.0612,0.30128 -0.56528,-0.14507 -1.17913,-0.25302 -1.82181,-0.32008 -0.37439,-0.593 -0.76236,-1.1321 -1.15179,-1.59882 0.1047,-0.11203 0.20925,-0.21885 0.31337,-0.31966 1.00591,-0.97367 1.94608,-1.35809 2.37444,-1.08335 z"
         fill="#ffffff"
         id="path1438" />
      <path
         style="stroke:none;stroke-width:0.063595;stroke-linecap:butt"
         d="m 320.53487,124.79104 c 0.67195,0 1.2167,0.60586 1.2167,1.35327 0,0.74737 -0.54475,1.35326 -1.2167,1.35326 -0.67195,0 -1.2167,-0.60589 -1.2167,-1.35326 0,-0.74741 0.54475,-1.35327 1.2167,-1.35327"
         fill="#53c1de"
         id="path1440" />
      <path
         style="stroke-width:0.488131;stroke-linecap:butt;stroke-linejoin:round;stroke-miterlimit:4;stroke-dasharray:none;paint-order:normal"
         d="m 229.76195,181.38905 v -6.1807 h 0.61328 l 2.9011,4.97893 v -4.97881 h 0.5799 v 6.18058 h -0.61319 l -2.90083,-5.02268 v 5.02268 z m 8.80184,-0.24211 c -0.38222,0.1905 -0.79467,0.2854 -1.23664,0.2854 -1.71701,0 -2.57593,-1.07333 -2.57593,-3.21997 0,-2.03146 0.82887,-3.0473 2.48623,-3.0473 0.47552,0 0.91767,0.0867 1.32625,0.25983 v 0.69138 c -0.40867,-0.20176 -0.82886,-0.30264 -1.25994,-0.30264 -1.29278,0 -1.93899,0.79977 -1.93899,2.39873 0,1.71427 0.63613,2.57187 1.90957,2.57187 0.20308,0 0.42847,-0.0347 0.67617,-0.10417 v -2.10031 h 0.61328 z m 0.97813,-2.14371 v -3.79452 h 0.61274 v 3.7944 c 0,1.18711 0.4533,1.78136 1.35954,1.78136 0.90606,0 1.35936,-0.59425 1.35936,-1.78136 v -3.7944 h 0.61319 v 3.7944 c 0,1.61995 -0.65746,2.42946 -1.97246,2.42946 -1.315,0 -1.97246,-0.80939 -1.97246,-2.42934 z m 5.65204,-3.79488 v 5.5326 h 2.48029 v 0.6481 h -3.09321 v -6.1807 z m 3.36511,6.18082 h -0.6364 l 2.35702,-6.99596 2.35702,6.99596 h -0.67941 l -0.61364,-1.94524 h -1.56757 l 0.16889,-0.64751 h 1.19353 l -0.88518,-2.8012 z m 4.72421,-1.2e-4 v -6.1807 h 2.0223 c 0.90193,0 1.35271,0.49444 1.35271,1.48248 0,0.80411 -0.44071,1.39919 -1.32274,1.78488 l 1.62767,2.91334 h -0.80889 l -1.50818,-2.77891 v -0.52258 c 0.90597,-0.1878 1.35891,-0.64165 1.35891,-1.36166 0,-0.57032 -0.25193,-0.85607 -0.75553,-0.85607 h -1.35298 v 5.51946 h -0.61327 z m 5.97757,-6.1807 v 4.40004 c 0,1.18711 -0.53608,1.78066 -1.60815,1.78066 v -0.64833 c 0.66313,0 0.99478,-0.37783 0.99478,-1.13233 v -4.40004 z m 1.09402,5.96451 v -0.73478 c 0.49739,0.23038 1.03428,0.34604 1.61121,0.34604 0.81554,0 1.22349,-0.38898 1.22349,-1.16763 0,-0.66159 -0.30088,-0.9938 -0.90192,-0.9938 h -0.61022 c -0.99217,0 -1.48865,-0.56153 -1.48865,-1.68541 0,-1.18124 0.63577,-1.77245 1.90686,-1.77245 0.55237,0 1.06622,0.0872 1.54148,0.25983 v 0.73479 c -0.47544,-0.23074 -0.98911,-0.34605 -1.54148,-0.34605 -0.86206,0 -1.29296,0.37479 -1.29296,1.12388 0,0.66241 0.29153,0.99391 0.87475,0.99391 h 0.61022 c 1.00972,0 1.5152,0.56224 1.5152,1.6853 0,1.21056 -0.6122,1.81585 -1.83686,1.81585 -0.57675,0 -1.11373,-0.0868 -1.61112,-0.25948 z"
         fill="#cccccc"
         id="path1472" />
      <path
         style="stroke-width:0.488131;stroke-linecap:butt;stroke-linejoin:round;stroke-miterlimit:4;stroke-dasharray:none;paint-order:normal"
         d="m 229.91716,181.18717 v -6.18069 h 0.61319 l 2.90083,4.97904 v -4.97904 h 0.58026 v 6.18069 h -0.61328 l -2.90101,-5.0228 v 5.02269 h -0.57999 z m 8.80175,-0.24211 c -0.38222,0.1905 -0.7944,0.28528 -1.23655,0.28528 -1.71719,0 -2.57593,-1.07309 -2.57593,-3.21997 0,-2.03133 0.82886,-3.0473 2.48659,-3.0473 0.47507,0 0.91731,0.0868 1.32589,0.25971 v 0.69139 c -0.40867,-0.20176 -0.82886,-0.30265 -1.25967,-0.30265 -1.29278,0 -1.93917,0.79989 -1.93917,2.39885 0,1.71427 0.6364,2.57187 1.90948,2.57187 0.20316,0 0.42882,-0.0346 0.67644,-0.10416 v -2.10043 h 0.61301 z m 0.97804,-2.14395 v -3.79499 h 0.61283 v 3.79499 c 0,1.18711 0.4533,1.7809 1.35954,1.7809 0.90606,0 1.35927,-0.59402 1.35927,-1.7809 v -3.79499 h 0.61319 v 3.79499 c 0,1.61984 -0.65746,2.429 -1.97237,2.429 -1.315,0 -1.97246,-0.80904 -1.97246,-2.429 z m 5.65222,-3.79499 v 5.5326 h 2.47992 v 0.6481 h -3.09293 v -6.1807 z m 3.36502,6.18094 h -0.6364 l 2.35711,-6.99643 2.35702,6.99643 h -0.67986 l -0.61319,-1.94512 h -1.56802 l 0.16934,-0.6481 h 1.19317 l -0.88492,-2.8012 z m 4.72421,1.1e-4 v -6.18069 h 2.0223 c 0.90192,0 1.35235,0.49408 1.35235,1.48247 0,0.80376 -0.44044,1.39919 -1.32239,1.78477 l 1.62768,2.91345 h -0.80925 l -1.508,-2.77914 v -0.52305 c 0.90606,-0.18769 1.35927,-0.64107 1.35927,-1.36166 0,-0.57021 -0.25221,-0.85549 -0.75607,-0.85549 h -1.35262 v 5.51934 z"
         id="path1474" />
      <path
         style="stroke-width:0.488131;stroke-linecap:butt;stroke-linejoin:round;stroke-miterlimit:4;stroke-dasharray:none;paint-order:normal"
         d="m 259.41588,175.00612 v 4.40016 c 0,1.18746 -0.5359,1.78054 -1.60797,1.78054 v -0.64821 c 0.66313,0 0.99469,-0.37807 0.99469,-1.13257 v -4.40003 h 0.61337 z m 1.09384,5.96451 v -0.73467 c 0.49757,0.23039 1.03437,0.34605 1.6113,0.34605 0.81554,0 1.2234,-0.38921 1.2234,-1.16729 0,-0.66205 -0.30079,-0.9939 -0.90192,-0.9939 h -0.61022 c -0.99208,0 -1.48857,-0.56189 -1.48857,-1.68577 0,-1.18124 0.63551,-1.77245 1.90687,-1.77245 0.55228,0 1.06622,0.0873 1.54147,0.25995 v 0.73478 c -0.47552,-0.23085 -0.98919,-0.34604 -1.54147,-0.34604 -0.86215,0 -1.29305,0.37467 -1.29305,1.12376 0,0.66253 0.29135,0.99391 0.87475,0.99391 h 0.61022 c 1.00971,0 1.5152,0.562 1.5152,1.68565 0,1.21045 -0.61211,1.8155 -1.83677,1.8155 -0.57675,0 -1.11373,-0.0868 -1.61121,-0.25948 z"
         fill="#a6120d"
         id="path1476" />
      <g
         style="stroke-width:4.75136;stroke-linecap:butt;stroke-linejoin:round;stroke-miterlimit:4;stroke-dasharray:none;paint-order:normal"
         id="g1488"
         transform="matrix(0.08997627,0,0,0.11730308,217.89363,170.17019)">
        <path
           style="stroke-width:4.75136;stroke-linecap:butt;stroke-linejoin:round;stroke-miterlimit:4;stroke-dasharray:none;paint-order:normal"
           d="m 61.948,0.651 -61.536,21.656 9.725,80.622 51.877,28.513 52.144,-28.9 9.72,-80.618 L 61.949,0.65 Z"
           fill="#b3b3b3"
           id="path1478" />
        <path
           style="stroke-width:4.75136;stroke-linecap:butt;stroke-linejoin:round;stroke-miterlimit:4;stroke-dasharray:none;paint-order:normal"
           d="M 117.74,26.583 61.806,7.508 V 124.63 l 46.877,-25.944 9.059,-72.103 z"
           fill="#a6120d"
           id="path1480" />
        <path
           style="stroke-width:4.75136;stroke-linecap:butt;stroke-linejoin:round;stroke-miterlimit:4;stroke-dasharray:none;paint-order:normal"
           d="m 7.318,26.927 8.332,72.103 46.154,25.6 V 7.506 L 7.318,26.926 Z"
           fill="#dd1b16"
           id="path1482" />
        <path
           style="stroke-width:4.75136;stroke-linecap:butt;stroke-linejoin:round;stroke-miterlimit:4;stroke-dasharray:none;paint-order:normal"
           d="m 77.202,69.857 -15.397,7.2 H 45.576 l -7.628,19.081 -14.19,0.263 38.047,-84.64 z M 75.713,66.233 61.907,38.899 50.582,65.762 h 11.222 l 13.91,0.47 z"
           fill="#f2f2f2"
           id="path1484" />
        <path
           style="stroke-width:4.75136;stroke-linecap:butt;stroke-linejoin:round;stroke-miterlimit:4;stroke-dasharray:none;paint-order:normal"
           d="m 61.804,11.761 0.102,27.138 12.85,26.884 H 61.833 l -0.03,11.257 17.871,0.017 8.352,19.347 13.577,0.252 -39.8,-84.895 z"
           fill="#b3b3b3"
           id="path1486" />
      </g>
      <path
         fill="#cf649a"
         d="m 317.58096,180.41071 c -1.07283,0.007 -2.00184,0.17592 -2.78108,0.43183 -0.2876,-0.3798 -0.57541,-0.71168 -0.62331,-0.95951 -0.0533,-0.28786 -0.11979,-0.46381 -0.0533,-0.8076 0.0659,-0.34388 0.36552,-0.83163 0.36552,-0.87162 -0.01,-0.036 -0.0659,-0.21188 -0.6832,-0.21588 -0.61732,-0.007 -1.15082,0.08 -1.21074,0.1879 -0.0593,0.10795 -0.17984,0.35582 -0.25765,0.61169 -0.10794,0.37581 -1.23468,1.70715 -1.87609,2.40682 -0.20974,-0.27188 -0.38959,-0.51176 -0.42557,-0.70371 -0.0533,-0.28781 -0.11986,-0.46376 -0.0533,-0.80757 0.0664,-0.34386 0.36555,-0.83157 0.36555,-0.87155 -0.009,-0.036 -0.0657,-0.21189 -0.68318,-0.21589 -0.61736,-0.007 -1.15072,0.08 -1.21078,0.18791 -0.0587,0.10794 -0.12581,0.36381 -0.25769,0.61169 -0.12584,0.24788 -1.62423,2.47078 -2.01389,3.05051 -0.19772,0.29582 -0.37157,0.5317 -0.49745,0.69164 -0.12582,0.1599 -0.009,0.012 -0.0177,0.028 -0.10783,0.13597 -0.16783,0.21188 -0.16783,0.21188 v 0.007 c -0.0842,0.10004 -0.17384,0.19596 -0.21581,0.19596 -0.0301,0 -0.09,-0.26795 0.0124,-0.63572 0.22173,-0.77165 0.76112,-1.97504 0.75518,-2.019 0,-0.02 0.10182,-0.23194 -0.3476,-0.33984 -0.43755,-0.10795 -0.59336,0.072 -0.62942,0.072 -0.0352,0 -0.0664,0.064 -0.0664,0.064 0,0 0.48553,-1.35528 -0.92896,-1.35528 -0.88715,0 -2.10981,0.64366 -2.71517,1.23137 -0.38348,0.13994 -1.19848,0.43575 -2.06173,0.75164 -0.32962,0.11994 -0.67129,0.24786 -0.99494,0.36381 l -0.0662,-0.0481 c -1.71409,-1.21942 -4.88471,-2.08298 -4.75283,-3.72216 0.0475,-0.59571 0.35958,-2.16693 6.08952,-4.06998 4.69306,-1.55922 8.4509,-1.13143 9.10427,-0.17991 0.92915,1.35932 -2.00785,3.88606 -6.88666,4.24989 -1.85799,0.13992 -2.83489,-0.33985 -3.0806,-0.51975 -0.25775,-0.18791 -0.29376,-0.1959 -0.38963,-0.15992 -0.15593,0.056 -0.0589,0.22389 0,0.32384 0.14388,0.25188 0.7432,0.69965 1.76194,0.92354 0.89316,0.1959 3.07488,0.30384 5.71207,-0.37582 2.95485,-0.7636 5.26246,-2.88256 4.5851,-4.65369 -0.68931,-1.80309 -5.17252,-2.39479 -9.40998,-1.3913 -2.52334,0.5997 -5.25646,1.53524 -7.22222,2.76263 -2.33767,1.45528 -2.70921,2.72664 -2.55334,3.25438 0.54531,1.88305 4.43524,3.11046 5.99352,4.01799 -0.0775,0.028 -0.14979,0.0563 -0.21566,0.08 -0.77924,0.25583 -3.74607,1.29134 -4.48932,2.38673 -0.83906,1.2394 0.13189,2.13094 0.7791,2.2509 2.00196,0.3718 4.0518,-0.29578 5.16066,-1.3953 1.10276,-1.09944 0.97086,-2.52667 0.46147,-3.17834 l -0.0173,-0.0239 0.61125,-0.23985 c 0.39567,-0.15595 0.78535,-0.29985 1.12696,-0.42382 -0.19174,0.3478 -0.32967,0.75961 -0.40152,1.35928 -0.0841,0.70374 0.34763,1.61528 0.91707,1.97509 0.2517,0.1559 0.55125,0.15992 0.73712,0.15992 0.65935,0 0.95894,-0.36386 1.28867,-0.79966 0.40753,-0.53171 0.76709,-1.14742 0.76709,-1.14742 0,0 -0.44937,1.66723 0.77921,1.66723 0.44958,0 0.89904,-0.38777 1.10279,-0.58771 v 0.007 c 0,0 0.0119,-0.0121 0.035,-0.0393 a 2.1654936,1.4444805 0 0 0 0.0718,-0.0759 v -0.009 c 0.17995,-0.20789 0.58139,-0.68366 1.18077,-1.47128 0.77307,-1.0155 1.51633,-2.28687 1.51633,-2.28687 0,0 0.0717,0.31185 0.29374,0.82359 0.13177,0.3039 0.41948,0.63568 0.64127,0.9595 -0.17983,0.16794 -0.28772,0.26392 -0.28772,0.26392 l 0.009,0.007 c -0.14386,0.12794 -0.30574,0.26395 -0.4734,0.39978 -0.61156,0.48779 -1.3427,1.04352 -1.43859,1.20345 -0.11388,0.18792 -0.0898,0.32782 0.13193,0.43983 0.16177,0.08 0.44945,0.0959 0.7551,0.08 0.55156,-0.0243 0.93507,-0.116 1.12682,-0.17199 0.29965,-0.0719 0.64137,-0.17988 0.971,-0.33977 0.59944,-0.29585 0.96494,-0.71563 0.92887,-1.27536 -0.0171,-0.30787 -0.16772,-0.61171 -0.35348,-0.89958 0.0534,-0.052 0.1079,-0.10397 0.16189,-0.1599 0.94697,-0.92358 1.67806,-1.93904 1.67806,-1.93904 0,0 0.0716,0.31185 0.29377,0.82358 0.11376,0.25989 0.34153,0.54379 0.54537,0.82364 -0.88707,0.48373 -1.44442,1.04347 -1.63618,1.41128 -0.35367,0.67969 -0.0777,0.98752 0.44347,1.05947 0.2337,0.032 0.5694,-0.0395 0.82094,-0.11192 0.31184,-0.068 0.68929,-0.18392 1.03705,-0.35584 0.59939,-0.29584 1.17463,-0.7077 1.14487,-1.26335 -0.0172,-0.25591 -0.12014,-0.50775 -0.25793,-0.74764 0.75531,-0.2079 1.73214,-0.32783 2.97308,-0.22789 2.66713,0.20791 3.19448,1.31937 3.09261,1.78313 -0.10185,0.4638 -0.65922,0.71963 -0.84511,0.7996 -0.18601,0.076 -0.24573,0.10401 -0.2277,0.15995 0.0244,0.084 0.10795,0.08 0.26971,0.064 0.22172,-0.0241 1.40238,-0.37984 1.45047,-1.23539 0.0716,-1.09959 -1.49248,-2.29899 -4.26749,-2.28704 z m -20.57005,4.62571 c -0.88112,0.64368 -2.12176,0.8876 -2.64924,0.67968 -0.56939,-0.21992 -0.34773,-1.16745 0.73721,-1.85108 0.65929,-0.41581 1.51637,-0.7996 2.07982,-1.03551 0.12584,-0.0529 0.31765,-0.1279 0.54535,-0.21989 0.0357,-0.0159 0.0591,-0.0239 0.0591,-0.0239 0.0409,-0.0159 0.0899,-0.0361 0.13783,-0.0567 0.40162,0.97552 0.0175,1.83106 -0.91101,2.50676 z m 6.44305,-2.92256 c -0.30565,0.49977 -0.95293,1.78312 -1.34251,1.71118 -0.33575,-0.0596 -0.53951,-1.03151 -0.0663,-1.99105 0.23971,-0.48378 0.74917,-1.05946 1.04888,-1.28339 0.48554,-0.35982 1.01283,-0.47976 1.14472,-0.33183 0.15592,0.19194 -0.59326,1.58325 -0.7851,1.89509 z m 5.31627,1.69515 c -0.13171,0.0439 -0.25167,0.076 -0.30552,0.0518 -0.041,-0.016 0.0535,-0.0759 0.0535,-0.0759 0,0 0.66541,-0.47581 0.92912,-0.69573 0.14979,-0.12789 0.32962,-0.2758 0.5214,-0.44372 v 0.0485 c 3e-5,0.5757 -0.82712,0.95946 -1.19865,1.11536 z m 4.09969,-0.62369 c -0.096,-0.048 -0.084,-0.19588 0.2397,-0.65966 0.12595,-0.1839 0.41358,-0.49176 0.91111,-0.78361 0.0593,0.11996 0.096,0.23585 0.0898,0.34384 -0.009,0.71964 -0.77305,0.98743 -1.24065,1.09943 z"
         id="path2276"
         style="display:inline;opacity:1;stroke-width:0.0489521" />
      <g
         inkscape:connector-avoid="true"
         transform="matrix(0.0598948,-3.8260691e-5,3.6129682e-5,0.05989266,282.53225,146.80647)"
         id="g1515"
         style="display:inline">
        <path
           d="M 0,0 H 256 V 256 H 0 Z"
           fill="#f7df1e"
           id="path1509" />
        <path
           d="m 67.311746,213.93229 19.590908,-11.85605 c 3.779454,6.70111 7.217575,12.3709 15.464436,12.3709 7.90511,0 12.88899,-3.09232 12.88899,-15.12026 v -81.79809 h 24.05749 V 199.667 c 0,24.91733 -14.60581,36.25894 -35.91517,36.25894 -19.245105,0 -30.416457,-9.96734 -36.08706,-21.99568"
           fill="#000000"
           id="path1511" />
        <path
           d="m 152.38095,211.35441 19.58847,-11.34161 c 5.15657,8.42118 11.85849,14.60703 23.71495,14.60703 9.96815,0 16.32467,-4.98387 16.32467,-11.85767 0,-8.24848 -6.52962,-11.17014 -17.52787,-15.98009 l -6.01275,-2.57951 c -17.35721,-7.38783 -28.87111,-16.66722 -28.87111,-36.25772 0,-18.04353 13.7472,-31.79154 35.22844,-31.79154 15.29417,0 26.29201,5.32764 34.19591,19.24713 l -18.73107,12.02834 c -4.12444,-7.38864 -8.59103,-10.30948 -15.46443,-10.30948 -7.04569,0 -11.51391,4.46781 -11.51391,10.30948 0,7.21758 4.46822,10.13964 14.77771,14.60785 l 6.01396,2.57747 c 20.44953,8.76455 31.96343,17.69936 31.96343,37.8043 0,21.65353 -17.01221,33.50958 -39.86692,33.50958 -22.33945,0 -36.7746,-10.65366 -43.81907,-24.57356"
           fill="#000000"
           id="path1513" />
      </g>
      <g
         id="g2400"
         transform="matrix(0.04228864,0,0,0.02996546,245.72973,146.79667)">
        <path
           d="m 108.4,0 h 23 v 22.8 h 21.2 V 0 h 23 v 69 h -23 V 46 h -21 V 69 H 108.4 M 206,23 H 185.7 V 0 h 63.7 V 23 H 229 V 69 H 206 M 259.5,0 h 24.1 L 298.4,24.3 313.2,0 h 24.1 v 69 h -23 V 34.8 L 298.2,59.6 282.1,34.8 V 69 H 259.5 M 348.7,0 h 23 v 46.2 h 32.6 V 69 h -55.6"
           id="path2377"
           style="fill:#ffffff" />
        <path
           fill="#e44d26"
           d="M 107.6,471 74.6,100.6 H 437.4 L 404.4,470.8 255.7,512"
           id="path2379" />
        <path
           fill="#f16529"
           d="M 256,480.5 V 131 H 404.3 L 376,447"
           id="path2381" />
        <path
           fill="#ebebeb"
           d="m 142,176.3 h 114 v 45.4 h -64.2 l 4.2,46.5 h 60 v 45.3 H 154.4 m 2,22.8 H 202 l 3.2,36.3 50.8,13.6 v 47.4 l -93.2,-26"
           id="path2383" />
        <path
           fill="#ffffff"
           d="M 369.6,176.3 H 255.8 v 45.4 h 109.6 m -4.1,46.5 H 255.8 v 45.4 h 56 l -5.3,59 -50.7,13.6 v 47.2 l 93,-25.8"
           id="path2385" />
      </g>
      <g
         id="g3013"
         transform="matrix(0.04229633,0,0,0.02996546,262.55169,146.79667)">
        <polygon
           id="polygon2989"
           points="255.778,512 107.644,470.877 74.633,100.62 437.367,100.62 404.321,470.819 "
           style="fill:#264de4" />
        <polygon
           id="polygon2991"
           points="256,480.523 376.03,447.246 404.27,130.894 256,130.894 "
           style="fill:#2965f1" />
        <polygon
           id="polygon2993"
           points="256,268.217 150.31,268.217 154.38,313.627 256,313.627 "
           style="fill:#ebebeb" />
        <polygon
           id="polygon2995"
           points="142.132,176.305 146.26,221.716 256,221.716 256,176.305 255.843,176.305 "
           style="fill:#ebebeb" />
        <polygon
           id="polygon2997"
           points="205.227,372.55 201.994,336.333 177.419,336.333 156.409,336.333 162.771,407.634 255.791,433.457 256,433.399 256,386.153 255.801,386.206 "
           style="fill:#ebebeb" />
        <path
           id="path2999"
           d="m 160,0 h 55 v 23 h -32 v 23 h 32 v 23 h -55 z"
           inkscape:connector-curvature="0"
           style="fill:#f9f9f9" />
        <path
           id="path3001"
           d="m 226,0 h 55 v 20 h -32 v 4 h 32 V 70 H 226 V 49 h 32 v -4 h -32 z"
           inkscape:connector-curvature="0"
           style="fill:#ffffff" />
        <path
           id="path3003"
           d="m 292,0 h 55 v 20 h -32 v 4 h 32 V 70 H 292 V 49 h 32 v -4 h -32 z"
           inkscape:connector-curvature="0"
           style="fill:#ffffff" />
        <polygon
           id="polygon3005"
           points="315.699,268.217 255.843,268.217 255.843,313.627 311.761,313.627 306.49,372.521 255.843,386.191 255.843,433.435 348.937,407.634 349.62,399.962 360.291,280.411 361.399,268.217 369.597,176.305 255.843,176.305 255.843,221.716 319.831,221.716 "
           style="fill:#ffffff" />
      </g>
    </g>
  </g>
</svg>
