<svg width="690" height="489.48" version="1.1" viewBox="0 0 182.56 129.51" xmlns="http://www.w3.org/2000/svg">
  <rect x="19.198" y="1.5864" width="144.43" height="94" ry="2.0879" fill="#999"/>
  <path d="m21.285 1.3158c-1.1567 0-2.0877 0.93103-2.0877 2.0877v2.0138c0.29238-0.80321 1.0585-1.8464 1.9653-1.8464h140.25c2.2213 0 2.1866 1.851 2.2221 1.8464v-2.0138c0-1.1567-0.93105-2.0877-2.0877-2.0877z" fill="#999"/>
  <g transform="matrix(.60403 0 0 .31956 -426.24 30.501)">
    <path d="m739.84 200.53h233.87c2.1915 0 3.6048 1.0096 3.9558 2.228l30.192 104.84c0.3509 1.2184-1.7643 2.228-3.9557 2.228h-294.25c-2.1915 0-4.3066-1.0096-3.9558-2.228l30.192-104.84c0.35089-1.2184 1.7643-2.228 3.9557-2.228z" fill="#b3b3b3"/>
    <path d="m748.92 206.5h215.71c2.0214 0 3.435 0.5326 3.6487 1.2753l17.265 60.012c0.21366 0.7427-1.6274 1.2753-3.6486 1.2753h-250.24c-2.0214 0-3.8623-0.5326-3.6486-1.2753l17.265-60.012c0.21367-0.74273 1.6273-1.2753 3.6486-1.2753z" fill="#666"/>
    <path d="m838.21 272.99h37.142c0.34804 0 0.59144 0.24451 0.62823 0.58548l2.9726 27.551c0.0368 0.34096-0.2802 0.58549-0.62822 0.58549h-43.087c-0.34803 0-0.66501-0.24451-0.62822-0.58549l2.9726-27.551c0.0368-0.34097 0.28019-0.58548 0.62822-0.58548z" fill="#666"/>
  </g>
  <g transform="translate(-182.98 -106.22)">
    <g transform="matrix(.60403 0 0 .60403 -243.26 79.648)">
      <rect x="737.44" y="43.992" width="239.12" height="156.07" ry="3.4666" fill="#b3b3b3"/>
      <rect x="744.47" y="48.581" width="225.05" height="146.89" ry="3.2627"/>
    </g>
    <path d="m280.46 118.71c-1.7047-2.0408-5.0983-2.6388-7.538-1.3519l-4.3008 2.2878c-1.1729 0.61095-1.9862 1.6119-2.2208 2.7428-0.20331 0.94892-0.0313 1.9238 0.51609 2.7688-0.37534 0.46796-0.62556 0.98792-0.73503 1.5339-0.25023 1.1569 0.0782 2.3528 0.89142 3.3017 1.7203 2.0408 5.0983 2.6388 7.538 1.3519l4.3007-2.2748c1.1729-0.61095 1.9862-1.6119 2.2208-2.7428 0.20331-0.94893 0.0313-1.9238-0.51609-2.7688 0.37534-0.46797 0.62556-0.98793 0.73504-1.5339 0.26586-1.1699-0.0626-2.3658-0.89143-3.3147" fill="#ff3e00" stroke-linejoin="round" stroke-width=".41348" style="paint-order:normal"/>
    <path d="m272.5 130.19c-1.3919 0.29897-2.8463-0.15599-3.6595-1.1309-0.50045-0.57196-0.68812-1.2869-0.54737-1.9888 0.0313-0.11699 0.0626-0.22099 0.0938-0.33798l0.0782-0.20798 0.21895 0.12999c0.51609 0.31197 1.0791 0.54596 1.689 0.70194l0.15639 0.039-0.0156 0.12999c-0.0156 0.18199 0.0469 0.37697 0.17203 0.53296 0.25022 0.29898 0.68812 0.44197 1.1104 0.35097 0.0938-0.026 0.18767-0.052 0.26587-0.091l4.2851-2.2748c0.21895-0.11699 0.3597-0.28597 0.40662-0.49396 0.0469-0.20798-0.0156-0.42896-0.15639-0.59795-0.25023-0.29898-0.68812-0.42897-1.1104-0.33797-0.0938 0.026-0.18767 0.052-0.26586 0.091l-1.6421 0.87093c-0.26587 0.14299-0.56301 0.24698-0.87579 0.31197-1.3919 0.29898-2.8463-0.15599-3.6595-1.1309-0.48482-0.57195-0.68812-1.2869-0.53173-1.9888 0.14075-0.67595 0.6412-1.2869 1.345-1.6509l4.3007-2.2748c0.26587-0.14299 0.56301-0.24698 0.87579-0.32497 1.3919-0.29898 2.8463 0.15599 3.6595 1.1309 0.50045 0.57195 0.68812 1.2869 0.54737 1.9888-0.0313 0.11699-0.0625 0.22098-0.10947 0.33797l-0.0782 0.20799-0.21894-0.12999c-0.51609-0.31198-1.0791-0.54596-1.689-0.70195l-0.1564-0.039 0.0156-0.12999c0.0156-0.18198-0.0469-0.37697-0.17203-0.53295-0.25022-0.29898-0.68812-0.42897-1.1104-0.33798-0.0938 0.026-0.18767 0.052-0.26586 0.091l-4.2851 2.2748c-0.21895 0.11699-0.3597 0.28598-0.40662 0.49396-0.0469 0.20799 0.0156 0.42897 0.15639 0.59796 0.25023 0.29897 0.68812 0.42896 1.1104 0.33797 0.0938-0.026 0.18767-0.052 0.26586-0.091l1.6421-0.87093c0.26586-0.14299 0.563-0.24698 0.87578-0.32498 1.3919-0.29897 2.8463 0.15599 3.6596 1.1309 0.50045 0.57196 0.68812 1.2869 0.54736 1.9888-0.14075 0.67594-0.6412 1.2869-1.345 1.6509l-4.3007 2.2748c-0.26587 0.14299-0.56301 0.24698-0.87579 0.32498" fill="#fff" stroke-linejoin="round" stroke-width=".41348" style="paint-order:normal"/>
    <path d="m312.85 126.14c0 1.2887 1.1314 2.4917 2.9151 3.1698-0.35619 1.9945-0.0638 3.602 0.91268 4.2284 1.0038 0.6438 2.4991 0.19815 3.9184-1.1817 1.3835 1.3242 2.7817 1.8453 3.7573 1.2171 1.0028-0.64567 1.3078-2.3622 0.94174-4.419 1.8579-0.68319 2.8971-1.709 2.8971-3.0147 0-1.2588-1.1335-2.3479-2.8932-3.0216 0.39406-2.1417 0.0602-3.7103-0.95677-4.3625-0.98043-0.62882-2.3949-0.0807-3.7987 1.2781-1.4604-1.4423-2.861-1.8827-3.8769-1.2285-0.97947 0.63061-1.259 2.2674-0.90163 4.2988-1.7235 0.66836-2.9151 1.782-2.9151 3.0358z" fill="#fff"/>
    <path d="m324.92 123.79c-0.14135-0.0541-0.28781-0.10532-0.43861-0.15374 0.0248-0.11251 0.0475-0.22357 0.0678-0.33273 0.33202-1.7926 0.11493-3.2367-0.62636-3.7122-0.7108-0.4559-1.8733 0.0194-3.0473 1.1559-0.1129 0.10928-0.22611 0.22498-0.33928 0.34623-0.0754-0.0802-0.15068-0.15775-0.22577-0.23191-1.2304-1.2151-2.4637-1.7272-3.2043-1.2504-0.71013 0.45723-0.92042 1.8148-0.62156 3.5137 0.0289 0.16409 0.0626 0.33166 0.10075 0.50203-0.17455 0.0551-0.34306 0.11387-0.50429 0.17637-1.4425 0.55938-2.3638 1.4361-2.3638 2.3454 0 0.93919 0.98899 1.8812 2.4915 2.4524 0.11857 0.0451 0.24161 0.0877 0.3684 0.12816-0.0412 0.18426-0.077 0.36484-0.107 0.54096-0.28497 1.6694-0.0624 2.9949 0.64581 3.4492 0.73154 0.46921 1.9593-0.0131 3.1548-1.1754 0.0945-0.0919 0.18931-0.18931 0.28431-0.29144 0.12314 0.13188 0.24607 0.2567 0.36836 0.37377 1.158 1.1083 2.3017 1.5559 3.0093 1.1003 0.73081-0.47055 0.96832-1.8945 0.65997-3.6269-0.0236-0.13232-0.051-0.26749-0.0817-0.40506 0.0862-0.0283 0.17086-0.0576 0.25339-0.0881 1.562-0.57563 2.5783-1.5062 2.5783-2.4579 0-0.91265-0.95098-1.7952-2.4226-2.3587z" fill="#53c1de"/>
    <path d="m324.59 127.99c-0.0745 0.0274-0.15095 0.054-0.22885 0.0797-0.17244-0.60719-0.40517-1.2528-0.68997-1.9199 0.27178-0.65118 0.49551-1.2886 0.66312-1.8918 0.13938 0.0449 0.27467 0.0922 0.40503 0.14211 1.2609 0.48277 2.03 1.1966 2.03 1.7466 0 0.58584-0.83061 1.3464-2.1793 1.8434zm-0.55961 1.2334c0.13635 0.76607 0.15582 1.4587 0.0655 2.0001-0.0811 0.48652-0.24435 0.8109-0.44614 0.94081-0.4294 0.27644-1.3477-0.0829-2.338-1.0308-0.11353-0.10865-0.22789-0.22467-0.3426-0.34747 0.38392-0.46702 0.76763-1.01 1.1421-1.6129 0.65869-0.065 1.281-0.1713 1.8453-0.31639 0.0278 0.1247 0.0525 0.24701 0.0738 0.36659zm-5.6592 2.8932c-0.41953 0.16479-0.75366 0.16951-0.95564 0.04-0.42979-0.27572-0.60846-1.34-0.36474-2.7676 0.0279-0.1635 0.0611-0.33144 0.0994-0.50311 0.55815 0.13727 1.1759 0.23606 1.8362 0.29559 0.37702 0.59003 0.77181 1.1324 1.1696 1.6072-0.0869 0.0933-0.1735 0.18219-0.2596 0.26592-0.52864 0.51396-1.0584 0.87861-1.5253 1.062zm-1.9654-4.1301c-0.66438-0.25257-1.2131-0.58083-1.5892-0.93903-0.33794-0.3219-0.50856-0.64147-0.50856-0.90078 0-0.55184 0.73969-1.2557 1.9734-1.7341 0.14969-0.0581 0.30639-0.11276 0.469-0.16415 0.1705 0.61687 0.39416 1.2618 0.66407 1.914-0.2734 0.66186-0.50024 1.3171-0.67241 1.9412-0.11593-0.0371-0.22825-0.0761-0.33632-0.11713zm0.65884-4.988c-0.25607-1.4555-0.086-2.5535 0.34194-2.829 0.45583-0.29352 1.4638 0.12498 2.5262 1.1742 0.0679 0.0671 0.13608 0.13725 0.20445 0.20986-0.39588 0.4728-0.78706 1.0111-1.1607 1.5976-0.64082 0.0661-1.2542 0.17218-1.8182 0.31429-0.0355-0.15864-0.0669-0.31451-0.0937-0.46689zm5.8774 1.6142c-0.13482-0.25902-0.27323-0.51191-0.41433-0.7579 0.43473 0.0611 0.85125 0.14227 1.2424 0.24157-0.11743 0.4186-0.2638 0.85627-0.43609 1.305-0.12359-0.26099-0.25432-0.52413-0.39198-0.78862zm-2.3968-2.5965c0.26848 0.32352 0.53735 0.68471 0.8018 1.0766-0.26649-0.014-0.53628-0.0213-0.8083-0.0213-0.26945 0-0.53725 7e-3 -0.8021 0.0209 0.26473-0.38825 0.53592-0.74897 0.8086-1.0762zm-2.4121 2.601c-0.13468 0.25974-0.26298 0.52145-0.38463 0.78365-0.1695-0.44711-0.31451-0.88678-0.43296-1.3113 0.38875-0.0968 0.8033-0.17587 1.2353-0.23584-0.14309 0.24825-0.28264 0.50301-0.41768 0.76345zm0.43013 3.8687c-0.44631-0.0554-0.8671-0.13042-1.2558-0.22451 0.12034-0.43212 0.26855-0.88117 0.44165-1.3379 0.12196 0.26201 0.25077 0.52383 0.38627 0.78414h3e-5c0.13802 0.2652 0.28102 0.52497 0.4278 0.77829zm1.9981 1.8369c-0.27588-0.33106-0.55105-0.69728-0.8198-1.0912 0.26089 0.0114 0.52687 0.0172 0.7972 0.0172 0.27772 0 0.55226-7e-3 0.82249-0.0203-0.26533 0.40102-0.53323 0.7678-0.79989 1.0943zm2.7782-3.4226c0.18212 0.46168 0.33564 0.90839 0.45754 1.3331-0.39506 0.10024-0.8216 0.18098-1.271 0.24097 0.14145-0.2493 0.28107-0.50654 0.41827-0.77114 0.1388-0.2677 0.27059-0.5358 0.3952-0.80297zm-0.89939 0.47954c-0.21299 0.41075-0.43166 0.80286-0.65365 1.173-0.40432 0.0322-0.82203 0.0487-1.2478 0.0487-0.42402 0-0.83646-0.0147-1.2336-0.0433-0.23094-0.37498-0.45435-0.76825-0.66599-1.1748h5e-5c-0.21107-0.40549-0.40534-0.81441-0.58137-1.221 0.17598-0.40757 0.36974-0.81694 0.5796-1.2217l-5e-5 8e-5c0.21042-0.40584 0.43188-0.79719 0.66068-1.1698 0.40522-0.0341 0.82074-0.0519 1.2407-0.0519h3e-5c0.42183 0 0.83789 0.0179 1.243 0.0523 0.22531 0.36991 0.44526 0.76 0.6565 1.1659 0.21365 0.41045 0.4099 0.8171 0.58738 1.2159-0.17695 0.40568-0.37276 0.81643-0.58546 1.2267zm1.2007-7.2295c0.45627 0.29265 0.6337 1.4729 0.34703 3.0206-0.0183 0.0988-0.0389 0.19934-0.0612 0.30128-0.56528-0.14507-1.1791-0.25302-1.8218-0.32008-0.37439-0.593-0.76236-1.1321-1.1518-1.5988 0.1047-0.11203 0.20925-0.21885 0.31337-0.31966 1.0059-0.97367 1.9461-1.3581 2.3744-1.0834z" fill="#fff"/>
    <path d="m320.53 124.79c0.67195 0 1.2167 0.60586 1.2167 1.3533 0 0.74737-0.54475 1.3533-1.2167 1.3533s-1.2167-0.60589-1.2167-1.3533c0-0.74741 0.54475-1.3533 1.2167-1.3533" fill="#53c1de"/>
    <g stroke-linejoin="round">
      <g stroke-width=".48813">
        <path d="m229.76 181.39v-6.1807h0.61328l2.9011 4.9789v-4.9788h0.5799v6.1806h-0.61319l-2.9008-5.0227v5.0227zm8.8018-0.24211c-0.38222 0.1905-0.79467 0.2854-1.2366 0.2854-1.717 0-2.5759-1.0733-2.5759-3.22 0-2.0315 0.82887-3.0473 2.4862-3.0473 0.47552 0 0.91767 0.0867 1.3262 0.25983v0.69138c-0.40867-0.20176-0.82886-0.30264-1.2599-0.30264-1.2928 0-1.939 0.79977-1.939 2.3987 0 1.7143 0.63613 2.5719 1.9096 2.5719 0.20308 0 0.42847-0.0347 0.67617-0.10417v-2.1003h0.61328zm0.97813-2.1437v-3.7945h0.61274v3.7944c0 1.1871 0.4533 1.7814 1.3595 1.7814 0.90606 0 1.3594-0.59425 1.3594-1.7814v-3.7944h0.61319v3.7944c0 1.62-0.65746 2.4295-1.9725 2.4295s-1.9725-0.80939-1.9725-2.4293zm5.652-3.7949v5.5326h2.4803v0.6481h-3.0932v-6.1807zm3.3651 6.1808h-0.6364l2.357-6.996 2.357 6.996h-0.67941l-0.61364-1.9452h-1.5676l0.16889-0.64751h1.1935l-0.88518-2.8012zm4.7242-1.2e-4v-6.1807h2.0223c0.90193 0 1.3527 0.49444 1.3527 1.4825 0 0.80411-0.44071 1.3992-1.3227 1.7849l1.6277 2.9133h-0.80889l-1.5082-2.7789v-0.52258c0.90597-0.1878 1.3589-0.64165 1.3589-1.3617 0-0.57032-0.25193-0.85607-0.75553-0.85607h-1.353v5.5195h-0.61327zm5.9776-6.1807v4.4c0 1.1871-0.53608 1.7807-1.6082 1.7807v-0.64833c0.66313 0 0.99478-0.37783 0.99478-1.1323v-4.4zm1.094 5.9645v-0.73478c0.49739 0.23038 1.0343 0.34604 1.6112 0.34604 0.81554 0 1.2235-0.38898 1.2235-1.1676 0-0.66159-0.30088-0.9938-0.90192-0.9938h-0.61022c-0.99217 0-1.4886-0.56153-1.4886-1.6854 0-1.1812 0.63577-1.7724 1.9069-1.7724 0.55237 0 1.0662 0.0872 1.5415 0.25983v0.73479c-0.47544-0.23074-0.98911-0.34605-1.5415-0.34605-0.86206 0-1.293 0.37479-1.293 1.1239 0 0.66241 0.29153 0.99391 0.87475 0.99391h0.61022c1.0097 0 1.5152 0.56224 1.5152 1.6853 0 1.2106-0.6122 1.8158-1.8369 1.8158-0.57675 0-1.1137-0.0868-1.6111-0.25948z" fill="#ccc" style="paint-order:normal"/>
        <path d="m229.92 181.19v-6.1807h0.61319l2.9008 4.979v-4.979h0.58026v6.1807h-0.61328l-2.901-5.0228v5.0227h-0.57999zm8.8018-0.24211c-0.38222 0.1905-0.7944 0.28528-1.2366 0.28528-1.7172 0-2.5759-1.0731-2.5759-3.22 0-2.0313 0.82886-3.0473 2.4866-3.0473 0.47507 0 0.91731 0.0868 1.3259 0.25971v0.69139c-0.40867-0.20176-0.82886-0.30265-1.2597-0.30265-1.2928 0-1.9392 0.79989-1.9392 2.3988 0 1.7143 0.6364 2.5719 1.9095 2.5719 0.20316 0 0.42882-0.0346 0.67644-0.10416v-2.1004h0.61301zm0.97804-2.144v-3.795h0.61283v3.795c0 1.1871 0.4533 1.7809 1.3595 1.7809 0.90606 0 1.3593-0.59402 1.3593-1.7809v-3.795h0.61319v3.795c0 1.6198-0.65746 2.429-1.9724 2.429-1.315 0-1.9725-0.80904-1.9725-2.429zm5.6522-3.795v5.5326h2.4799v0.6481h-3.0929v-6.1807zm3.365 6.1809h-0.6364l2.3571-6.9964 2.357 6.9964h-0.67986l-0.61319-1.9451h-1.568l0.16934-0.6481h1.1932l-0.88492-2.8012zm4.7242 1.1e-4v-6.1807h2.0223c0.90192 0 1.3524 0.49408 1.3524 1.4825 0 0.80376-0.44044 1.3992-1.3224 1.7848l1.6277 2.9134h-0.80925l-1.508-2.7791v-0.52305c0.90606-0.18769 1.3593-0.64107 1.3593-1.3617 0-0.57021-0.25221-0.85549-0.75607-0.85549h-1.3526v5.5193z" style="paint-order:normal"/>
        <path d="m259.42 175.01v4.4002c0 1.1875-0.5359 1.7805-1.608 1.7805v-0.64821c0.66313 0 0.99469-0.37807 0.99469-1.1326v-4.4h0.61337zm1.0938 5.9645v-0.73467c0.49757 0.23039 1.0344 0.34605 1.6113 0.34605 0.81554 0 1.2234-0.38921 1.2234-1.1673 0-0.66205-0.30079-0.9939-0.90192-0.9939h-0.61022c-0.99208 0-1.4886-0.56189-1.4886-1.6858 0-1.1812 0.63551-1.7724 1.9069-1.7724 0.55228 0 1.0662 0.0873 1.5415 0.25995v0.73478c-0.47552-0.23085-0.98919-0.34604-1.5415-0.34604-0.86215 0-1.293 0.37467-1.293 1.1238 0 0.66253 0.29135 0.99391 0.87475 0.99391h0.61022c1.0097 0 1.5152 0.562 1.5152 1.6856 0 1.2104-0.61211 1.8155-1.8368 1.8155-0.57675 0-1.1137-0.0868-1.6112-0.25948z" fill="#a6120d" style="paint-order:normal"/>
      </g>
      <g transform="matrix(.089976 0 0 .1173 217.89 170.17)" stroke-width="4.7514" style="paint-order:normal">
        <path d="m61.948 0.651-61.536 21.656 9.725 80.622 51.877 28.513 52.144-28.9 9.72-80.618-61.929-21.274z" fill="#b3b3b3" style="paint-order:normal"/>
        <path d="m117.74 26.583-55.934-19.075v117.12l46.877-25.944 9.059-72.103z" fill="#a6120d" style="paint-order:normal"/>
        <path d="m7.318 26.927 8.332 72.103 46.154 25.6v-117.12l-54.486 19.42z" fill="#dd1b16" style="paint-order:normal"/>
        <path d="m77.202 69.857-15.397 7.2h-16.229l-7.628 19.081-14.19 0.263 38.047-84.64zm-1.489-3.624-13.806-27.334-11.325 26.863h11.222l13.91 0.47z" fill="#f2f2f2" style="paint-order:normal"/>
        <path d="m61.804 11.761 0.102 27.138 12.85 26.884h-12.923l-0.03 11.257 17.871 0.017 8.352 19.347 13.577 0.252-39.8-84.895z" fill="#b3b3b3" style="paint-order:normal"/>
      </g>
    </g>
    <path d="m317.58 180.41c-1.0728 7e-3 -2.0018 0.17592-2.7811 0.43183-0.2876-0.3798-0.57541-0.71168-0.62331-0.95951-0.0533-0.28786-0.11979-0.46381-0.0533-0.8076 0.0659-0.34388 0.36552-0.83163 0.36552-0.87162-0.01-0.036-0.0659-0.21188-0.6832-0.21588-0.61732-7e-3 -1.1508 0.08-1.2107 0.1879-0.0593 0.10795-0.17984 0.35582-0.25765 0.61169-0.10794 0.37581-1.2347 1.7072-1.8761 2.4068-0.20974-0.27188-0.38959-0.51176-0.42557-0.70371-0.0533-0.28781-0.11986-0.46376-0.0533-0.80757 0.0664-0.34386 0.36555-0.83157 0.36555-0.87155-9e-3 -0.036-0.0657-0.21189-0.68318-0.21589-0.61736-7e-3 -1.1507 0.08-1.2108 0.18791-0.0587 0.10794-0.12581 0.36381-0.25769 0.61169-0.12584 0.24788-1.6242 2.4708-2.0139 3.0505-0.19772 0.29582-0.37157 0.5317-0.49745 0.69164-0.12582 0.1599-9e-3 0.012-0.0177 0.028-0.10783 0.13597-0.16783 0.21188-0.16783 0.21188v7e-3c-0.0842 0.10004-0.17384 0.19596-0.21581 0.19596-0.0301 0-0.09-0.26795 0.0124-0.63572 0.22173-0.77165 0.76112-1.975 0.75518-2.019 0-0.02 0.10182-0.23194-0.3476-0.33984-0.43755-0.10795-0.59336 0.072-0.62942 0.072-0.0352 0-0.0664 0.064-0.0664 0.064s0.48553-1.3553-0.92896-1.3553c-0.88715 0-2.1098 0.64366-2.7152 1.2314-0.38348 0.13994-1.1985 0.43575-2.0617 0.75164-0.32962 0.11994-0.67129 0.24786-0.99494 0.36381l-0.0662-0.0481c-1.7141-1.2194-4.8847-2.083-4.7528-3.7222 0.0475-0.59571 0.35958-2.1669 6.0895-4.07 4.6931-1.5592 8.4509-1.1314 9.1043-0.17991 0.92915 1.3593-2.0078 3.8861-6.8867 4.2499-1.858 0.13992-2.8349-0.33985-3.0806-0.51975-0.25775-0.18791-0.29376-0.1959-0.38963-0.15992-0.15593 0.056-0.0589 0.22389 0 0.32384 0.14388 0.25188 0.7432 0.69965 1.7619 0.92354 0.89316 0.1959 3.0749 0.30384 5.7121-0.37582 2.9548-0.7636 5.2625-2.8826 4.5851-4.6537-0.68931-1.8031-5.1725-2.3948-9.41-1.3913-2.5233 0.5997-5.2565 1.5352-7.2222 2.7626-2.3377 1.4553-2.7092 2.7266-2.5533 3.2544 0.54531 1.883 4.4352 3.1105 5.9935 4.018-0.0775 0.028-0.14979 0.0563-0.21566 0.08-0.77924 0.25583-3.7461 1.2913-4.4893 2.3867-0.83906 1.2394 0.13189 2.1309 0.7791 2.2509 2.002 0.3718 4.0518-0.29578 5.1607-1.3953 1.1028-1.0994 0.97086-2.5267 0.46147-3.1783l-0.0173-0.0239 0.61125-0.23985c0.39567-0.15595 0.78535-0.29985 1.127-0.42382-0.19174 0.3478-0.32967 0.75961-0.40152 1.3593-0.0841 0.70374 0.34763 1.6153 0.91707 1.9751 0.2517 0.1559 0.55125 0.15992 0.73712 0.15992 0.65935 0 0.95894-0.36386 1.2887-0.79966 0.40753-0.53171 0.76709-1.1474 0.76709-1.1474s-0.44937 1.6672 0.77921 1.6672c0.44958 0 0.89904-0.38777 1.1028-0.58771v7e-3s0.0119-0.0121 0.035-0.0393a2.1655 1.4445 0 0 0 0.0718-0.0759v-9e-3c0.17995-0.20789 0.58139-0.68366 1.1808-1.4713 0.77307-1.0155 1.5163-2.2869 1.5163-2.2869s0.0717 0.31185 0.29374 0.82359c0.13177 0.3039 0.41948 0.63568 0.64127 0.9595-0.17983 0.16794-0.28772 0.26392-0.28772 0.26392l9e-3 7e-3c-0.14386 0.12794-0.30574 0.26395-0.4734 0.39978-0.61156 0.48779-1.3427 1.0435-1.4386 1.2034-0.11388 0.18792-0.0898 0.32782 0.13193 0.43983 0.16177 0.08 0.44945 0.0959 0.7551 0.08 0.55156-0.0243 0.93507-0.116 1.1268-0.17199 0.29965-0.0719 0.64137-0.17988 0.971-0.33977 0.59944-0.29585 0.96494-0.71563 0.92887-1.2754-0.0171-0.30787-0.16772-0.61171-0.35348-0.89958 0.0534-0.052 0.1079-0.10397 0.16189-0.1599 0.94697-0.92358 1.6781-1.939 1.6781-1.939s0.0716 0.31185 0.29377 0.82358c0.11376 0.25989 0.34153 0.54379 0.54537 0.82364-0.88707 0.48373-1.4444 1.0435-1.6362 1.4113-0.35367 0.67969-0.0777 0.98752 0.44347 1.0595 0.2337 0.032 0.5694-0.0395 0.82094-0.11192 0.31184-0.068 0.68929-0.18392 1.037-0.35584 0.59939-0.29584 1.1746-0.7077 1.1449-1.2634-0.0172-0.25591-0.12014-0.50775-0.25793-0.74764 0.75531-0.2079 1.7321-0.32783 2.9731-0.22789 2.6671 0.20791 3.1945 1.3194 3.0926 1.7831-0.10185 0.4638-0.65922 0.71963-0.84511 0.7996-0.18601 0.076-0.24573 0.10401-0.2277 0.15995 0.0244 0.084 0.10795 0.08 0.26971 0.064 0.22172-0.0241 1.4024-0.37984 1.4505-1.2354 0.0716-1.0996-1.4925-2.299-4.2675-2.287zm-20.57 4.6257c-0.88112 0.64368-2.1218 0.8876-2.6492 0.67968-0.56939-0.21992-0.34773-1.1674 0.73721-1.8511 0.65929-0.41581 1.5164-0.7996 2.0798-1.0355 0.12584-0.0529 0.31765-0.1279 0.54535-0.21989 0.0357-0.0159 0.0591-0.0239 0.0591-0.0239 0.0409-0.0159 0.0899-0.0361 0.13783-0.0567 0.40162 0.97552 0.0175 1.8311-0.91101 2.5068zm6.443-2.9226c-0.30565 0.49977-0.95293 1.7831-1.3425 1.7112-0.33575-0.0596-0.53951-1.0315-0.0663-1.991 0.23971-0.48378 0.74917-1.0595 1.0489-1.2834 0.48554-0.35982 1.0128-0.47976 1.1447-0.33183 0.15592 0.19194-0.59326 1.5832-0.7851 1.8951zm5.3163 1.6952c-0.13171 0.0439-0.25167 0.076-0.30552 0.0518-0.041-0.016 0.0535-0.0759 0.0535-0.0759s0.66541-0.47581 0.92912-0.69573c0.14979-0.12789 0.32962-0.2758 0.5214-0.44372v0.0485c3e-5 0.5757-0.82712 0.95946-1.1986 1.1154zm4.0997-0.62369c-0.096-0.048-0.084-0.19588 0.2397-0.65966 0.12595-0.1839 0.41358-0.49176 0.91111-0.78361 0.0593 0.11996 0.096 0.23585 0.0898 0.34384-9e-3 0.71964-0.77305 0.98743-1.2406 1.0994z" fill="#cf649a" stroke-width=".048952"/>
    <g transform="matrix(.059895 -3.8261e-5 3.613e-5 .059893 282.53 146.81)">
      <path d="m0 0h256v256h-256z" fill="#f7df1e"/>
      <path d="m67.312 213.93 19.591-11.856c3.7795 6.7011 7.2176 12.371 15.464 12.371 7.9051 0 12.889-3.0923 12.889-15.12v-81.798h24.057v82.138c0 24.917-14.606 36.259-35.915 36.259-19.245 0-30.416-9.9673-36.087-21.996"/>
      <path d="m152.38 211.35 19.588-11.342c5.1566 8.4212 11.858 14.607 23.715 14.607 9.9682 0 16.325-4.9839 16.325-11.858 0-8.2485-6.5296-11.17-17.528-15.98l-6.0128-2.5795c-17.357-7.3878-28.871-16.667-28.871-36.258 0-18.044 13.747-31.792 35.228-31.792 15.294 0 26.292 5.3276 34.196 19.247l-18.731 12.028c-4.1244-7.3886-8.591-10.309-15.464-10.309-7.0457 0-11.514 4.4678-11.514 10.309 0 7.2176 4.4682 10.14 14.778 14.608l6.014 2.5775c20.45 8.7646 31.963 17.699 31.963 37.804 0 21.654-17.012 33.51-39.867 33.51-22.339 0-36.775-10.654-43.819-24.574"/>
    </g>
    <g transform="matrix(.042289 0 0 .029965 245.73 146.8)">
      <path d="m108.4 0h23v22.8h21.2v-22.8h23v69h-23v-23h-21v23h-23.2m97.6-46h-20.3v-23h63.7v23h-20.4v46h-23m53.5-69h24.1l14.8 24.3 14.8-24.3h24.1v69h-23v-34.2l-16.1 24.8-16.1-24.8v34.2h-22.6m89.2-69h23v46.2h32.6v22.8h-55.6" fill="#fff"/>
      <path d="m107.6 471-33-370.4h362.8l-33 370.2-148.7 41.2" fill="#e44d26"/>
      <path d="m256 480.5v-349.5h148.3l-28.3 316" fill="#f16529"/>
      <path d="m142 176.3h114v45.4h-64.2l4.2 46.5h60v45.3h-101.6m2 22.8h45.6l3.2 36.3 50.8 13.6v47.4l-93.2-26" fill="#ebebeb"/>
      <path d="m369.6 176.3h-113.8v45.4h109.6m-4.1 46.5h-105.5v45.4h56l-5.3 59-50.7 13.6v47.2l93-25.8" fill="#fff"/>
    </g>
    <g transform="matrix(.042296 0 0 .029965 262.55 146.8)">
      <polygon points="255.78 512 107.64 470.88 74.633 100.62 437.37 100.62 404.32 470.82" fill="#264de4"/>
      <polygon points="256 480.52 376.03 447.25 404.27 130.89 256 130.89" fill="#2965f1"/>
      <g fill="#ebebeb">
        <polygon points="256 268.22 150.31 268.22 154.38 313.63 256 313.63"/>
        <polygon points="142.13 176.3 146.26 221.72 256 221.72 256 176.3 255.84 176.3"/>
        <polygon points="205.23 372.55 201.99 336.33 177.42 336.33 156.41 336.33 162.77 407.63 255.79 433.46 256 433.4 256 386.15 255.8 386.21"/>
      </g>
      <path d="m160 0h55v23h-32v23h32v23h-55z" fill="#f9f9f9"/>
      <g fill="#fff">
        <path d="m226 0h55v20h-32v4h32v46h-55v-21h32v-4h-32z"/>
        <path d="m292 0h55v20h-32v4h32v46h-55v-21h32v-4h-32z"/>
        <polygon points="315.7 268.22 255.84 268.22 255.84 313.63 311.76 313.63 306.49 372.52 255.84 386.19 255.84 433.44 348.94 407.63 349.62 399.96 360.29 280.41 361.4 268.22 369.6 176.3 255.84 176.3 255.84 221.72 319.83 221.72"/>
      </g>
    </g>
  </g>
</svg>
