<?xml version="1.0" encoding="UTF-8" standalone="no"?>
<svg
   xmlns:dc="http://purl.org/dc/elements/1.1/"
   xmlns:cc="http://creativecommons.org/ns#"
   xmlns:rdf="http://www.w3.org/1999/02/22-rdf-syntax-ns#"
   xmlns:svg="http://www.w3.org/2000/svg"
   xmlns="http://www.w3.org/2000/svg"
   xmlns:sodipodi="http://sodipodi.sourceforge.net/DTD/sodipodi-0.dtd"
   xmlns:inkscape="http://www.inkscape.org/namespaces/inkscape"
   width="690"
   height="612"
   viewBox="0 0 182.5625 161.925"
   version="1.1"
   id="svg2465"
   inkscape:version="1.0.1 (0767f8302a, 2020-10-17)"
   sodipodi:docname="frontend.svg">
  <defs
     id="defs2459" />
  <sodipodi:namedview
     id="base"
     pagecolor="#ffffff"
     bordercolor="#666666"
     borderopacity="1.0"
     inkscape:pageopacity="0.0"
     inkscape:pageshadow="2"
     inkscape:zoom="0.98994949"
     inkscape:cx="495.66567"
     inkscape:cy="316.66006"
     inkscape:document-units="mm"
     inkscape:current-layer="g1806"
     inkscape:document-rotation="0"
     showgrid="false"
     inkscape:window-width="1366"
     inkscape:window-height="704"
     inkscape:window-x="0"
     inkscape:window-y="0"
     inkscape:window-maximized="0"
     units="px" />
  <metadata
     id="metadata2462">
    <rdf:RDF>
      <cc:Work
         rdf:about="">
        <dc:format>image/svg+xml</dc:format>
        <dc:type
           rdf:resource="http://purl.org/dc/dcmitype/StillImage" />
        <dc:title></dc:title>
      </cc:Work>
    </rdf:RDF>
  </metadata>
  <g
     inkscape:label="Layer 1"
     inkscape:groupmode="layer"
     id="layer1">
    <g
       id="g1815"
       transform="matrix(0.60402819,0,0,0.60402819,-426.23737,-25.226738)"
       style="display:inline">
      <g
         id="g1806">
        <rect
           style="opacity:1;fill:#b3b3b3;fill-opacity:1;stroke:none;stroke-width:3.175;stroke-linecap:round;stroke-linejoin:round;stroke-miterlimit:4;stroke-dasharray:none;stroke-opacity:1"
           id="rect1778"
           width="239.11583"
           height="156.06973"
           x="737.44086"
           y="43.991623"
           ry="3.4665928" />
        <rect
           style="opacity:1;fill:#000000;fill-opacity:1;stroke:none;stroke-width:2.98828;stroke-linecap:round;stroke-linejoin:round;stroke-miterlimit:4;stroke-dasharray:none;stroke-opacity:1"
           id="rect1793"
           width="225.05389"
           height="146.89159"
           x="744.4718"
           y="48.580696"
           ry="3.2627294" />
      </g>
      <g
         id="g1802">
        <path
           id="rect1790"
           style="opacity:1;fill:#b3b3b3;fill-opacity:1;stroke:none;stroke-width:2.71901;stroke-linecap:round;stroke-linejoin:round;stroke-miterlimit:4;stroke-dasharray:none;stroke-opacity:1"
           d="m 739.84387,200.5293 h 233.87011 c 2.19147,0 3.60485,1.0096 3.95575,2.22798 l 30.19167,104.83908 c 0.3509,1.21839 -1.7643,2.22799 -3.9557,2.22799 H 709.65217 c -2.19148,0 -4.30663,-1.0096 -3.95575,-2.22799 l 30.19171,-104.83908 c 0.35089,-1.21838 1.76427,-2.22798 3.95574,-2.22798 z"
           sodipodi:nodetypes="sssssssss" />
        <path
           id="path1795"
           style="opacity:1;fill:#666666;fill-opacity:1;stroke:none;stroke-width:1.97569;stroke-linecap:round;stroke-linejoin:round;stroke-miterlimit:4;stroke-dasharray:none;stroke-opacity:1"
           d="m 748.92173,206.50288 h 215.71433 c 2.02135,0 3.43499,0.5326 3.64866,1.27533 l 17.26458,60.012 c 0.21366,0.7427 -1.6274,1.27534 -3.64865,1.27534 H 731.65718 c -2.02135,0 -3.86232,-0.5326 -3.64865,-1.27534 l 17.26455,-60.012 c 0.21367,-0.74273 1.6273,-1.27533 3.64865,-1.27533 z"
           sodipodi:nodetypes="sssssssss" />
        <rect
           style="opacity:1;fill:#4d4d4d;fill-opacity:1;stroke:none;stroke-width:2.13379;stroke-linecap:round;stroke-linejoin:round;stroke-miterlimit:4;stroke-dasharray:none;stroke-opacity:1"
           id="rect1797"
           width="54.066315"
           height="30.691362"
           x="829.74573"
           y="273.24194"
           ry="2.3163445" />
      </g>
    </g>
    <g
       style="display:inline;opacity:1;stroke-width:2.9;stroke-linecap:butt;stroke-linejoin:round;stroke-miterlimit:4;stroke-dasharray:none;paint-order:normal"
       inkscape:connector-avoid="true"
       transform="matrix(0.15639073,0,0,0.12998966,84.138913,10.699441)"
       id="g180">
      <path
         style="stroke-width:2.9;stroke-linecap:butt;stroke-linejoin:round;stroke-miterlimit:4;stroke-dasharray:none;paint-order:normal"
         d="M 91.8,15.6 C 80.9,-0.1 59.2,-4.7 43.6,5.2 L 16.1,22.8 C 8.6,27.5 3.4,35.2 1.9,43.9 0.6,51.2 1.7,58.7 5.2,65.2 2.8,68.8 1.2,72.8 0.5,77 c -1.6,8.9 0.5,18.1 5.7,25.4 11,15.7 32.6,20.3 48.2,10.4 L 81.9,95.3 c 7.5,-4.7 12.7,-12.4 14.2,-21.1 1.3,-7.3 0.2,-14.8 -3.3,-21.3 2.4,-3.6 4,-7.6 4.7,-11.8 1.7,-9 -0.4,-18.2 -5.7,-25.5"
         fill="#ff3e00"
         id="path166" />
      <path
         style="stroke-width:2.9;stroke-linecap:butt;stroke-linejoin:round;stroke-miterlimit:4;stroke-dasharray:none;paint-order:normal"
         d="M 40.9,103.9 C 32,106.2 22.7,102.7 17.5,95.2 14.3,90.8 13.1,85.3 14,79.9 14.2,79 14.4,78.2 14.6,77.3 l 0.5,-1.6 1.4,1 c 3.3,2.4 6.9,4.2 10.8,5.4 l 1,0.3 -0.1,1 c -0.1,1.4 0.3,2.9 1.1,4.1 1.6,2.3 4.4,3.4 7.1,2.7 0.6,-0.2 1.2,-0.4 1.7,-0.7 L 65.5,72 c 1.4,-0.9 2.3,-2.2 2.6,-3.8 0.3,-1.6 -0.1,-3.3 -1,-4.6 -1.6,-2.3 -4.4,-3.3 -7.1,-2.6 -0.6,0.2 -1.2,0.4 -1.7,0.7 l -10.5,6.7 c -1.7,1.1 -3.6,1.9 -5.6,2.4 C 33.3,73.1 24,69.6 18.8,62.1 15.7,57.7 14.4,52.2 15.4,46.8 16.3,41.6 19.5,36.9 24,34.1 L 51.5,16.6 c 1.7,-1.1 3.6,-1.9 5.6,-2.5 8.9,-2.3 18.2,1.2 23.4,8.7 3.2,4.4 4.4,9.9 3.5,15.3 -0.2,0.9 -0.4,1.7 -0.7,2.6 l -0.5,1.6 -1.4,-1 C 78.1,38.9 74.5,37.1 70.6,35.9 l -1,-0.3 0.1,-1 c 0.1,-1.4 -0.3,-2.9 -1.1,-4.1 -1.6,-2.3 -4.4,-3.3 -7.1,-2.6 -0.6,0.2 -1.2,0.4 -1.7,0.7 L 32.4,46.1 c -1.4,0.9 -2.3,2.2 -2.6,3.8 -0.3,1.6 0.1,3.3 1,4.6 1.6,2.3 4.4,3.3 7.1,2.6 0.6,-0.2 1.2,-0.4 1.7,-0.7 l 10.5,-6.7 c 1.7,-1.1 3.6,-1.9 5.6,-2.5 8.9,-2.3 18.2,1.2 23.4,8.7 3.2,4.4 4.4,9.9 3.5,15.3 -0.9,5.2 -4.1,9.9 -8.6,12.7 l -27.5,17.5 c -1.7,1.1 -3.6,1.9 -5.6,2.5"
         fill="#ffffff"
         id="path168" />
    </g>
    <g
       style="display:inline;opacity:1;stroke-linecap:butt"
       inkscape:connector-avoid="true"
       transform="matrix(0.06030085,0,0,0.06706915,130.83752,12.454789)"
       id="g1454">
      <path
         style="stroke-linecap:butt"
         d="m 0.75412411,114.75034 c 0,19.21434 18.76247889,37.15171 48.34307589,47.26218 -5.906969,29.73771 -1.058633,53.7061 15.13534,63.04558 16.645727,9.5991 41.44376,2.95452 64.98045,-17.61928 22.94287,19.74325 46.13074,27.51321 62.30962,18.14718 16.62945,-9.62696 21.68777,-35.221 15.61744,-65.88691 30.80976,-10.18643 48.04389,-25.48149 48.04389,-44.94875 0,-18.768874 -18.79729,-35.006478 -47.97892,-45.052348 6.53495,-31.93328 0.9977,-55.320056 -15.8666,-65.045237 -16.25896,-9.375677 -39.716,-1.2038186 -62.99629,19.056504 C 104.12294,2.2045276 80.897347,-4.3611367 64.049392,5.3923895 47.806238,14.794736 43.17111,39.198696 49.0972,69.486941 20.515429,79.452202 0.75412411,96.056526 0.75412411,114.75034 Z"
         fill="#ffffff"
         id="path1434" />
      <path
         style="stroke-linecap:butt"
         d="m 201.02455,79.674118 c -2.34402,-0.806812 -4.7729,-1.570187 -7.27378,-2.292135 0.41105,-1.677575 0.78831,-3.33343 1.12375,-4.961132 5.50611,-26.727365 1.90602,-48.259116 -10.38721,-55.348285 -11.78766,-6.797575 -31.06548,0.289985 -50.53516,17.233847 -1.87224,1.629311 -3.74971,3.354344 -5.62637,5.162231 -1.25044,-1.196141 -2.49886,-2.352063 -3.74407,-3.457709 C 104.17692,17.893455 83.724267,10.258501 71.443105,17.368182 59.666702,24.185464 56.17923,44.427362 61.135535,69.757084 c 0.478617,2.44658 1.038077,4.945043 1.670737,7.485335 -2.89463,0.821694 -5.689113,1.697685 -8.362935,2.629581 -23.922426,8.340412 -39.200377,21.4119 -39.200377,34.97044 0,14.00339 16.400892,28.049 41.317958,36.56557 1.966353,0.67208 4.006711,1.30755 6.10941,1.91085 -0.682532,2.74743 -1.276179,5.43975 -1.774504,8.06571 -4.725844,24.89012 -1.035262,44.6538 10.709769,51.42805 12.131545,6.99586 32.491687,-0.19507 52.317307,-17.52504 1.56697,-1.36989 3.13957,-2.82264 4.71499,-4.34536 2.04197,1.96635 4.08071,3.82733 6.1086,5.57287 19.20342,16.52517 38.16995,23.19807 49.90412,16.40492 12.11948,-7.01597 16.05822,-28.24688 10.94465,-54.07774 -0.39054,-1.97279 -0.84502,-3.98821 -1.35541,-6.03943 1.42982,-0.42271 2.83349,-0.8591 4.20218,-1.31278 25.90366,-8.58253 42.75743,-22.45721 42.75743,-36.64762 0,-13.60761 -15.77065,-26.767178 -40.17491,-35.168322 z"
         fill="#53c1de"
         id="path1436" />
      <path
         style="stroke-linecap:butt"
         d="m 195.40623,142.32755 c -1.23556,0.40904 -2.50329,0.8044 -3.79516,1.1877 -2.85964,-9.05311 -6.71914,-18.67976 -11.44217,-28.62575 4.50705,-9.7091 8.21734,-19.212667 10.99694,-28.207055 2.31144,0.668857 4.55491,1.374315 6.71673,2.118787 20.90955,7.198165 33.6641,17.840768 33.6641,26.041208 0,8.73497 -13.77453,20.07418 -36.14044,27.48511 z m -9.28035,18.38937 c 2.26116,11.42206 2.58413,21.74894 1.08634,29.82189 -1.34576,7.25407 -4.05216,12.09052 -7.39846,14.02751 -7.12095,4.12174 -22.34902,-1.23596 -38.77204,-15.36844 -1.88269,-1.62006 -3.77907,-3.34992 -5.68147,-5.18074 6.36682,-6.96328 12.73002,-15.05835 18.94038,-24.04871 10.92334,-0.9693 21.24338,-2.55397 30.60216,-4.7174 0.46092,1.85937 0.87036,3.68294 1.22309,5.46589 z m -93.849242,43.13711 c -6.957248,2.45703 -12.49835,2.52742 -15.847868,0.59606 -7.127378,-4.11089 -10.090382,-19.97927 -6.048679,-41.26527 0.462932,-2.43774 1.013945,-4.94183 1.649018,-7.50143 9.25622,2.0468 19.500644,3.51965 30.450121,4.40731 6.2522,8.79731 12.7992,16.88353 19.39688,23.96385 -1.44148,1.39161 -2.87734,2.71645 -4.30514,3.96488 -8.76675,7.66311 -17.55199,13.10004 -25.294332,15.8346 z M 59.68279,142.27406 c -11.017854,-3.76579 -20.116814,-8.66016 -26.353722,-14.00097 -5.604248,-4.79944 -8.433722,-9.5643 -8.433722,-13.43065 0,-8.22779 12.266684,-18.722383 32.725367,-25.855392 2.482376,-0.865533 5.080987,-1.681194 7.777735,-2.447384 2.827462,9.197499 6.536547,18.813686 11.012625,28.537666 -4.533995,9.86837 -8.295767,19.63779 -11.150982,28.94308 -1.922514,-0.55262 -3.7851,-1.1342 -5.577301,-1.74635 z M 70.608541,67.903346 c -4.246423,-21.701882 -1.4262,-38.073011 5.670611,-42.181077 7.55934,-4.376333 24.275158,1.86339 41.893108,17.506941 1.12615,0.999868 2.25674,2.046391 3.39054,3.129112 -6.56511,7.049351 -13.05218,15.074841 -19.24887,23.820267 -10.626917,0.984987 -20.799347,2.56724 -30.152095,4.686027 -0.588016,-2.365336 -1.108864,-4.689244 -1.553294,-6.96127 z m 97.467419,24.067218 c -2.23582,-3.86192 -4.53118,-7.63254 -6.87117,-11.300198 7.20943,0.911384 14.1168,2.1212 20.60347,3.601697 -1.94745,6.241332 -4.37472,12.76702 -7.23195,19.456807 -2.0496,-3.891283 -4.21746,-7.81474 -6.50035,-11.758306 z M 128.329,53.256848 c 4.45235,4.823579 8.91113,10.209031 13.29672,16.052186 -4.41937,-0.208742 -8.89344,-0.317336 -13.40451,-0.317336 -4.46844,0 -8.90952,0.106181 -13.30154,0.311303 4.39001,-5.788858 8.8874,-11.16707 13.40933,-16.046153 z M 88.327441,92.037329 c -2.233414,3.872779 -4.36105,7.774919 -6.378483,11.684301 -2.810972,-6.666459 -5.215723,-13.22191 -7.180066,-19.551726 6.446857,-1.44269 13.321653,-2.622341 20.485229,-3.51643 -2.372977,3.701442 -4.687233,7.499814 -6.92668,11.383051 z m 7.133008,57.682651 c -7.401275,-0.82572 -14.379437,-1.94463 -20.824685,-3.34751 1.995714,-6.44283 4.453556,-13.13825 7.324054,-19.94829 2.022661,3.90657 4.158743,7.81031 6.405832,11.69154 h 4.02e-4 c 2.288917,3.95402 4.660286,7.8272 7.094397,11.60426 z m 33.135611,27.38858 c -4.57502,-4.93619 -9.13838,-10.39645 -13.59515,-16.26977 4.32646,0.16972 8.73738,0.2566 13.2203,0.2566 4.60559,0 9.15848,-0.10377 13.63979,-0.30326 -4.40006,5.9791 -8.84276,11.44781 -13.26494,16.31643 z m 46.07236,-51.03148 c 3.02011,6.88365 5.56604,13.54407 7.58749,19.87711 -6.55143,1.49457 -13.62491,2.69835 -21.07767,3.59285 2.34563,-3.71713 4.66109,-7.55251 6.93634,-11.49768 2.30179,-3.99143 4.48734,-7.98889 6.55384,-11.97228 z m -14.91517,7.14991 c -3.53212,6.12429 -7.15835,11.97066 -10.83968,17.48924 -6.70507,0.47942 -13.63215,0.72637 -20.69236,0.72637 -7.03165,0 -13.87146,-0.21839 -20.45788,-0.64593 -3.82974,-5.59098 -7.5348,-11.45464 -11.044398,-17.517 h 8.04e-4 c -3.500343,-6.04586 -6.721961,-12.1428 -9.641125,-18.20556 2.91836,-6.07683 6.131532,-12.18061 9.611765,-18.215615 l -8.05e-4,0.0012 c 3.489479,-6.051091 7.161969,-11.886202 10.956319,-17.442187 6.71995,-0.507977 13.61083,-0.773027 20.57492,-0.773027 h 4e-4 c 6.99546,0 13.89519,0.26706 20.61313,0.779463 3.73643,5.515362 7.38398,11.331569 10.88714,17.383466 3.54297,6.11986 6.79757,12.18302 9.74087,18.12954 -2.93445,6.04868 -6.18181,12.17297 -9.7091,18.29003 v 0 z m 19.9125,-107.791892 c 7.56658,4.363463 10.50907,21.961301 5.75507,45.037499 -0.30326,1.472452 -0.64473,2.972254 -1.01555,4.492167 -9.37447,-2.16303 -19.55414,-3.772632 -30.21203,-4.7725 -6.20875,-8.841552 -12.64274,-16.87951 -19.10085,-23.838366 1.73629,-1.670335 3.47017,-3.263045 5.19682,-4.766064 16.68162,-14.517393 32.27289,-20.249138 39.37654,-16.152736 z"
         fill="#ffffff"
         id="path1438" />
      <path
         style="stroke-linecap:butt"
         d="m 128.22121,94.665301 c 11.14334,0 20.17714,9.033399 20.17714,20.177139 0,11.14334 -9.0338,20.17715 -20.17714,20.17715 -11.14334,0 -20.17714,-9.03381 -20.17714,-20.17715 0,-11.14374 9.0338,-20.177139 20.17714,-20.177139"
         fill="#53c1de"
         id="path1440" />
    </g>
    <g
       style="display:inline;opacity:1;stroke-width:4.75136;stroke-linecap:butt;stroke-linejoin:round;stroke-miterlimit:4;stroke-dasharray:none;paint-order:normal"
       inkscape:connector-avoid="true"
       transform="matrix(0.08997627,0,0,0.11730308,35.928148,64.183055)"
       id="g1507">
      <path
         style="stroke-width:4.75136;stroke-linecap:butt;stroke-linejoin:round;stroke-miterlimit:4;stroke-dasharray:none;paint-order:normal"
         d="M 131.905,95.64 V 42.95 h 6.816 l 32.243,42.445 V 42.951 h 6.445 V 95.64 h -6.815 L 138.354,52.822 V 95.64 Z m 97.824,-2.064 c -4.248,1.624 -8.832,2.433 -13.744,2.433 -19.083,0 -28.629,-9.15 -28.629,-27.45 0,-17.318 9.212,-25.978 27.632,-25.978 5.285,0 10.199,0.739 14.74,2.215 v 5.894 c -4.542,-1.72 -9.212,-2.58 -14.003,-2.58 -14.368,0 -21.55,6.818 -21.55,20.449 0,14.614 7.07,21.925 21.223,21.925 2.257,0 4.762,-0.296 7.515,-0.888 V 71.691 h 6.816 z M 240.6,75.301 V 42.953 h 6.81 V 75.3 c 0,10.12 5.038,15.186 15.11,15.186 10.07,0 15.108,-5.066 15.108,-15.186 V 42.953 h 6.815 V 75.3 c 0,13.81 -7.307,20.711 -21.922,20.711 -14.615,0 -21.922,-6.9 -21.922,-20.71 z M 303.417,42.95 v 47.165 h 27.566 V 95.64 H 296.605 V 42.95 Z m 37.4,52.691 h -7.073 l 26.196,-59.64 26.196,59.64 h -7.551 l -6.82,-16.583 h -17.422 l 1.877,-5.52 h 13.265 l -9.838,-23.88 z M 393.322,95.64 V 42.95 h 22.476 c 10.024,0 15.034,4.215 15.034,12.638 0,6.855 -4.898,11.928 -14.701,15.216 l 18.09,24.836 h -8.99 L 408.469,71.95 v -4.455 c 10.069,-1.601 15.103,-5.47 15.103,-11.608 0,-4.862 -2.8,-7.298 -8.397,-7.298 h -15.037 v 47.053 h -6.816 z m 66.435,-52.69 v 37.51 c 0,10.12 -5.958,15.18 -17.873,15.18 v -5.527 c 7.37,0 11.056,-3.221 11.056,-9.653 V 42.95 Z m 12.159,50.847 v -6.264 c 5.528,1.964 11.495,2.95 17.907,2.95 9.064,0 13.598,-3.316 13.598,-9.954 0,-5.64 -3.344,-8.472 -10.024,-8.472 h -6.782 c -11.027,0 -16.545,-4.787 -16.545,-14.368 0,-10.07 7.066,-15.11 21.193,-15.11 6.139,0 11.85,0.743 17.132,2.215 v 6.264 c -5.284,-1.967 -10.993,-2.95 -17.132,-2.95 -9.581,0 -14.37,3.195 -14.37,9.581 0,5.647 3.24,8.473 9.722,8.473 h 6.782 c 11.222,0 16.84,4.793 16.84,14.367 0,10.32 -6.804,15.48 -20.415,15.48 -6.41,0 -12.378,-0.74 -17.906,-2.212 z"
         fill="#cccccc"
         id="path1472" />
      <path
         style="stroke-width:4.75136;stroke-linecap:butt;stroke-linejoin:round;stroke-miterlimit:4;stroke-dasharray:none;paint-order:normal"
         d="m 133.63,93.919 v -52.69 h 6.815 l 32.24,42.446 V 41.229 h 6.449 v 52.69 h -6.816 L 140.076,51.1 v 42.818 h -6.446 z m 97.823,-2.064 c -4.248,1.624 -8.829,2.432 -13.743,2.432 -19.085,0 -28.629,-9.148 -28.629,-27.45 0,-17.317 9.212,-25.978 27.636,-25.978 5.28,0 10.195,0.74 14.736,2.214 v 5.894 c -4.542,-1.72 -9.212,-2.58 -14,-2.58 -14.368,0 -21.552,6.819 -21.552,20.45 0,14.614 7.073,21.925 21.222,21.925 2.258,0 4.766,-0.295 7.518,-0.888 V 69.968 h 6.813 z m 10.87,-18.277 V 41.226 h 6.811 v 32.352 c 0,10.12 5.038,15.182 15.11,15.182 10.07,0 15.107,-5.064 15.107,-15.182 V 41.226 h 6.815 v 32.352 c 0,13.809 -7.307,20.707 -21.921,20.707 -14.615,0 -21.922,-6.897 -21.922,-20.707 z m 62.819,-32.352 v 47.165 h 27.562 v 5.525 h -34.375 v -52.69 z m 37.399,52.692 h -7.073 l 26.197,-59.644 26.196,59.644 h -7.556 L 373.49,77.336 h -17.427 l 1.882,-5.525 h 13.261 l -9.835,-23.88 z m 52.505,10e-4 v -52.69 h 22.476 c 10.024,0 15.03,4.212 15.03,12.638 0,6.852 -4.895,11.928 -14.697,15.215 l 18.09,24.837 h -8.994 l -16.76,-23.692 v -4.459 c 10.07,-1.6 15.107,-5.465 15.107,-11.608 0,-4.861 -2.803,-7.293 -8.403,-7.293 h -15.033 v 47.052 z"
         id="path1474" />
      <path
         style="stroke-width:4.75136;stroke-linecap:butt;stroke-linejoin:round;stroke-miterlimit:4;stroke-dasharray:none;paint-order:normal"
         d="m 461.48,41.226 v 37.511 c 0,10.123 -5.956,15.179 -17.871,15.179 V 88.39 c 7.37,0 11.055,-3.223 11.055,-9.655 v -37.51 h 6.817 z m 12.157,50.847 V 85.81 c 5.53,1.964 11.496,2.95 17.908,2.95 9.064,0 13.597,-3.318 13.597,-9.951 0,-5.644 -3.343,-8.473 -10.024,-8.473 h -6.782 c -11.026,0 -16.544,-4.79 -16.544,-14.371 0,-10.07 7.063,-15.11 21.193,-15.11 6.138,0 11.85,0.744 17.132,2.216 v 6.264 c -5.285,-1.968 -10.994,-2.95 -17.132,-2.95 -9.582,0 -14.371,3.194 -14.371,9.58 0,5.648 3.238,8.473 9.722,8.473 h 6.782 c 11.222,0 16.84,4.791 16.84,14.37 0,10.319 -6.803,15.477 -20.414,15.477 -6.41,0 -12.378,-0.74 -17.907,-2.212 z"
         fill="#a6120d"
         id="path1476" />
      <g
         style="stroke-width:4.75136;stroke-linecap:butt;stroke-linejoin:round;stroke-miterlimit:4;stroke-dasharray:none;paint-order:normal"
         id="g1488">
        <path
           style="stroke-width:4.75136;stroke-linecap:butt;stroke-linejoin:round;stroke-miterlimit:4;stroke-dasharray:none;paint-order:normal"
           d="m 61.948,0.651 -61.536,21.656 9.725,80.622 51.877,28.513 52.144,-28.9 9.72,-80.618 L 61.949,0.65 Z"
           fill="#b3b3b3"
           id="path1478" />
        <path
           style="stroke-width:4.75136;stroke-linecap:butt;stroke-linejoin:round;stroke-miterlimit:4;stroke-dasharray:none;paint-order:normal"
           d="M 117.74,26.583 61.806,7.508 V 124.63 l 46.877,-25.944 9.059,-72.103 z"
           fill="#a6120d"
           id="path1480" />
        <path
           style="stroke-width:4.75136;stroke-linecap:butt;stroke-linejoin:round;stroke-miterlimit:4;stroke-dasharray:none;paint-order:normal"
           d="m 7.318,26.927 8.332,72.103 46.154,25.6 V 7.506 L 7.318,26.926 Z"
           fill="#dd1b16"
           id="path1482" />
        <path
           style="stroke-width:4.75136;stroke-linecap:butt;stroke-linejoin:round;stroke-miterlimit:4;stroke-dasharray:none;paint-order:normal"
           d="m 77.202,69.857 -15.397,7.2 H 45.576 l -7.628,19.081 -14.19,0.263 38.047,-84.64 z M 75.713,66.233 61.907,38.899 50.582,65.762 h 11.222 l 13.91,0.47 z"
           fill="#f2f2f2"
           id="path1484" />
        <path
           style="stroke-width:4.75136;stroke-linecap:butt;stroke-linejoin:round;stroke-miterlimit:4;stroke-dasharray:none;paint-order:normal"
           d="m 61.804,11.761 0.102,27.138 12.85,26.884 H 61.833 l -0.03,11.257 17.871,0.017 8.352,19.347 13.577,0.252 -39.8,-84.895 z"
           fill="#b3b3b3"
           id="path1486" />
      </g>
    </g>
    <path
       fill="#cf649a"
       d="m 135.61546,74.423583 c -1.07283,0.007 -2.00184,0.175917 -2.78108,0.431825 -0.2876,-0.379795 -0.57541,-0.711682 -0.62331,-0.959511 -0.0533,-0.287859 -0.11979,-0.463804 -0.0533,-0.807598 0.0659,-0.343877 0.36552,-0.831635 0.36552,-0.871619 -0.01,-0.03603 -0.0659,-0.211883 -0.6832,-0.215882 -0.61732,-0.007 -1.15082,0.07997 -1.21074,0.187902 -0.0593,0.107947 -0.17984,0.35582 -0.25765,0.611687 -0.10794,0.375813 -1.23468,1.707149 -1.87609,2.406825 -0.20974,-0.271888 -0.38959,-0.511763 -0.42557,-0.703712 -0.0533,-0.287811 -0.11986,-0.463758 -0.0533,-0.80757 0.0664,-0.343861 0.36555,-0.83157 0.36555,-0.871549 -0.009,-0.03603 -0.0657,-0.211892 -0.68318,-0.21589 -0.61736,-0.007 -1.15072,0.08 -1.21078,0.187904 -0.0587,0.107948 -0.12581,0.363813 -0.25769,0.61169 -0.12584,0.247886 -1.62423,2.470781 -2.01389,3.050515 -0.19772,0.295822 -0.37157,0.531699 -0.49745,0.691639 -0.12582,0.159897 -0.009,0.01201 -0.0177,0.02795 -0.10783,0.135966 -0.16783,0.211884 -0.16783,0.211884 v 0.007 c -0.0842,0.100031 -0.17384,0.195953 -0.21581,0.195953 -0.0301,0 -0.09,-0.267947 0.0124,-0.635717 0.22173,-0.771649 0.76112,-1.975037 0.75518,-2.019002 0,-0.01997 0.10182,-0.231937 -0.3476,-0.339843 -0.43755,-0.107942 -0.59336,0.07196 -0.62942,0.07196 -0.0352,0 -0.0664,0.06399 -0.0664,0.06399 0,0 0.48553,-1.355277 -0.92896,-1.355277 -0.88715,0 -2.10981,0.643661 -2.71517,1.231373 -0.38348,0.139943 -1.19848,0.435752 -2.06173,0.751635 -0.32962,0.119945 -0.67129,0.247864 -0.99494,0.363812 l -0.0662,-0.04811 c -1.71409,-1.219414 -4.88471,-2.082977 -4.75283,-3.722161 0.0475,-0.595712 0.35958,-2.166926 6.08952,-4.069977 4.69306,-1.55922 8.4509,-1.131431 9.10427,-0.179907 0.92915,1.359316 -2.00785,3.886056 -6.88666,4.249884 -1.85799,0.13992 -2.83489,-0.339844 -3.0806,-0.51975 -0.25775,-0.187904 -0.29376,-0.195902 -0.38963,-0.159916 -0.15593,0.05596 -0.0589,0.223884 0,0.323841 0.14388,0.251873 0.7432,0.699649 1.76194,0.923536 0.89316,0.195898 3.07488,0.303841 5.71207,-0.375816 2.95485,-0.763602 5.26246,-2.882564 4.5851,-4.653688 -0.68931,-1.803092 -5.17252,-2.394791 -9.40998,-1.391306 -2.52334,0.599704 -5.25646,1.535242 -7.22222,2.762636 -2.33767,1.455275 -2.70921,2.726635 -2.55334,3.254372 0.54531,1.883058 4.43524,3.110466 5.99352,4.017995 -0.0775,0.02795 -0.14979,0.05628 -0.21566,0.07998 -0.77924,0.255828 -3.74607,1.291343 -4.48932,2.386731 -0.83906,1.239401 0.13189,2.130939 0.7791,2.250899 2.00196,0.3718 4.0518,-0.295779 5.16066,-1.3953 1.10276,-1.099446 0.97086,-2.526674 0.46147,-3.178344 l -0.0173,-0.02391 0.61125,-0.239844 c 0.39567,-0.155957 0.78535,-0.299854 1.12696,-0.423825 -0.19174,0.347799 -0.32967,0.759615 -0.40152,1.359279 -0.0841,0.703745 0.34763,1.615285 0.91707,1.975089 0.2517,0.155906 0.55125,0.159925 0.73712,0.159925 0.65935,0 0.95894,-0.363857 1.28867,-0.799666 0.40753,-0.531705 0.76709,-1.14742 0.76709,-1.14742 0,0 -0.44937,1.667231 0.77921,1.667231 0.44958,0 0.89904,-0.38777 1.10279,-0.587708 v 0.007 c 0,0 0.0119,-0.0121 0.035,-0.0393 a 2.1654936,1.4444805 0 0 0 0.0718,-0.07591 v -0.0088 c 0.17995,-0.207888 0.58139,-0.683654 1.18077,-1.471282 0.77307,-1.0155 1.51633,-2.286868 1.51633,-2.286868 0,0 0.0717,0.311849 0.29374,0.823587 0.13177,0.303901 0.41948,0.635687 0.64127,0.959505 -0.17983,0.167942 -0.28772,0.263921 -0.28772,0.263921 l 0.009,0.007 c -0.14386,0.127936 -0.30574,0.263945 -0.4734,0.399778 -0.61156,0.487792 -1.3427,1.043525 -1.43859,1.203452 -0.11388,0.187918 -0.0898,0.327816 0.13193,0.439832 0.16177,0.07997 0.44945,0.09586 0.7551,0.07997 0.55156,-0.0243 0.93507,-0.116001 1.12682,-0.171993 0.29965,-0.07195 0.64137,-0.179879 0.971,-0.339766 0.59944,-0.295856 0.96494,-0.71563 0.92887,-1.275368 -0.0171,-0.307865 -0.16772,-0.611709 -0.35348,-0.899579 0.0534,-0.05203 0.1079,-0.103969 0.16189,-0.159898 0.94697,-0.923583 1.67806,-1.939037 1.67806,-1.939037 0,0 0.0716,0.311845 0.29377,0.823582 0.11376,0.259883 0.34153,0.543782 0.54537,0.823639 -0.88707,0.483727 -1.44442,1.04347 -1.63618,1.41128 -0.35367,0.679682 -0.0777,0.987519 0.44347,1.059469 0.2337,0.03199 0.5694,-0.03953 0.82094,-0.111921 0.31184,-0.06798 0.68929,-0.183926 1.03705,-0.355844 0.59939,-0.295842 1.17463,-0.707698 1.14487,-1.263347 -0.0172,-0.25591 -0.12014,-0.507753 -0.25793,-0.747639 0.75531,-0.2079 1.73214,-0.327835 2.97308,-0.227892 2.66713,0.20791 3.19448,1.319367 3.09261,1.783132 -0.10185,0.463803 -0.65922,0.719629 -0.84511,0.799598 -0.18601,0.076 -0.24573,0.104014 -0.2277,0.15995 0.0244,0.08401 0.10795,0.07996 0.26971,0.06403 0.22172,-0.02413 1.40238,-0.379838 1.45047,-1.23539 0.0716,-1.09959 -1.49248,-2.29899 -4.26749,-2.287042 z m -20.57005,4.625706 c -0.88112,0.643676 -2.12176,0.887603 -2.64924,0.67968 -0.56939,-0.219916 -0.34773,-1.167451 0.73721,-1.851082 0.65929,-0.415813 1.51637,-0.799601 2.07982,-1.035504 0.12584,-0.0529 0.31765,-0.127902 0.54535,-0.219895 0.0357,-0.01585 0.0591,-0.02391 0.0591,-0.02391 0.0409,-0.01592 0.0899,-0.0361 0.13783,-0.05666 0.40162,0.975522 0.0175,1.831062 -0.91101,2.50676 z m 6.44305,-2.922563 c -0.30565,0.499771 -0.95293,1.783119 -1.34251,1.711178 -0.33575,-0.05955 -0.53951,-1.031502 -0.0663,-1.991043 0.23971,-0.483781 0.74917,-1.059463 1.04888,-1.283388 0.48554,-0.359827 1.01283,-0.479767 1.14472,-0.331839 0.15592,0.191949 -0.59326,1.583256 -0.7851,1.895092 z m 5.31627,1.695151 c -0.13171,0.04387 -0.25167,0.076 -0.30552,0.05176 -0.041,-0.01601 0.0535,-0.07593 0.0535,-0.07593 0,0 0.66541,-0.475807 0.92912,-0.695725 0.14979,-0.127895 0.32962,-0.275803 0.5214,-0.443722 v 0.04854 c 3e-5,0.575702 -0.82712,0.959461 -1.19865,1.115357 z m 4.09969,-0.623688 c -0.096,-0.04805 -0.084,-0.195881 0.2397,-0.659662 0.12595,-0.183897 0.41358,-0.49176 0.91111,-0.783607 0.0593,0.119956 0.096,0.235851 0.0898,0.343841 -0.009,0.719634 -0.77305,0.987428 -1.24065,1.099428 z"
       id="path2276"
       style="display:inline;opacity:1;stroke-width:0.0489521" />
    <g
       id="g2457"
       transform="matrix(0.60402819,0,0,0.60402819,-443.724,-14.875955)"
       style="display:inline;opacity:1">
      <g
         inkscape:connector-avoid="true"
         transform="matrix(0.09915894,-6.3342558e-5,5.9814562e-5,0.09915541,901.10157,92.206447)"
         id="g1515"
         style="display:inline">
        <path
           d="M 0,0 H 256 V 256 H 0 Z"
           fill="#f7df1e"
           id="path1509" />
        <path
           d="m 67.311746,213.93229 19.590908,-11.85605 c 3.779454,6.70111 7.217575,12.3709 15.464436,12.3709 7.90511,0 12.88899,-3.09232 12.88899,-15.12026 v -81.79809 h 24.05749 V 199.667 c 0,24.91733 -14.60581,36.25894 -35.91517,36.25894 -19.245105,0 -30.416457,-9.96734 -36.08706,-21.99568"
           fill="#000000"
           id="path1511" />
        <path
           d="m 152.38095,211.35441 19.58847,-11.34161 c 5.15657,8.42118 11.85849,14.60703 23.71495,14.60703 9.96815,0 16.32467,-4.98387 16.32467,-11.85767 0,-8.24848 -6.52962,-11.17014 -17.52787,-15.98009 l -6.01275,-2.57951 c -17.35721,-7.38783 -28.87111,-16.66722 -28.87111,-36.25772 0,-18.04353 13.7472,-31.79154 35.22844,-31.79154 15.29417,0 26.29201,5.32764 34.19591,19.24713 l -18.73107,12.02834 c -4.12444,-7.38864 -8.59103,-10.30948 -15.46443,-10.30948 -7.04569,0 -11.51391,4.46781 -11.51391,10.30948 0,7.21758 4.46822,10.13964 14.77771,14.60785 l 6.01396,2.57747 c 20.44953,8.76455 31.96343,17.69936 31.96343,37.8043 0,21.65353 -17.01221,33.50958 -39.86692,33.50958 -22.33945,0 -36.7746,-10.65366 -43.81907,-24.57356"
           fill="#000000"
           id="path1513" />
      </g>
      <g
         id="g2400"
         transform="matrix(0.07001103,0,0,0.04960938,840.17309,92.19023)">
        <path
           d="m 108.4,0 h 23 v 22.8 h 21.2 V 0 h 23 v 69 h -23 V 46 h -21 V 69 H 108.4 M 206,23 H 185.7 V 0 h 63.7 V 23 H 229 V 69 H 206 M 259.5,0 h 24.1 L 298.4,24.3 313.2,0 h 24.1 v 69 h -23 V 34.8 L 298.2,59.6 282.1,34.8 V 69 H 259.5 M 348.7,0 h 23 v 46.2 h 32.6 V 69 h -55.6"
           id="path2377"
           style="fill:#ffffff" />
        <path
           fill="#e44d26"
           d="M 107.6,471 74.6,100.6 H 437.4 L 404.4,470.8 255.7,512"
           id="path2379" />
        <path
           fill="#f16529"
           d="M 256,480.5 V 131 H 404.3 L 376,447"
           id="path2381" />
        <path
           fill="#ebebeb"
           d="m 142,176.3 h 114 v 45.4 h -64.2 l 4.2,46.5 h 60 v 45.3 H 154.4 m 2,22.8 H 202 l 3.2,36.3 50.8,13.6 v 47.4 l -93.2,-26"
           id="path2383" />
        <path
           fill="#ffffff"
           d="M 369.6,176.3 H 255.8 v 45.4 h 109.6 m -4.1,46.5 H 255.8 v 45.4 h 56 l -5.3,59 -50.7,13.6 v 47.2 l 93,-25.8"
           id="path2385" />
      </g>
      <g
         id="g3013"
         transform="matrix(0.07002376,0,0,0.04960938,868.02272,92.19023)">
        <polygon
           id="polygon2989"
           points="74.633,100.62 437.367,100.62 404.321,470.819 255.778,512 107.644,470.877 "
           style="fill:#264de4" />
        <polygon
           id="polygon2991"
           points="404.27,130.894 256,130.894 256,480.523 376.03,447.246 "
           style="fill:#2965f1" />
        <polygon
           id="polygon2993"
           points="154.38,313.627 256,313.627 256,268.217 150.31,268.217 "
           style="fill:#ebebeb" />
        <polygon
           id="polygon2995"
           points="256,221.716 256,176.305 255.843,176.305 142.132,176.305 146.26,221.716 "
           style="fill:#ebebeb" />
        <polygon
           id="polygon2997"
           points="255.801,386.206 205.227,372.55 201.994,336.333 177.419,336.333 156.409,336.333 162.771,407.634 255.791,433.457 256,433.399 256,386.153 "
           style="fill:#ebebeb" />
        <path
           id="path2999"
           d="m 160,0 h 55 v 23 h -32 v 23 h 32 v 23 h -55 z"
           inkscape:connector-curvature="0"
           style="fill:#f9f9f9" />
        <path
           id="path3001"
           d="m 226,0 h 55 v 20 h -32 v 4 h 32 V 70 H 226 V 49 h 32 v -4 h -32 z"
           inkscape:connector-curvature="0"
           style="fill:#ffffff" />
        <path
           id="path3003"
           d="m 292,0 h 55 v 20 h -32 v 4 h 32 V 70 H 292 V 49 h 32 v -4 h -32 z"
           inkscape:connector-curvature="0"
           style="fill:#ffffff" />
        <polygon
           id="polygon3005"
           points="255.843,313.627 311.761,313.627 306.49,372.521 255.843,386.191 255.843,433.435 348.937,407.634 349.62,399.962 360.291,280.411 361.399,268.217 369.597,176.305 255.843,176.305 255.843,221.716 319.831,221.716 315.699,268.217 255.843,268.217 "
           style="fill:#ffffff" />
      </g>
    </g>
  </g>
</svg>
