<svg class="front-end-graphic svelte-1kk2xdg" width="690" height="612" version="1.1" viewBox="0 0 182.56 161.92" xmlns="http://www.w3.org/2000/svg"><g transform="matrix(.60403 0 0 .60403 -426.24 -25.227)"><rect x="737.44" y="43.992" width="239.12" height="156.07" ry="3.4666" fill="#b3b3b3"></rect><rect x="744.47" y="48.581" width="225.05" height="146.89" ry="3.2627"></rect><path d="m739.84 200.53h233.87c2.1915 0 3.6048 1.0096 3.9558 2.228l30.192 104.84c0.3509 1.2184-1.7643 2.228-3.9557 2.228h-294.25c-2.1915 0-4.3066-1.0096-3.9558-2.228l30.192-104.84c0.35089-1.2184 1.7643-2.228 3.9557-2.228z" fill="#b3b3b3"></path><path d="m748.92 206.5h215.71c2.0214 0 3.435 0.5326 3.6487 1.2753l17.265 60.012c0.21366 0.7427-1.6274 1.2753-3.6486 1.2753h-250.24c-2.0214 0-3.8623-0.5326-3.6486-1.2753l17.265-60.012c0.21367-0.74273 1.6273-1.2753 3.6486-1.2753z" fill="#666"></path><rect x="829.75" y="273.24" width="54.066" height="30.691" ry="2.3163" fill="#4d4d4d"></rect></g><g><g transform="matrix(.15639 0 0 .12999 84.139 10.699)" stroke-linejoin="round" stroke-width="2.9" style="paint-order: normal;"><path d="m91.8 15.6c-10.9-15.7-32.6-20.3-48.2-10.4l-27.5 17.6c-7.5 4.7-12.7 12.4-14.2 21.1-1.3 7.3-0.2 14.8 3.3 21.3-2.4 3.6-4 7.6-4.7 11.8-1.6 8.9 0.5 18.1 5.7 25.4 11 15.7 32.6 20.3 48.2 10.4l27.5-17.5c7.5-4.7 12.7-12.4 14.2-21.1 1.3-7.3 0.2-14.8-3.3-21.3 2.4-3.6 4-7.6 4.7-11.8 1.7-9-0.4-18.2-5.7-25.5" fill="#ff3e00" style="paint-order: normal;"></path><path d="m40.9 103.9c-8.9 2.3-18.2-1.2-23.4-8.7-3.2-4.4-4.4-9.9-3.5-15.3 0.2-0.9 0.4-1.7 0.6-2.6l0.5-1.6 1.4 1c3.3 2.4 6.9 4.2 10.8 5.4l1 0.3-0.1 1c-0.1 1.4 0.3 2.9 1.1 4.1 1.6 2.3 4.4 3.4 7.1 2.7 0.6-0.2 1.2-0.4 1.7-0.7l27.4-17.5c1.4-0.9 2.3-2.2 2.6-3.8s-0.1-3.3-1-4.6c-1.6-2.3-4.4-3.3-7.1-2.6-0.6 0.2-1.2 0.4-1.7 0.7l-10.5 6.7c-1.7 1.1-3.6 1.9-5.6 2.4-8.9 2.3-18.2-1.2-23.4-8.7-3.1-4.4-4.4-9.9-3.4-15.3 0.9-5.2 4.1-9.9 8.6-12.7l27.5-17.5c1.7-1.1 3.6-1.9 5.6-2.5 8.9-2.3 18.2 1.2 23.4 8.7 3.2 4.4 4.4 9.9 3.5 15.3-0.2 0.9-0.4 1.7-0.7 2.6l-0.5 1.6-1.4-1c-3.3-2.4-6.9-4.2-10.8-5.4l-1-0.3 0.1-1c0.1-1.4-0.3-2.9-1.1-4.1-1.6-2.3-4.4-3.3-7.1-2.6-0.6 0.2-1.2 0.4-1.7 0.7l-27.4 17.5c-1.4 0.9-2.3 2.2-2.6 3.8s0.1 3.3 1 4.6c1.6 2.3 4.4 3.3 7.1 2.6 0.6-0.2 1.2-0.4 1.7-0.7l10.5-6.7c1.7-1.1 3.6-1.9 5.6-2.5 8.9-2.3 18.2 1.2 23.4 8.7 3.2 4.4 4.4 9.9 3.5 15.3-0.9 5.2-4.1 9.9-8.6 12.7l-27.5 17.5c-1.7 1.1-3.6 1.9-5.6 2.5" fill="#fff" style="paint-order: normal;"></path></g><g transform="matrix(.060301 0 0 .067069 130.84 12.455)"><path d="m0.75412 114.75c0 19.214 18.762 37.152 48.343 47.262-5.907 29.738-1.0586 53.706 15.135 63.046 16.646 9.5991 41.444 2.9545 64.98-17.619 22.943 19.743 46.131 27.513 62.31 18.147 16.629-9.627 21.688-35.221 15.617-65.887 30.81-10.186 48.044-25.481 48.044-44.949 0-18.769-18.797-35.006-47.979-45.052 6.535-31.933 0.9977-55.32-15.867-65.045-16.259-9.3757-39.716-1.2038-62.996 19.057-24.219-21.505-47.445-28.07-64.293-18.317-16.243 9.4023-20.878 33.806-14.952 64.095-28.582 9.9653-48.343 26.57-48.343 45.263z" fill="#fff"></path><path d="m201.02 79.674c-2.344-0.80681-4.7729-1.5702-7.2738-2.2921 0.41105-1.6776 0.78831-3.3334 1.1238-4.9611 5.5061-26.727 1.906-48.259-10.387-55.348-11.788-6.7976-31.065 0.28998-50.535 17.234-1.8722 1.6293-3.7497 3.3543-5.6264 5.1622-1.2504-1.1961-2.4989-2.3521-3.7441-3.4577-20.405-18.117-40.857-25.752-53.139-18.643-11.776 6.8173-15.264 27.059-10.308 52.389 0.47862 2.4466 1.0381 4.945 1.6707 7.4853-2.8946 0.82169-5.6891 1.6977-8.3629 2.6296-23.922 8.3404-39.2 21.412-39.2 34.97 0 14.003 16.401 28.049 41.318 36.566 1.9664 0.67208 4.0067 1.3076 6.1094 1.9108-0.68253 2.7474-1.2762 5.4398-1.7745 8.0657-4.7258 24.89-1.0353 44.654 10.71 51.428 12.132 6.9959 32.492-0.19507 52.317-17.525 1.567-1.3699 3.1396-2.8226 4.715-4.3454 2.042 1.9664 4.0807 3.8273 6.1086 5.5729 19.203 16.525 38.17 23.198 49.904 16.405 12.119-7.016 16.058-28.247 10.945-54.078-0.39054-1.9728-0.84502-3.9882-1.3554-6.0394 1.4298-0.42271 2.8335-0.8591 4.2022-1.3128 25.904-8.5825 42.757-22.457 42.757-36.648 0-13.608-15.771-26.767-40.175-35.168z" fill="#53c1de"></path><path d="m195.41 142.33c-1.2356 0.40904-2.5033 0.8044-3.7952 1.1877-2.8596-9.0531-6.7191-18.68-11.442-28.626 4.507-9.7091 8.2173-19.213 10.997-28.207 2.3114 0.66886 4.5549 1.3743 6.7167 2.1188 20.91 7.1982 33.664 17.841 33.664 26.041 0 8.735-13.775 20.074-36.14 27.485zm-9.2804 18.389c2.2612 11.422 2.5841 21.749 1.0863 29.822-1.3458 7.2541-4.0522 12.091-7.3985 14.028-7.121 4.1217-22.349-1.236-38.772-15.368-1.8827-1.6201-3.7791-3.3499-5.6815-5.1807 6.3668-6.9633 12.73-15.058 18.94-24.049 10.923-0.9693 21.243-2.554 30.602-4.7174 0.46092 1.8594 0.87036 3.6829 1.2231 5.4659zm-93.849 43.137c-6.9572 2.457-12.498 2.5274-15.848 0.59606-7.1274-4.1109-10.09-19.979-6.0487-41.265 0.46293-2.4377 1.0139-4.9418 1.649-7.5014 9.2562 2.0468 19.501 3.5196 30.45 4.4073 6.2522 8.7973 12.799 16.884 19.397 23.964-1.4415 1.3916-2.8773 2.7164-4.3051 3.9649-8.7668 7.6631-17.552 13.1-25.294 15.835zm-32.594-61.58c-11.018-3.7658-20.117-8.6602-26.354-14.001-5.6042-4.7994-8.4337-9.5643-8.4337-13.431 0-8.2278 12.267-18.722 32.725-25.855 2.4824-0.86553 5.081-1.6812 7.7777-2.4474 2.8275 9.1975 6.5365 18.814 11.013 28.538-4.534 9.8684-8.2958 19.638-11.151 28.943-1.9225-0.55262-3.7851-1.1342-5.5773-1.7464zm10.926-74.371c-4.2464-21.702-1.4262-38.073 5.6706-42.181 7.5593-4.3763 24.275 1.8634 41.893 17.507 1.1262 0.99987 2.2567 2.0464 3.3905 3.1291-6.5651 7.0494-13.052 15.075-19.249 23.82-10.627 0.98499-20.799 2.5672-30.152 4.686-0.58802-2.3653-1.1089-4.6892-1.5533-6.9613zm97.467 24.067c-2.2358-3.8619-4.5312-7.6325-6.8712-11.3 7.2094 0.91138 14.117 2.1212 20.603 3.6017-1.9474 6.2413-4.3747 12.767-7.232 19.457-2.0496-3.8913-4.2175-7.8147-6.5004-11.758zm-39.747-38.714c4.4524 4.8236 8.9111 10.209 13.297 16.052-4.4194-0.20874-8.8934-0.31734-13.405-0.31734-4.4684 0-8.9095 0.10618-13.302 0.3113 4.39-5.7889 8.8874-11.167 13.409-16.046zm-40.002 38.78c-2.2334 3.8728-4.361 7.7749-6.3785 11.684-2.811-6.6665-5.2157-13.222-7.1801-19.552 6.4469-1.4427 13.322-2.6223 20.485-3.5164-2.373 3.7014-4.6872 7.4998-6.9267 11.383zm7.133 57.683c-7.4013-0.82572-14.379-1.9446-20.825-3.3475 1.9957-6.4428 4.4536-13.138 7.3241-19.948 2.0227 3.9066 4.1587 7.8103 6.4058 11.692h4.02e-4c2.2889 3.954 4.6603 7.8272 7.0944 11.604zm33.136 27.389c-4.575-4.9362-9.1384-10.396-13.595-16.27 4.3265 0.16972 8.7374 0.2566 13.22 0.2566 4.6056 0 9.1585-0.10377 13.64-0.30326-4.4001 5.9791-8.8428 11.448-13.265 16.316zm46.072-51.031c3.0201 6.8836 5.566 13.544 7.5875 19.877-6.5514 1.4946-13.625 2.6984-21.078 3.5928 2.3456-3.7171 4.6611-7.5525 6.9363-11.498 2.3018-3.9914 4.4873-7.9889 6.5538-11.972zm-14.915 7.1499c-3.5321 6.1243-7.1584 11.971-10.84 17.489-6.7051 0.47942-13.632 0.72637-20.692 0.72637-7.0316 0-13.871-0.21839-20.458-0.64593-3.8297-5.591-7.5348-11.455-11.044-17.517h8.04e-4c-3.5003-6.0459-6.722-12.143-9.6411-18.206 2.9184-6.0768 6.1315-12.181 9.6118-18.216l-8.05e-4 0.0012c3.4895-6.0511 7.162-11.886 10.956-17.442 6.72-0.50798 13.611-0.77303 20.575-0.77303h4e-4c6.9955 0 13.895 0.26706 20.613 0.77946 3.7364 5.5154 7.384 11.332 10.887 17.383 3.543 6.1199 6.7976 12.183 9.7409 18.13-2.9344 6.0487-6.1818 12.173-9.7091 18.29zm19.912-107.79c7.5666 4.3635 10.509 21.961 5.7551 45.037-0.30326 1.4725-0.64473 2.9723-1.0156 4.4922-9.3745-2.163-19.554-3.7726-30.212-4.7725-6.2088-8.8416-12.643-16.88-19.101-23.838 1.7363-1.6703 3.4702-3.263 5.1968-4.7661 16.682-14.517 32.273-20.249 39.377-16.153z" fill="#fff"></path><path d="m128.22 94.665c11.143 0 20.177 9.0334 20.177 20.177 0 11.143-9.0338 20.177-20.177 20.177s-20.177-9.0338-20.177-20.177c0-11.144 9.0338-20.177 20.177-20.177" fill="#53c1de"></path></g><g transform="matrix(.089976 0 0 .1173 35.928 64.183)" stroke-linejoin="round" stroke-width="4.7514" style="paint-order: normal;"><path d="m131.9 95.64v-52.69h6.816l32.243 42.445v-42.444h6.445v52.689h-6.815l-32.24-42.818v42.818zm97.824-2.064c-4.248 1.624-8.832 2.433-13.744 2.433-19.083 0-28.629-9.15-28.629-27.45 0-17.318 9.212-25.978 27.632-25.978 5.285 0 10.199 0.739 14.74 2.215v5.894c-4.542-1.72-9.212-2.58-14.003-2.58-14.368 0-21.55 6.818-21.55 20.449 0 14.614 7.07 21.925 21.223 21.925 2.257 0 4.762-0.296 7.515-0.888v-17.905h6.816zm10.871-18.275v-32.348h6.81v32.347c0 10.12 5.038 15.186 15.11 15.186 10.07 0 15.108-5.066 15.108-15.186v-32.347h6.815v32.347c0 13.81-7.307 20.711-21.922 20.711s-21.922-6.9-21.922-20.71zm62.817-32.351v47.165h27.566v5.525h-34.378v-52.69zm37.4 52.691h-7.073l26.196-59.64 26.196 59.64h-7.551l-6.82-16.583h-17.422l1.877-5.52h13.265l-9.838-23.88zm52.505-1e-3v-52.69h22.476c10.024 0 15.034 4.215 15.034 12.638 0 6.855-4.898 11.928-14.701 15.216l18.09 24.836h-8.99l-16.762-23.69v-4.455c10.069-1.601 15.103-5.47 15.103-11.608 0-4.862-2.8-7.298-8.397-7.298h-15.037v47.053h-6.816zm66.435-52.69v37.51c0 10.12-5.958 15.18-17.873 15.18v-5.527c7.37 0 11.056-3.221 11.056-9.653v-37.51zm12.159 50.847v-6.264c5.528 1.964 11.495 2.95 17.907 2.95 9.064 0 13.598-3.316 13.598-9.954 0-5.64-3.344-8.472-10.024-8.472h-6.782c-11.027 0-16.545-4.787-16.545-14.368 0-10.07 7.066-15.11 21.193-15.11 6.139 0 11.85 0.743 17.132 2.215v6.264c-5.284-1.967-10.993-2.95-17.132-2.95-9.581 0-14.37 3.195-14.37 9.581 0 5.647 3.24 8.473 9.722 8.473h6.782c11.222 0 16.84 4.793 16.84 14.367 0 10.32-6.804 15.48-20.415 15.48-6.41 0-12.378-0.74-17.906-2.212z" fill="#ccc" style="paint-order: normal;"></path><path d="m133.63 93.919v-52.69h6.815l32.24 42.446v-42.446h6.449v52.69h-6.816l-32.242-42.819v42.818h-6.446zm97.823-2.064c-4.248 1.624-8.829 2.432-13.743 2.432-19.085 0-28.629-9.148-28.629-27.45 0-17.317 9.212-25.978 27.636-25.978 5.28 0 10.195 0.74 14.736 2.214v5.894c-4.542-1.72-9.212-2.58-14-2.58-14.368 0-21.552 6.819-21.552 20.45 0 14.614 7.073 21.925 21.222 21.925 2.258 0 4.766-0.295 7.518-0.888v-17.906h6.813zm10.87-18.277v-32.352h6.811v32.352c0 10.12 5.038 15.182 15.11 15.182 10.07 0 15.107-5.064 15.107-15.182v-32.352h6.815v32.352c0 13.809-7.307 20.707-21.921 20.707-14.615 0-21.922-6.897-21.922-20.707zm62.819-32.352v47.165h27.562v5.525h-34.375v-52.69zm37.399 52.692h-7.073l26.197-59.644 26.196 59.644h-7.556l-6.815-16.582h-17.427l1.882-5.525h13.261l-9.835-23.88zm52.505 1e-3v-52.69h22.476c10.024 0 15.03 4.212 15.03 12.638 0 6.852-4.895 11.928-14.697 15.215l18.09 24.837h-8.994l-16.76-23.692v-4.459c10.07-1.6 15.107-5.465 15.107-11.608 0-4.861-2.803-7.293-8.403-7.293h-15.033v47.052z" style="paint-order: normal;"></path><path d="m461.48 41.226v37.511c0 10.123-5.956 15.179-17.871 15.179v-5.526c7.37 0 11.055-3.223 11.055-9.655v-37.51h6.817zm12.157 50.847v-6.263c5.53 1.964 11.496 2.95 17.908 2.95 9.064 0 13.597-3.318 13.597-9.951 0-5.644-3.343-8.473-10.024-8.473h-6.782c-11.026 0-16.544-4.79-16.544-14.371 0-10.07 7.063-15.11 21.193-15.11 6.138 0 11.85 0.744 17.132 2.216v6.264c-5.285-1.968-10.994-2.95-17.132-2.95-9.582 0-14.371 3.194-14.371 9.58 0 5.648 3.238 8.473 9.722 8.473h6.782c11.222 0 16.84 4.791 16.84 14.37 0 10.319-6.803 15.477-20.414 15.477-6.41 0-12.378-0.74-17.907-2.212z" fill="#a6120d" style="paint-order: normal;"></path><g style="paint-order: normal;"><path d="m61.948 0.651-61.536 21.656 9.725 80.622 51.877 28.513 52.144-28.9 9.72-80.618-61.929-21.274z" fill="#b3b3b3" style="paint-order: normal;"></path><path d="m117.74 26.583-55.934-19.075v117.12l46.877-25.944 9.059-72.103z" fill="#a6120d" style="paint-order: normal;"></path><path d="m7.318 26.927 8.332 72.103 46.154 25.6v-117.12l-54.486 19.42z" fill="#dd1b16" style="paint-order: normal;"></path><path d="m77.202 69.857-15.397 7.2h-16.229l-7.628 19.081-14.19 0.263 38.047-84.64zm-1.489-3.624-13.806-27.334-11.325 26.863h11.222l13.91 0.47z" fill="#f2f2f2" style="paint-order: normal;"></path><path d="m61.804 11.761 0.102 27.138 12.85 26.884h-12.923l-0.03 11.257 17.871 0.017 8.352 19.347 13.577 0.252-39.8-84.895z" fill="#b3b3b3" style="paint-order: normal;"></path></g></g><path d="m135.62 74.424c-1.0728 7e-3 -2.0018 0.17592-2.7811 0.43182-0.2876-0.3798-0.57541-0.71168-0.62331-0.95951-0.0533-0.28786-0.11979-0.4638-0.0533-0.8076 0.0659-0.34388 0.36552-0.83164 0.36552-0.87162-0.01-0.03603-0.0659-0.21188-0.6832-0.21588-0.61732-7e-3 -1.1508 0.07997-1.2107 0.1879-0.0593 0.10795-0.17984 0.35582-0.25765 0.61169-0.10794 0.37581-1.2347 1.7071-1.8761 2.4068-0.20974-0.27189-0.38959-0.51176-0.42557-0.70371-0.0533-0.28781-0.11986-0.46376-0.0533-0.80757 0.0664-0.34386 0.36555-0.83157 0.36555-0.87155-9e-3 -0.03603-0.0657-0.21189-0.68318-0.21589-0.61736-7e-3 -1.1507 0.08-1.2108 0.1879-0.0587 0.10795-0.12581 0.36381-0.25769 0.61169-0.12584 0.24789-1.6242 2.4708-2.0139 3.0505-0.19772 0.29582-0.37157 0.5317-0.49745 0.69164-0.12582 0.1599-9e-3 0.01201-0.0177 0.02795-0.10783 0.13597-0.16783 0.21188-0.16783 0.21188v7e-3c-0.0842 0.10003-0.17384 0.19595-0.21581 0.19595-0.0301 0-0.09-0.26795 0.0124-0.63572 0.22173-0.77165 0.76112-1.975 0.75518-2.019 0-0.01997 0.10182-0.23194-0.3476-0.33984-0.43755-0.10794-0.59336 0.07196-0.62942 0.07196-0.0352 0-0.0664 0.06399-0.0664 0.06399s0.48553-1.3553-0.92896-1.3553c-0.88715 0-2.1098 0.64366-2.7152 1.2314-0.38348 0.13994-1.1985 0.43575-2.0617 0.75164-0.32962 0.11994-0.67129 0.24786-0.99494 0.36381l-0.0662-0.04811c-1.7141-1.2194-4.8847-2.083-4.7528-3.7222 0.0475-0.59571 0.35958-2.1669 6.0895-4.07 4.6931-1.5592 8.4509-1.1314 9.1043-0.17991 0.92915 1.3593-2.0078 3.8861-6.8867 4.2499-1.858 0.13992-2.8349-0.33984-3.0806-0.51975-0.25775-0.1879-0.29376-0.1959-0.38963-0.15992-0.15593 0.05596-0.0589 0.22388 0 0.32384 0.14388 0.25187 0.7432 0.69965 1.7619 0.92354 0.89316 0.1959 3.0749 0.30384 5.7121-0.37582 2.9548-0.7636 5.2625-2.8826 4.5851-4.6537-0.68931-1.8031-5.1725-2.3948-9.41-1.3913-2.5233 0.5997-5.2565 1.5352-7.2222 2.7626-2.3377 1.4553-2.7092 2.7266-2.5533 3.2544 0.54531 1.8831 4.4352 3.1105 5.9935 4.018-0.0775 0.02795-0.14979 0.05628-0.21566 0.07998-0.77924 0.25583-3.7461 1.2913-4.4893 2.3867-0.83906 1.2394 0.13189 2.1309 0.7791 2.2509 2.002 0.3718 4.0518-0.29578 5.1607-1.3953 1.1028-1.0994 0.97086-2.5267 0.46147-3.1783l-0.0173-0.02391 0.61125-0.23984c0.39567-0.15596 0.78535-0.29985 1.127-0.42382-0.19174 0.3478-0.32967 0.75962-0.40152 1.3593-0.0841 0.70374 0.34763 1.6153 0.91707 1.9751 0.2517 0.15591 0.55125 0.15992 0.73712 0.15992 0.65935 0 0.95894-0.36386 1.2887-0.79967 0.40753-0.5317 0.76709-1.1474 0.76709-1.1474s-0.44937 1.6672 0.77921 1.6672c0.44958 0 0.89904-0.38777 1.1028-0.58771v7e-3s0.0119-0.0121 0.035-0.0393a2.1655 1.4445 0 0 0 0.0718-0.07591v-0.0088c0.17995-0.20789 0.58139-0.68365 1.1808-1.4713 0.77307-1.0155 1.5163-2.2869 1.5163-2.2869s0.0717 0.31185 0.29374 0.82359c0.13177 0.3039 0.41948 0.63569 0.64127 0.9595-0.17983 0.16794-0.28772 0.26392-0.28772 0.26392l9e-3 7e-3c-0.14386 0.12794-0.30574 0.26394-0.4734 0.39978-0.61156 0.48779-1.3427 1.0435-1.4386 1.2035-0.11388 0.18792-0.0898 0.32782 0.13193 0.43983 0.16177 0.07997 0.44945 0.09586 0.7551 0.07997 0.55156-0.0243 0.93507-0.116 1.1268-0.17199 0.29965-0.07195 0.64137-0.17988 0.971-0.33977 0.59944-0.29586 0.96494-0.71563 0.92887-1.2754-0.0171-0.30786-0.16772-0.61171-0.35348-0.89958 0.0534-0.05203 0.1079-0.10397 0.16189-0.1599 0.94697-0.92358 1.6781-1.939 1.6781-1.939s0.0716 0.31184 0.29377 0.82358c0.11376 0.25988 0.34153 0.54378 0.54537 0.82364-0.88707 0.48373-1.4444 1.0435-1.6362 1.4113-0.35367 0.67968-0.0777 0.98752 0.44347 1.0595 0.2337 0.03199 0.5694-0.03953 0.82094-0.11192 0.31184-0.06798 0.68929-0.18393 1.037-0.35584 0.59939-0.29584 1.1746-0.7077 1.1449-1.2633-0.0172-0.25591-0.12014-0.50775-0.25793-0.74764 0.75531-0.2079 1.7321-0.32784 2.9731-0.22789 2.6671 0.20791 3.1945 1.3194 3.0926 1.7831-0.10185 0.4638-0.65922 0.71963-0.84511 0.7996-0.18601 0.076-0.24573 0.10401-0.2277 0.15995 0.0244 0.08401 0.10795 0.07996 0.26971 0.06403 0.22172-0.02413 1.4024-0.37984 1.4505-1.2354 0.0716-1.0996-1.4925-2.299-4.2675-2.287zm-20.57 4.6257c-0.88112 0.64368-2.1218 0.8876-2.6492 0.67968-0.56939-0.21992-0.34773-1.1675 0.73721-1.8511 0.65929-0.41581 1.5164-0.7996 2.0798-1.0355 0.12584-0.0529 0.31765-0.1279 0.54535-0.2199 0.0357-0.01585 0.0591-0.02391 0.0591-0.02391 0.0409-0.01592 0.0899-0.0361 0.13783-0.05666 0.40162 0.97552 0.0175 1.8311-0.91101 2.5068zm6.443-2.9226c-0.30565 0.49977-0.95293 1.7831-1.3425 1.7112-0.33575-0.05955-0.53951-1.0315-0.0663-1.991 0.23971-0.48378 0.74917-1.0595 1.0489-1.2834 0.48554-0.35983 1.0128-0.47977 1.1447-0.33184 0.15592 0.19195-0.59326 1.5833-0.7851 1.8951zm5.3163 1.6952c-0.13171 0.04387-0.25167 0.076-0.30552 0.05176-0.041-0.01601 0.0535-0.07593 0.0535-0.07593s0.66541-0.47581 0.92912-0.69572c0.14979-0.1279 0.32962-0.2758 0.5214-0.44372v0.04854c3e-5 0.5757-0.82712 0.95946-1.1986 1.1154zm4.0997-0.62369c-0.096-0.04805-0.084-0.19588 0.2397-0.65966 0.12595-0.1839 0.41358-0.49176 0.91111-0.78361 0.0593 0.11996 0.096 0.23585 0.0898 0.34384-9e-3 0.71963-0.77305 0.98743-1.2406 1.0994z" fill="#cf649a" stroke-width=".048952"></path><g transform="matrix(.60403 0 0 .60403 -443.72 -14.876)"><g transform="matrix(.099159 -6.3343e-5 5.9815e-5 .099155 901.1 92.206)"><path d="m0 0h256v256h-256z" fill="#f7df1e"></path><path d="m67.312 213.93 19.591-11.856c3.7795 6.7011 7.2176 12.371 15.464 12.371 7.9051 0 12.889-3.0923 12.889-15.12v-81.798h24.057v82.138c0 24.917-14.606 36.259-35.915 36.259-19.245 0-30.416-9.9673-36.087-21.996"></path><path d="m152.38 211.35 19.588-11.342c5.1566 8.4212 11.858 14.607 23.715 14.607 9.9682 0 16.325-4.9839 16.325-11.858 0-8.2485-6.5296-11.17-17.528-15.98l-6.0128-2.5795c-17.357-7.3878-28.871-16.667-28.871-36.258 0-18.044 13.747-31.792 35.228-31.792 15.294 0 26.292 5.3276 34.196 19.247l-18.731 12.028c-4.1244-7.3886-8.591-10.309-15.464-10.309-7.0457 0-11.514 4.4678-11.514 10.309 0 7.2176 4.4682 10.14 14.778 14.608l6.014 2.5775c20.45 8.7646 31.963 17.699 31.963 37.804 0 21.654-17.012 33.51-39.867 33.51-22.339 0-36.775-10.654-43.819-24.574"></path></g><g transform="matrix(.070011 0 0 .049609 840.17 92.19)"><path d="m108.4 0h23v22.8h21.2v-22.8h23v69h-23v-23h-21v23h-23.2m97.6-46h-20.3v-23h63.7v23h-20.4v46h-23m53.5-69h24.1l14.8 24.3 14.8-24.3h24.1v69h-23v-34.2l-16.1 24.8-16.1-24.8v34.2h-22.6m89.2-69h23v46.2h32.6v22.8h-55.6" fill="#fff"></path><path d="m107.6 471-33-370.4h362.8l-33 370.2-148.7 41.2" fill="#e44d26"></path><path d="m256 480.5v-349.5h148.3l-28.3 316" fill="#f16529"></path><path d="m142 176.3h114v45.4h-64.2l4.2 46.5h60v45.3h-101.6m2 22.8h45.6l3.2 36.3 50.8 13.6v47.4l-93.2-26" fill="#ebebeb"></path><path d="m369.6 176.3h-113.8v45.4h109.6m-4.1 46.5h-105.5v45.4h56l-5.3 59-50.7 13.6v47.2l93-25.8" fill="#fff"></path></g><g transform="matrix(.070024 0 0 .049609 868.02 92.19)"><polygon points="74.633 100.62 437.37 100.62 404.32 470.82 255.78 512 107.64 470.88" fill="#264de4"></polygon><polygon points="404.27 130.89 256 130.89 256 480.52 376.03 447.25" fill="#2965f1"></polygon><g fill="#ebebeb"><polygon points="154.38 313.63 256 313.63 256 268.22 150.31 268.22"></polygon><polygon points="256 221.72 256 176.3 255.84 176.3 142.13 176.3 146.26 221.72"></polygon><polygon points="255.8 386.21 205.23 372.55 201.99 336.33 177.42 336.33 156.41 336.33 162.77 407.63 255.79 433.46 256 433.4 256 386.15"></polygon></g><path d="m160 0h55v23h-32v23h32v23h-55z" fill="#f9f9f9"></path><g fill="#fff"><path d="m226 0h55v20h-32v4h32v46h-55v-21h32v-4h-32z"></path><path d="m292 0h55v20h-32v4h32v46h-55v-21h32v-4h-32z"></path><polygon points="255.84 313.63 311.76 313.63 306.49 372.52 255.84 386.19 255.84 433.44 348.94 407.63 349.62 399.96 360.29 280.41 361.4 268.22 369.6 176.3 255.84 176.3 255.84 221.72 319.83 221.72 315.7 268.22 255.84 268.22"></polygon></g></g></g></g></svg>