<?xml version="1.0" encoding="UTF-8" standalone="no"?>
<svg
   xmlns:dc="http://purl.org/dc/elements/1.1/"
   xmlns:cc="http://creativecommons.org/ns#"
   xmlns:rdf="http://www.w3.org/1999/02/22-rdf-syntax-ns#"
   xmlns:svg="http://www.w3.org/2000/svg"
   xmlns="http://www.w3.org/2000/svg"
   xmlns:xlink="http://www.w3.org/1999/xlink"
   xmlns:sodipodi="http://sodipodi.sourceforge.net/DTD/sodipodi-0.dtd"
   xmlns:inkscape="http://www.inkscape.org/namespaces/inkscape"
   width="210mm"
   height="297mm"
   viewBox="0 0 210 297"
   version="1.1"
   id="svg3612"
   inkscape:version="1.0.1 (0767f8302a, 2020-10-17)"
   sodipodi:docname="servers_only.svg">
  <defs
     id="defs3606">
    <linearGradient
       inkscape:collect="always"
       xlink:href="#linearGradient-1"
       id="linearGradient3852"
       gradientUnits="userSpaceOnUse"
       gradientTransform="matrix(0.99888681,0,0,1.0011144,-25.049987,-75.431883)"
       x1="24.714943"
       y1="22.898218"
       x2="151.13554"
       y2="148.33669" />
    <linearGradient
       gradientUnits="userSpaceOnUse"
       gradientTransform="matrix(0.99888681,0,0,1.0011144,-25.049987,-75.431883)"
       x1="24.714943"
       y1="22.898218"
       x2="151.13554"
       y2="148.33669"
       id="linearGradient-1">
      <stop
         stop-color="#387EB8"
         offset="0%"
         id="stop1140" />
      <stop
         stop-color="#366994"
         offset="100%"
         id="stop1142" />
    </linearGradient>
    <linearGradient
       inkscape:collect="always"
       xlink:href="#linearGradient-2"
       id="linearGradient3854"
       gradientUnits="userSpaceOnUse"
       gradientTransform="matrix(0.99888678,0,0,1.0011145,-25.049987,-75.431883)"
       x1="102.48342"
       y1="103.26588"
       x2="238.25963"
       y2="231.90547" />
    <linearGradient
       gradientUnits="userSpaceOnUse"
       gradientTransform="matrix(0.99888678,0,0,1.0011145,-25.049987,-75.431883)"
       x1="102.48342"
       y1="103.26588"
       x2="238.25963"
       y2="231.90547"
       id="linearGradient-2">
      <stop
         stop-color="#FFE052"
         offset="0%"
         id="stop1145" />
      <stop
         stop-color="#FFC331"
         offset="100%"
         id="stop1147" />
    </linearGradient>
    <clipPath
       clipPathUnits="userSpaceOnUse"
       id="clipPath3444">
      <path
         d="M 11.52,162 C 11.52,81.677 135.307,16.561 288,16.561 v 0 c 152.693,0 276.481,65.116 276.481,145.439 v 0 c 0,80.322 -123.788,145.439 -276.481,145.439 v 0 C 135.307,307.439 11.52,242.322 11.52,162"
         id="path3446" />
    </clipPath>
    <radialGradient
       cx="0"
       cy="0"
       fx="0"
       fy="0"
       gradientTransform="matrix(363.05789,0,0,-363.05789,177.52002,256.30713)"
       gradientUnits="userSpaceOnUse"
       id="radialGradient3452"
       r="1"
       spreadMethod="pad">
      <stop
         id="stop3454"
         offset="0"
         style="stop-opacity:1;stop-color:#aeb2d5" />
      <stop
         id="stop3456"
         offset="0.3"
         style="stop-opacity:1;stop-color:#aeb2d5" />
      <stop
         id="stop3458"
         offset="0.75"
         style="stop-opacity:1;stop-color:#484c89" />
      <stop
         id="stop3460"
         offset="1"
         style="stop-opacity:1;stop-color:#484c89" />
    </radialGradient>
    <clipPath
       clipPathUnits="userSpaceOnUse"
       id="clipPath3468">
      <path
         d="M 0,324 H 576 V 0 H 0 Z"
         id="path3470" />
    </clipPath>
    <clipPath
       clipPathUnits="userSpaceOnUse"
       id="clipPath3480">
      <path
         d="M 0,324 H 576 V 0 H 0 Z"
         id="path3482" />
    </clipPath>
    <linearGradient
       gradientUnits="userSpaceOnUse"
       gradientTransform="scale(0.93681241,1.0674496)"
       x1="79.823227"
       y1="21.345526"
       x2="32.862125"
       y2="105.42175"
       id="linearGradient-1-9">
      <stop
         stop-color="#41873F"
         offset="0%"
         id="stop1249" />
      <stop
         stop-color="#418B3D"
         offset="32.88%"
         id="stop1251" />
      <stop
         stop-color="#419637"
         offset="63.52%"
         id="stop1253" />
      <stop
         stop-color="#3FA92D"
         offset="93.19%"
         id="stop1255" />
      <stop
         stop-color="#3FAE2A"
         offset="100%"
         id="stop1257" />
    </linearGradient>
    <mask
       id="mask-3"
       fill="#ffffff">
      <path
         id="use1331"
         d="m 15.320271,0.48927012 c -0.48927,-0.27521444 -1.070279,-0.27521444 -1.559549,0 L 0.88680211,7.9200603 C 0.39753199,8.1952745 0.12231753,8.7151242 0.12231753,9.265553 v 14.892159 c 0,0.55043 0.30579383,1.070279 0.76448458,1.345493 l 12.87391989,7.43079 c 0.48927,0.275214 1.070279,0.275214 1.559549,0 l 12.873919,-7.43079 c 0.489271,-0.275214 0.764485,-0.795063 0.764485,-1.345493 V 9.265553 c 0,-0.5504288 -0.305792,-1.0702785 -0.764485,-1.3454927 z"
         style="stroke-width:0.264583" />
    </mask>
    <linearGradient
       gradientUnits="userSpaceOnUse"
       gradientTransform="scale(0.92601891,1.0798916)"
       x1="51.368568"
       y1="64.593353"
       x2="184.67371"
       y2="-19.865484"
       id="linearGradient-4">
      <stop
         stop-color="#41873F"
         offset="13.76%"
         id="stop1261" />
      <stop
         stop-color="#54A044"
         offset="40.32%"
         id="stop1263" />
      <stop
         stop-color="#66B848"
         offset="71.36%"
         id="stop1265" />
      <stop
         stop-color="#6CC04A"
         offset="90.81%"
         id="stop1267" />
    </linearGradient>
    <mask
       id="mask3508"
       fill="#ffffff">
      <path
         id="path3506"
         d="m 15.320271,0.48927012 c -0.48927,-0.27521444 -1.070279,-0.27521444 -1.559549,0 L 0.88680211,7.9200603 C 0.39753199,8.1952745 0.12231753,8.7151242 0.12231753,9.265553 v 14.892159 c 0,0.55043 0.30579383,1.070279 0.76448458,1.345493 l 12.87391989,7.43079 c 0.48927,0.275214 1.070279,0.275214 1.559549,0 l 12.873919,-7.43079 c 0.489271,-0.275214 0.764485,-0.795063 0.764485,-1.345493 V 9.265553 c 0,-0.5504288 -0.305792,-1.0702785 -0.764485,-1.3454927 z"
         style="stroke-width:0.264583" />
    </mask>
    <linearGradient
       gradientUnits="userSpaceOnUse"
       gradientTransform="scale(1.6329932,0.61237242)"
       x1="5.4425087"
       y1="1.3971804"
       x2="60.600269"
       y2="1.3971804"
       id="linearGradient-5">
      <stop
         stop-color="#6CC04A"
         offset="9.191646%"
         id="stop1270" />
      <stop
         stop-color="#66B848"
         offset="28.64%"
         id="stop1272" />
      <stop
         stop-color="#54A044"
         offset="59.68%"
         id="stop1274" />
      <stop
         stop-color="#41873F"
         offset="86.24%"
         id="stop1276" />
    </linearGradient>
    <linearGradient
       gradientUnits="userSpaceOnUse"
       gradientTransform="scale(0.92514088,1.0809165)"
       x1="-1.421301"
       y1="66.989319"
       x2="120.2794"
       y2="66.989319"
       id="linearGradient-6">
      <stop
         stop-color="#6CC04A"
         offset="9.191646%"
         id="stop1279" />
      <stop
         stop-color="#66B848"
         offset="28.64%"
         id="stop1281" />
      <stop
         stop-color="#54A044"
         offset="59.68%"
         id="stop1283" />
      <stop
         stop-color="#41873F"
         offset="86.24%"
         id="stop1285" />
    </linearGradient>
    <linearGradient
       gradientUnits="userSpaceOnUse"
       gradientTransform="scale(0.65464693,1.527541)"
       x1="118.0377"
       y1="68.362541"
       x2="169.63257"
       y2="68.362541"
       id="linearGradient-7">
      <stop
         stop-color="#6CC04A"
         offset="9.191646%"
         id="stop1288" />
      <stop
         stop-color="#66B848"
         offset="28.64%"
         id="stop1290" />
      <stop
         stop-color="#54A044"
         offset="59.68%"
         id="stop1292" />
      <stop
         stop-color="#41873F"
         offset="86.24%"
         id="stop1294" />
    </linearGradient>
    <linearGradient
       gradientUnits="userSpaceOnUse"
       gradientTransform="scale(1.2659753,0.7899048)"
       x1="-1.0386474"
       y1="150.75189"
       x2="87.896973"
       y2="150.75189"
       id="linearGradient-8">
      <stop
         stop-color="#6CC04A"
         offset="9.191646%"
         id="stop1297" />
      <stop
         stop-color="#66B848"
         offset="28.64%"
         id="stop1299" />
      <stop
         stop-color="#54A044"
         offset="59.68%"
         id="stop1301" />
      <stop
         stop-color="#41873F"
         offset="86.24%"
         id="stop1303" />
    </linearGradient>
    <linearGradient
       gradientUnits="userSpaceOnUse"
       gradientTransform="scale(1.2659753,0.7899048)"
       x1="100.85383"
       y1="37.182369"
       x2="46.004009"
       y2="216.51357"
       id="linearGradient-9">
      <stop
         stop-color="#41873F"
         offset="0%"
         id="stop1306" />
      <stop
         stop-color="#418B3D"
         offset="32.88%"
         id="stop1308" />
      <stop
         stop-color="#419637"
         offset="63.52%"
         id="stop1310" />
      <stop
         stop-color="#3FA92D"
         offset="93.19%"
         id="stop1312" />
      <stop
         stop-color="#3FAE2A"
         offset="100%"
         id="stop1314" />
    </linearGradient>
    <linearGradient
       x1="79.823228"
       y1="21.345526"
       x2="32.862126"
       y2="105.42175"
       id="linearGradient-1-3"
       gradientTransform="scale(0.93681241,1.0674496)"
       gradientUnits="userSpaceOnUse">
      <stop
         stop-color="#41873F"
         offset="0%"
         id="stop4646" />
      <stop
         stop-color="#418B3D"
         offset="32.88%"
         id="stop4648" />
      <stop
         stop-color="#419637"
         offset="63.52%"
         id="stop4650" />
      <stop
         stop-color="#3FA92D"
         offset="93.19%"
         id="stop4652" />
      <stop
         stop-color="#3FAE2A"
         offset="100%"
         id="stop4654" />
    </linearGradient>
    <path
       id="path-2"
       d="M57.903386,1.84920993 C56.0541761,0.809029345 53.8582393,0.809029345 52.0090293,1.84920993 L3.351693,29.9340858 C1.50248307,30.9742664 0.462302483,32.9390519 0.462302483,35.0194131 L0.462302483,91.3047404 C0.462302483,93.3851016 1.61805869,95.3498871 3.351693,96.3900677 L52.0090293,124.474944 C53.8582393,125.515124 56.0541761,125.515124 57.903386,124.474944 L106.560722,96.3900677 C108.409932,95.3498871 109.450113,93.3851016 109.450113,91.3047404 L109.450113,35.0194131 C109.450113,32.9390519 108.294357,30.9742664 106.560722,29.9340858 L57.903386,1.84920993 L57.903386,1.84920993 Z" />
    <linearGradient
       x1="51.368568"
       y1="64.593354"
       x2="184.6737"
       y2="-19.865484"
       id="linearGradient-4-6"
       gradientTransform="scale(0.92601891,1.0798916)"
       gradientUnits="userSpaceOnUse">
      <stop
         stop-color="#41873F"
         offset="13.76%"
         id="stop4658" />
      <stop
         stop-color="#54A044"
         offset="40.32%"
         id="stop4660" />
      <stop
         stop-color="#66B848"
         offset="71.36%"
         id="stop4662" />
      <stop
         stop-color="#6CC04A"
         offset="90.81%"
         id="stop4664" />
    </linearGradient>
    <linearGradient
       x1="5.4425087"
       y1="1.3971804"
       x2="60.600268"
       y2="1.3971804"
       id="linearGradient-5-7"
       gradientTransform="scale(1.6329932,0.61237242)"
       gradientUnits="userSpaceOnUse">
      <stop
         stop-color="#6CC04A"
         offset="9.191646%"
         id="stop4667" />
      <stop
         stop-color="#66B848"
         offset="28.64%"
         id="stop4669" />
      <stop
         stop-color="#54A044"
         offset="59.68%"
         id="stop4671" />
      <stop
         stop-color="#41873F"
         offset="86.24%"
         id="stop4673" />
    </linearGradient>
    <linearGradient
       x1="-1.421301"
       y1="66.989321"
       x2="120.2794"
       y2="66.989321"
       id="linearGradient-6-5"
       gradientTransform="scale(0.92514088,1.0809165)"
       gradientUnits="userSpaceOnUse">
      <stop
         stop-color="#6CC04A"
         offset="9.191646%"
         id="stop4676" />
      <stop
         stop-color="#66B848"
         offset="28.64%"
         id="stop4678" />
      <stop
         stop-color="#54A044"
         offset="59.68%"
         id="stop4680" />
      <stop
         stop-color="#41873F"
         offset="86.24%"
         id="stop4682" />
    </linearGradient>
    <linearGradient
       x1="118.0377"
       y1="68.36254"
       x2="169.63257"
       y2="68.36254"
       id="linearGradient-7-3"
       gradientTransform="scale(0.65464693,1.527541)"
       gradientUnits="userSpaceOnUse">
      <stop
         stop-color="#6CC04A"
         offset="9.191646%"
         id="stop4685" />
      <stop
         stop-color="#66B848"
         offset="28.64%"
         id="stop4687" />
      <stop
         stop-color="#54A044"
         offset="59.68%"
         id="stop4689" />
      <stop
         stop-color="#41873F"
         offset="86.24%"
         id="stop4691" />
    </linearGradient>
    <linearGradient
       x1="-1.0386474"
       y1="150.75189"
       x2="87.896974"
       y2="150.75189"
       id="linearGradient-8-5"
       gradientTransform="scale(1.2659753,0.7899048)"
       gradientUnits="userSpaceOnUse">
      <stop
         stop-color="#6CC04A"
         offset="9.191646%"
         id="stop4694" />
      <stop
         stop-color="#66B848"
         offset="28.64%"
         id="stop4696" />
      <stop
         stop-color="#54A044"
         offset="59.68%"
         id="stop4698" />
      <stop
         stop-color="#41873F"
         offset="86.24%"
         id="stop4700" />
    </linearGradient>
    <linearGradient
       x1="100.85383"
       y1="37.18237"
       x2="46.00401"
       y2="216.51357"
       id="linearGradient-9-6"
       gradientTransform="scale(1.2659753,0.7899048)"
       gradientUnits="userSpaceOnUse">
      <stop
         stop-color="#41873F"
         offset="0%"
         id="stop4703" />
      <stop
         stop-color="#418B3D"
         offset="32.88%"
         id="stop4705" />
      <stop
         stop-color="#419637"
         offset="63.52%"
         id="stop4707" />
      <stop
         stop-color="#3FA92D"
         offset="93.19%"
         id="stop4709" />
      <stop
         stop-color="#3FAE2A"
         offset="100%"
         id="stop4711" />
    </linearGradient>
  </defs>
  <sodipodi:namedview
     id="base"
     pagecolor="#ffffff"
     bordercolor="#666666"
     borderopacity="1.0"
     inkscape:pageopacity="0.0"
     inkscape:pageshadow="2"
     inkscape:zoom="0.7"
     inkscape:cx="400"
     inkscape:cy="581.45502"
     inkscape:document-units="mm"
     inkscape:current-layer="layer1"
     inkscape:document-rotation="0"
     showgrid="false"
     inkscape:window-width="1366"
     inkscape:window-height="704"
     inkscape:window-x="0"
     inkscape:window-y="0"
     inkscape:window-maximized="0" />
  <metadata
     id="metadata3609">
    <rdf:RDF>
      <cc:Work
         rdf:about="">
        <dc:format>image/svg+xml</dc:format>
        <dc:type
           rdf:resource="http://purl.org/dc/dcmitype/StillImage" />
        <dc:title></dc:title>
      </cc:Work>
    </rdf:RDF>
  </metadata>
  <g
     inkscape:label="Layer 1"
     inkscape:groupmode="layer"
     id="layer1">
    <path
       inkscape:connector-curvature="0"
       inkscape:connector-type="polyline"
       id="path1705"
       d="m 22.990579,143.63156 v 0"
       style="display:inline;fill:none;fill-rule:evenodd;stroke:#000000;stroke-width:0.265001px;stroke-linecap:butt;stroke-linejoin:miter;stroke-opacity:1" />
    <rect
       style="display:inline;fill:#afafaf;fill-opacity:1;stroke:#000000;stroke-width:2.36449;stroke-linecap:round;stroke-linejoin:round;stroke-miterlimit:4;stroke-dasharray:none;stroke-opacity:1"
       id="rect1649"
       width="177.81674"
       height="59.01984"
       x="16.091629"
       y="57.246628"
       ry="6.323926" />
    <rect
       style="display:inline;fill:#afafaf;fill-opacity:1;stroke:#000000;stroke-width:2.36449;stroke-linecap:round;stroke-linejoin:round;stroke-miterlimit:4;stroke-dasharray:none;stroke-opacity:1"
       id="rect2216"
       width="177.81674"
       height="59.01984"
       x="16.091629"
       y="118.96828"
       ry="6.323926" />
    <rect
       style="display:inline;fill:#afafaf;fill-opacity:1;stroke:#000000;stroke-width:2.36449;stroke-linecap:round;stroke-linejoin:round;stroke-miterlimit:4;stroke-dasharray:none;stroke-opacity:1"
       id="rect2224"
       width="177.81674"
       height="59.01984"
       x="16.091629"
       y="180.73354"
       ry="6.323926" />
    <ellipse
       style="display:inline;fill:#0ed200;fill-opacity:1;stroke:#000000;stroke-width:2.36593;stroke-linecap:round;stroke-linejoin:round;stroke-miterlimit:4;stroke-dasharray:none;stroke-opacity:1"
       id="path1651"
       cx="163.23985"
       cy="86.756577"
       rx="9.2775736"
       ry="7.7323823" />
    <rect
       style="display:inline;fill:#000000;fill-opacity:1;stroke:none;stroke-width:0.723696;stroke-linecap:round;stroke-linejoin:round;stroke-miterlimit:4;stroke-dasharray:none;stroke-opacity:1"
       id="rect1657"
       width="48.728577"
       height="5.022645"
       x="94.422455"
       y="78.894043"
       ry="1.0159628" />
    <rect
       style="display:inline;fill:#000000;fill-opacity:1;stroke:none;stroke-width:0.723696;stroke-linecap:round;stroke-linejoin:round;stroke-miterlimit:4;stroke-dasharray:none;stroke-opacity:1"
       id="rect1673"
       width="48.728577"
       height="5.022645"
       x="94.225044"
       y="89.596405"
       ry="1.0159628" />
    <ellipse
       style="display:inline;fill:#0ed200;fill-opacity:1;stroke:#000000;stroke-width:2.36593;stroke-linecap:round;stroke-linejoin:round;stroke-miterlimit:4;stroke-dasharray:none;stroke-opacity:1"
       id="ellipse2218"
       cx="163.23985"
       cy="148.47823"
       rx="9.2775736"
       ry="7.7323823" />
    <rect
       style="display:inline;fill:#000000;fill-opacity:1;stroke:none;stroke-width:0.723696;stroke-linecap:round;stroke-linejoin:round;stroke-miterlimit:4;stroke-dasharray:none;stroke-opacity:1"
       id="rect2220"
       width="48.728577"
       height="5.022645"
       x="94.422455"
       y="140.61571"
       ry="1.0159628" />
    <rect
       style="display:inline;fill:#000000;fill-opacity:1;stroke:none;stroke-width:0.723696;stroke-linecap:round;stroke-linejoin:round;stroke-miterlimit:4;stroke-dasharray:none;stroke-opacity:1"
       id="rect2222"
       width="48.728577"
       height="5.022645"
       x="94.225044"
       y="151.31807"
       ry="1.0159628" />
    <ellipse
       style="display:inline;fill:#0ed200;fill-opacity:1;stroke:#000000;stroke-width:2.36593;stroke-linecap:round;stroke-linejoin:round;stroke-miterlimit:4;stroke-dasharray:none;stroke-opacity:1"
       id="ellipse2226"
       cx="163.23985"
       cy="210.24341"
       rx="9.2775736"
       ry="7.7323823" />
    <rect
       style="display:inline;fill:#000000;fill-opacity:1;stroke:none;stroke-width:0.723696;stroke-linecap:round;stroke-linejoin:round;stroke-miterlimit:4;stroke-dasharray:none;stroke-opacity:1"
       id="rect2228"
       width="48.728577"
       height="5.022645"
       x="94.422455"
       y="202.38092"
       ry="1.0159628" />
    <rect
       style="display:inline;fill:#000000;fill-opacity:1;stroke:none;stroke-width:0.723696;stroke-linecap:round;stroke-linejoin:round;stroke-miterlimit:4;stroke-dasharray:none;stroke-opacity:1"
       id="rect2230"
       width="48.728577"
       height="5.022645"
       x="94.225044"
       y="213.08325"
       ry="1.0159628" />
    <g
       transform="matrix(0.19891626,0,0,0.19995749,39.373189,75.987453)"
       id="g1156"
       style="display:inline;opacity:1">
      <path
         style="fill:url(#linearGradient3852)"
         d="m 101.86588,-75.359607 c -64.832284,5e-6 -60.783738,28.11519 -60.783738,28.11519 l 0.07227,29.127047 h 61.867878 v 8.7453405 H 16.58073 c 0,0 -41.486166,-4.7049095 -41.486166,60.7114675 -4e-6,65.416352 36.210051,63.096552 36.210051,63.096552 H 32.915004 V 84.080259 c 0,0 -1.164855,-36.210052 35.631847,-36.210052 h 61.361939 c 0,0 34.47544,0.5573 34.47544,-33.31903 v -56.01355 c 0,-5e-6 5.23432,-33.897234 -62.51835,-33.897234 z m -34.11406,19.586675 c 6.1554,-5e-6 11.130433,4.975035 11.130433,11.130434 10e-6,6.155399 -4.975033,11.130435 -11.130433,11.130435 -6.1554,5e-6 -11.130435,-4.975036 -11.130435,-11.130435 -5e-6,-6.155399 4.975035,-11.130434 11.130435,-11.130434 z"
         fill="url(#linearGradient-1)"
         id="path1152" />
      <path
         style="fill:url(#linearGradient3854)"
         d="m 103.70711,178.69439 c 64.8323,0 60.78374,-28.11519 60.78374,-28.11519 l -0.0723,-29.12705 h -61.86787 v -8.74534 h 86.44156 c 0,0 41.48617,4.7049 41.48617,-60.711482 2e-5,-65.416354 -36.21005,-63.096552 -36.21005,-63.096552 H 172.65797 V 19.2545 c 0,0 1.16487,36.210048 -35.63185,36.210048 H 75.664173 c 0,0 -34.475435,-0.55729 -34.475435,33.319061 v 56.013551 c 0,0 -5.234323,33.89723 62.518352,33.89723 v 0 z m 34.11406,-19.58667 c -6.1554,0 -11.13043,-4.97504 -11.13043,-11.13044 0,-6.1554 4.97503,-11.13043 11.13043,-11.13043 6.1554,0 11.13043,4.97503 11.13043,11.13043 3e-5,6.1554 -4.97503,11.13044 -11.13043,11.13044 z"
         fill="url(#linearGradient-2)"
         id="path1154" />
    </g>
    <g
       id="g3438"
       transform="matrix(0.09186905,0,0,-0.17464367,27.369871,238.5867)"
       style="display:inline;opacity:1">
      <g
         id="g3440">
        <g
           clip-path="url(#clipPath3444)"
           id="g3442">
          <g
             id="g3448">
            <g
               id="g3450">
              <path
                 d="M 11.52,162 C 11.52,81.677 135.307,16.561 288,16.561 v 0 c 152.693,0 276.481,65.116 276.481,145.439 v 0 c 0,80.322 -123.788,145.439 -276.481,145.439 v 0 C 135.307,307.439 11.52,242.322 11.52,162"
                 id="path3462"
                 style="fill:url(#radialGradient3452);stroke:none" />
            </g>
          </g>
        </g>
      </g>
      <g
         id="g3464">
        <g
           clip-path="url(#clipPath3468)"
           id="g3466">
          <g
             id="g3472"
             transform="translate(288,27.3594)">
            <path
               d="M 0,0 C 146.729,0 265.68,60.281 265.68,134.641 265.68,209 146.729,269.282 0,269.282 -146.729,269.282 -265.68,209 -265.68,134.641 -265.68,60.281 -146.729,0 0,0"
               id="path3474"
               style="fill:#777bb3;fill-opacity:1;fill-rule:nonzero;stroke:none" />
          </g>
        </g>
      </g>
      <g
         id="g3476">
        <g
           clip-path="url(#clipPath3480)"
           id="g3478">
          <g
             id="g3484"
             transform="translate(161.7344,145.3066)">
            <path
               d="m 0,0 c 12.065,0 21.072,2.225 26.771,6.611 5.638,4.341 9.532,11.862 11.573,22.353 1.903,9.806 1.178,16.653 -2.154,20.348 C 32.783,53.086 25.417,55 14.297,55 H -4.984 L -15.673,0 Z m -63.063,-67.75 c -0.895,0 -1.745,0.4 -2.314,1.092 -0.57,0.691 -0.801,1.601 -0.63,2.48 L -37.679,81.573 C -37.405,82.982 -36.17,84 -34.734,84 H 26.32 C 45.508,84 59.79,78.79 68.767,68.513 77.792,58.182 80.579,43.741 77.05,25.592 75.614,18.198 73.144,11.331 69.709,5.183 66.27,-0.972 61.725,-6.667 56.198,-11.747 49.582,-17.939 42.094,-22.429 33.962,-25.071 25.959,-27.678 15.681,-29 3.414,-29 h -24.722 l -7.06,-36.322 c -0.274,-1.41 -1.508,-2.428 -2.944,-2.428 z"
               id="path3486"
               style="fill:#000000;fill-opacity:1;fill-rule:nonzero;stroke:none" />
          </g>
          <g
             id="g3488"
             transform="translate(159.2236,197.3071)">
            <path
               d="m 0,0 h 16.808 c 13.421,0 18.083,-2.945 19.667,-4.7 2.628,-2.914 3.124,-9.058 1.435,-17.767 C 36.012,-32.217 32.494,-39.13 27.452,-43.012 22.29,-46.986 13.898,-49 2.511,-49 H -9.523 Z m 28.831,35 h -61.055 c -2.872,0 -5.341,-2.036 -5.889,-4.855 l -28.328,-145.751 c -0.342,-1.759 0.12,-3.578 1.259,-4.961 1.14,-1.383 2.838,-2.183 4.63,-2.183 h 31.75 c 2.873,0 5.342,2.036 5.89,4.855 L -16.324,-84 H 5.925 c 12.582,0 23.174,1.372 31.479,4.077 8.541,2.775 16.399,7.48 23.354,13.984 5.752,5.292 10.49,11.232 14.08,17.657 3.591,6.427 6.171,13.594 7.668,21.302 3.715,19.104 0.697,34.402 -8.969,45.466 C 63.965,29.444 48.923,35 28.831,35 M -16.802,-55 H 2.511 c 12.801,0 22.336,2.411 28.601,7.234 6.266,4.824 10.492,12.875 12.688,24.157 2.101,10.832 1.144,18.476 -2.871,22.929 C 36.909,3.773 28.87,6 16.808,6 H -4.946 L -16.802,-55 M 28.831,29 C 47.198,29 60.597,24.18 69.019,14.539 77.44,4.898 79.976,-8.559 76.616,-25.836 75.233,-32.953 72.894,-39.46 69.601,-45.355 66.304,-51.254 61.999,-56.648 56.679,-61.539 50.339,-67.472 43.296,-71.7 35.546,-74.218 27.796,-76.743 17.925,-78 5.925,-78 h -27.196 l -7.531,-38.75 h -31.75 L -32.224,29 h 61.055"
               id="path3490"
               style="fill:#ffffff;fill-opacity:1;fill-rule:nonzero;stroke:none" />
          </g>
          <g
             id="g3492"
             transform="translate(311.583,116.3066)">
            <path
               d="m 0,0 c -0.896,0 -1.745,0.4 -2.314,1.092 -0.571,0.691 -0.802,1.6 -0.631,2.48 L 9.586,68.061 C 10.778,74.194 10.484,78.596 8.759,80.456 7.703,81.593 4.531,83.5 -4.848,83.5 H -27.55 L -43.305,2.428 C -43.579,1.018 -44.814,0 -46.25,0 h -31.5 c -0.896,0 -1.745,0.4 -2.315,1.092 -0.57,0.691 -0.801,1.601 -0.63,2.48 l 28.328,145.751 c 0.274,1.409 1.509,2.427 2.945,2.427 h 31.5 c 0.896,0 1.745,-0.4 2.315,-1.091 0.57,-0.692 0.801,-1.601 0.63,-2.481 L -21.813,113 H 2.609 c 18.605,0 31.221,-3.28 38.569,-10.028 7.49,-6.884 9.827,-17.891 6.947,-32.719 L 34.945,2.428 C 34.671,1.018 33.437,0 32,0 Z"
               id="path3494"
               style="fill:#000000;fill-opacity:1;fill-rule:nonzero;stroke:none" />
          </g>
          <g
             id="g3496"
             transform="translate(293.6611,271.0571)">
            <path
               d="m 0,0 h -31.5 c -2.873,0 -5.342,-2.036 -5.89,-4.855 l -28.328,-145.751 c -0.342,-1.759 0.12,-3.578 1.26,-4.961 1.14,-1.383 2.838,-2.183 4.63,-2.183 h 31.5 c 2.872,0 5.342,2.036 5.89,4.855 l 15.283,78.645 h 20.229 c 9.363,0 11.328,-2 11.407,-2.086 0.568,-0.611 1.315,-3.441 0.082,-9.781 l -12.531,-64.489 c -0.342,-1.759 0.12,-3.578 1.26,-4.961 1.14,-1.383 2.838,-2.183 4.63,-2.183 h 32 c 2.872,0 5.342,2.036 5.89,4.855 l 13.179,67.825 c 3.093,15.921 0.447,27.864 -7.861,35.5 -7.928,7.281 -21.208,10.82 -40.599,10.82 H -0.253 L 5.89,-7.145 C 6.231,-5.386 5.77,-3.566 4.63,-2.184 3.49,-0.801 1.792,0 0,0 m 0,-6 -7.531,-38.75 h 28.062 c 17.657,0 29.836,-3.082 36.539,-9.238 6.703,-6.16 8.711,-16.141 6.032,-29.938 l -13.18,-67.824 h -32 l 12.531,64.488 c 1.426,7.336 0.902,12.34 -1.574,15.008 -2.477,2.668 -7.746,4.004 -15.805,4.004 h -25.176 l -16.226,-83.5 h -31.5 L -31.5,-6 H 0"
               id="path3498"
               style="fill:#ffffff;fill-opacity:1;fill-rule:nonzero;stroke:none" />
          </g>
          <g
             id="g3500"
             transform="translate(409.5498,145.3066)">
            <path
               d="m 0,0 c 12.065,0 21.072,2.225 26.771,6.611 5.638,4.34 9.532,11.861 11.574,22.353 1.903,9.806 1.178,16.653 -2.155,20.348 C 32.783,53.086 25.417,55 14.297,55 H -4.984 L -15.673,0 Z m -63.062,-67.75 c -0.895,0 -1.745,0.4 -2.314,1.092 -0.57,0.691 -0.802,1.601 -0.631,2.48 L -37.679,81.573 C -37.404,82.982 -36.17,84 -34.733,84 H 26.32 C 45.509,84 59.79,78.79 68.768,68.513 77.793,58.183 80.579,43.742 77.051,25.592 75.613,18.198 73.144,11.331 69.709,5.183 66.27,-0.972 61.725,-6.667 56.198,-11.747 49.582,-17.939 42.094,-22.429 33.962,-25.071 25.959,-27.678 15.681,-29 3.414,-29 h -24.723 l -7.057,-36.322 c -0.275,-1.41 -1.509,-2.428 -2.946,-2.428 z"
               id="path3502"
               style="fill:#000000;fill-opacity:1;fill-rule:nonzero;stroke:none" />
          </g>
          <g
             id="g3504"
             transform="translate(407.0391,197.3071)">
            <path
               d="M 0,0 H 16.808 C 30.229,0 34.891,-2.945 36.475,-4.7 39.104,-7.614 39.6,-13.758 37.91,-22.466 36.012,-32.217 32.493,-39.13 27.452,-43.012 22.29,-46.986 13.898,-49 2.511,-49 H -9.522 Z m 28.831,35 h -61.054 c -2.872,0 -5.341,-2.036 -5.889,-4.855 L -66.44,-115.606 c -0.342,-1.759 0.12,-3.578 1.259,-4.961 1.14,-1.383 2.838,-2.183 4.63,-2.183 h 31.75 c 2.872,0 5.342,2.036 5.89,4.855 L -16.324,-84 H 5.925 c 12.582,0 23.174,1.372 31.479,4.077 8.541,2.775 16.401,7.481 23.356,13.986 5.752,5.291 10.488,11.23 14.078,17.655 3.591,6.427 6.171,13.594 7.668,21.302 3.715,19.105 0.697,34.403 -8.969,45.467 C 63.965,29.444 48.924,35 28.831,35 M -16.801,-55 H 2.511 c 12.801,0 22.336,2.411 28.601,7.234 6.267,4.824 10.492,12.875 12.688,24.157 2.102,10.832 1.145,18.476 -2.871,22.929 C 36.909,3.773 28.87,6 16.808,6 H -4.946 L -16.801,-55 M 28.831,29 C 47.198,29 60.597,24.18 69.019,14.539 77.441,4.898 79.976,-8.559 76.616,-25.836 75.233,-32.953 72.894,-39.46 69.601,-45.355 66.304,-51.254 61.999,-56.648 56.679,-61.539 50.339,-67.472 43.296,-71.7 35.546,-74.218 27.796,-76.743 17.925,-78 5.925,-78 h -27.196 l -7.53,-38.75 h -31.75 L -32.223,29 h 61.054"
               id="path3576"
               style="fill:#ffffff;fill-opacity:1;fill-rule:nonzero;stroke:none" />
          </g>
        </g>
      </g>
    </g>
    <g
       fill="none"
       id="g4761"
       transform="matrix(0.09935332,0,0,0.16225141,34.396127,125.19804)">
      <path
         d="m 253.11061,313.09436 c -1.73364,0 -3.35169,-0.46231 -4.85418,-1.27134 l -15.37155,-9.13047 c -2.31152,-1.27133 -1.15576,-1.73363 -0.46231,-1.96479 3.12054,-1.04017 3.69842,-1.27133 6.93454,-3.12054 0.34673,-0.23115 0.80903,-0.11557 1.15576,0.11558 l 11.78871,7.05011 c 0.4623,0.23115 1.04018,0.23115 1.38691,0 l 46.11467,-26.69797 c 0.4623,-0.23115 0.69345,-0.69345 0.69345,-1.27133 v -53.28036 c 0,-0.57788 -0.23115,-1.04018 -0.69345,-1.27133 l -46.11467,-26.58239 c -0.46231,-0.23116 -1.04018,-0.23116 -1.38691,0 l -46.11467,26.58239 c -0.46231,0.23115 -0.69346,0.80903 -0.69346,1.27133 v 53.28036 c 0,0.4623 0.23115,1.04018 0.69346,1.27133 l 12.59774,7.28127 c 6.81896,3.46727 11.09526,-0.57788 11.09526,-4.62303 v -52.58691 c 0,-0.69345 0.57788,-1.3869 1.38691,-1.3869 h 5.89435 c 0.69346,0 1.38691,0.57788 1.38691,1.3869 v 52.58691 c 0,9.13048 -4.96975,14.44695 -13.63792,14.44695 -2.65824,0 -4.7386,0 -10.63296,-2.88938 l -12.13544,-6.93454 c -3.00497,-1.73364 -4.85418,-4.96975 -4.85418,-8.43702 v -53.28036 c 0,-3.46727 1.84921,-6.70339 4.85418,-8.43702 l 46.11467,-26.69797 c 2.88939,-1.61806 6.81896,-1.61806 9.70836,0 l 46.11467,26.69797 c 3.00496,1.73363 4.85417,4.96975 4.85417,8.43702 v 53.28036 c 0,3.46727 -1.84921,6.70338 -4.85417,8.43702 l -46.11467,26.69797 c -1.50249,0.69345 -3.23612,1.04018 -4.85418,1.04018 z m 14.2158,-36.63748 c -20.22573,0 -24.38646,-9.24605 -24.38646,-17.10519 0,-0.69345 0.57788,-1.3869 1.38691,-1.3869 h 6.00993 c 0.69346,0 1.27134,0.4623 1.27134,1.15575 0.9246,6.12551 3.58284,9.13048 15.83386,9.13048 9.70835,0 13.86907,-2.19594 13.86907,-7.39684 0,-3.00497 -1.15576,-5.20091 -16.29616,-6.70339 -12.59774,-1.27133 -20.45689,-4.04515 -20.45689,-14.10023 0,-9.36162 7.85915,-14.90925 21.03477,-14.90925 14.79368,0 22.07494,5.08533 22.99955,16.18059 0,0.34672 -0.11558,0.69345 -0.34673,1.04018 -0.23115,0.23115 -0.57788,0.4623 -0.92461,0.4623 h -6.00993 c -0.57788,0 -1.15576,-0.4623 -1.27133,-1.04018 -1.38691,-6.35666 -4.96975,-8.43702 -14.44695,-8.43702 -10.63296,0 -11.90429,3.69842 -11.90429,6.47223 0,3.3517 1.50248,4.39188 15.83386,6.24109 14.2158,1.84921 20.91918,4.50745 20.91918,14.44695 -0.11557,10.17065 -8.43701,15.94943 -23.11512,15.94943 z"
         fill="#539e43"
         id="path4716" />
      <path
         d="m 110.02799,104.71151 c 0,-2.08036 -1.15575,-4.04514 -3.00496,-5.085325 L 58.018962,71.425734 c -0.80903,-0.462303 -1.733635,-0.693454 -2.65824,-0.80903 H 54.89842 c -0.924605,0 -1.84921,0.346727 -2.658239,0.80903 L 3.2361174,99.626185 c -1.84921,1.040185 -3.00496616,3.004965 -3.00496616,5.085325 l 0.11557562,75.81761 c 0,1.04018 0.57787811,2.08036 1.50248304,2.54266 0.924605,0.57788 2.0803612,0.57788 2.8893905,0 L 33.863657,166.42889 c 1.84921,-1.04018 3.004966,-3.00496 3.004966,-5.08532 v -35.48172 c 0,-2.08036 1.155756,-4.04515 3.004966,-5.08533 l 12.366592,-7.16569 c 0.924605,-0.57787 1.964785,-0.80902 3.004966,-0.80902 1.04018,0 2.080361,0.23115 2.88939,0.80902 l 12.366592,7.16569 c 1.84921,1.04018 3.004966,3.00497 3.004966,5.08533 v 35.48172 c 0,2.08036 1.155756,4.04514 3.004966,5.08532 l 29.125059,16.64289 c 0.9246,0.57788 2.08036,0.57788 3.00496,0 0.92461,-0.4623 1.50249,-1.50248 1.50249,-2.54266 z"
         fill="#333333"
         id="path4718" />
      <path
         d="m 345.57111,0.34672686 c -0.92461,-0.46230248 -2.08037,-0.46230248 -2.88939,0 -0.92461,0.57787811 -1.50249,1.50248304 -1.50249,2.54266364 V 78.013544 c 0,0.693454 -0.34672,1.386908 -1.04018,1.84921 -0.69345,0.346727 -1.38691,0.346727 -2.08036,0 l -12.25101,-7.050113 c -1.84922,-1.040181 -4.04515,-1.040181 -5.89436,0 l -49.00407,28.316029 c -1.84921,1.04018 -3.00496,3.00496 -3.00496,5.08532 v 56.51648 c 0,2.08036 1.15575,4.04515 3.00496,5.08533 l 49.00407,28.31603 c 1.84921,1.04018 4.04514,1.04018 5.89436,0 l 49.00406,-28.31603 c 1.84921,-1.04018 3.00496,-3.00497 3.00496,-5.08533 V 21.843792 c 0,-2.195937 -1.15575,-4.160722 -3.00496,-5.200903 z M 341.06366,144.1228 c 0,0.57788 -0.23115,1.04018 -0.69346,1.27133 l -16.75846,9.70835 c -0.4623,0.23115 -1.04018,0.23115 -1.50248,0 l -16.75847,-9.70835 c -0.4623,-0.23115 -0.69345,-0.80903 -0.69345,-1.27133 v -19.4167 c 0,-0.57788 0.23115,-1.04019 0.69345,-1.27134 l 16.75847,-9.70835 c 0.4623,-0.23115 1.04018,-0.23115 1.50248,0 l 16.75846,9.70835 c 0.46231,0.23115 0.69346,0.80903 0.69346,1.27134 z"
         fill="#333333"
         id="path4720" />
      <g
         transform="translate(401.0474,70.501129)"
         id="g4726">
        <path
           d="m 107.6009,53.742664 c 1.84921,-1.040181 2.88939,-3.004966 2.88939,-5.085328 V 34.903838 c 0,-2.080362 -1.15575,-4.045147 -2.88939,-5.085328 L 58.943567,1.6180587 c -1.84921,-1.0401806 -4.045147,-1.0401806 -5.894357,0 L 4.0451467,29.934086 c -1.8492099,1.04018 -3.0049661,3.004966 -3.0049661,5.085327 v 56.516479 c 0,2.080361 1.1557562,4.045146 3.0049661,5.085327 L 52.702483,124.35937 c 1.84921,1.04018 4.045147,1.04018 5.778781,0 l 29.471783,-16.41174 c 0.924605,-0.4623 1.502483,-1.50248 1.502483,-2.54266 0,-1.04018 -0.577878,-2.08036 -1.502483,-2.54267 L 38.717833,74.546275 C 37.793228,73.968397 37.21535,73.043792 37.21535,72.003612 v -17.68307 c 0,-1.040181 0.577878,-2.080361 1.502483,-2.542664 L 54.08939,42.994131 c 0.924605,-0.577878 2.080362,-0.577878 3.004967,0 l 15.371557,8.783747 c 0.924605,0.577878 1.502483,1.502483 1.502483,2.542664 v 13.869074 c 0,1.040181 0.577878,2.080361 1.502483,2.542664 0.924605,0.577878 2.080362,0.577878 3.004967,0 z"
           fill="#333333"
           id="path4722" />
        <path
           d="m 55.245147,51.084424 c 0.346727,-0.231151 0.809029,-0.231151 1.155756,0 l 9.361625,5.432055 c 0.346727,0.231151 0.577878,0.577878 0.577878,1.04018 v 10.864108 c 0,0.462303 -0.231151,0.80903 -0.577878,1.040181 l -9.361625,5.432054 c -0.346727,0.231152 -0.809029,0.231152 -1.155756,0 L 45.883521,69.460948 C 45.536795,69.229797 45.305643,68.88307 45.305643,68.420767 V 57.556659 c 0,-0.462302 0.231152,-0.809029 0.577878,-1.04018 z"
           fill="#539e43"
           id="path4724" />
      </g>
      <g
         transform="translate(134.06772,70.501129)"
         id="g4759">
        <mask
           id="mask-3-2"
           fill="#ffffff">
          <use
             xlink:href="#path-2"
             id="use4728"
             x="0"
             y="0"
             width="100%"
             height="100%" />
        </mask>
        <use
           fill="url(#linearGradient-1)"
           xlink:href="#path-2"
           id="use4731"
           style="fill:url(#linearGradient-1-3)"
           x="0"
           y="0"
           width="100%"
           height="100%" />
        <g
           mask="url(#mask-3-2)"
           id="g4739">
          <path
             d="M 51.893454,1.8492099 3.1205418,29.934086 C 1.2713318,30.974266 0,32.939052 0,35.019413 V 91.30474 c 0,1.386908 0.5778781,2.65824 1.5024831,3.69842 L 56.285327,1.1557562 C 54.89842,0.92460497 53.280361,1.0401806 51.893454,1.8492099 Z"
             id="path4733" />
          <path
             d="m 56.632054,125.05282 c 0.462303,-0.11557 0.924605,-0.34672 1.386908,-0.57788 L 106.79187,96.390068 c 1.84921,-1.040181 3.00497,-3.004966 3.00497,-5.085328 V 35.019413 c 0,-1.502483 -0.69345,-3.004966 -1.73364,-4.045147 z"
             id="path4735" />
          <path
             d="M 106.6763,29.934086 57.78781,1.8492099 C 57.325508,1.6180587 56.74763,1.3869074 56.285327,1.2713318 L 1.5024831,95.118736 c 0.4623024,0.577878 1.0401806,1.040181 1.6180587,1.386907 L 52.009029,124.59052 c 1.386908,0.80903 3.004966,1.04018 4.50745,0.57788 L 107.94763,31.089842 c -0.34673,-0.462303 -0.80903,-0.809029 -1.27133,-1.155756 z"
             fill="url(#linearGradient-4)"
             id="path4737"
             style="fill:url(#linearGradient-4-6)" />
        </g>
        <g
           mask="url(#mask-3-2)"
           id="g4757">
          <g
             transform="translate(0,-9.24605)"
             id="g4755">
            <path
               d="M 109.79684,100.55079 V 44.265463 c 0,-2.080361 -1.27133,-4.045147 -3.12054,-5.085328 L 57.78781,11.09526 C 57.209932,10.748533 56.632054,10.517382 55.9386,10.401806 l 53.51151,91.420314 c 0.23115,-0.34672 0.34673,-0.80903 0.34673,-1.27133 z"
               fill="none"
               id="path4741" />
            <path
               d="M 3.1205418,39.180135 C 1.2713318,40.220316 0,42.185102 0,44.265463 v 56.285327 c 0,2.08036 1.3869074,4.04515 3.1205418,5.08533 l 48.8884872,28.08487 c 1.155757,0.69346 2.427088,0.92461 3.813996,0.69346 L 3.4672686,39.06456 Z"
               fill="none"
               id="path4743" />
            <path
               fill="url(#linearGradient-5)"
               fill-rule="evenodd"
               d="M 50.390971,0.80902934 49.697517,1.1557562 h 0.924605 z"
               id="path4745"
               style="fill:url(#linearGradient-5-7)" />
            <path
               d="m 106.79187,105.63612 c 1.38691,-0.80903 2.42709,-2.19594 2.88939,-3.69842 L 56.054176,10.401806 c -1.386907,-0.231151 -2.88939,-0.115576 -4.160722,0.693454 l -48.541761,27.9693 52.355756,95.46546 c 0.693454,-0.11557 1.502483,-0.34672 2.195937,-0.69345 z"
               fill="url(#linearGradient-6)"
               fill-rule="evenodd"
               id="path4747"
               style="fill:url(#linearGradient-6-5)" />
            <path
               fill="url(#linearGradient-7)"
               fill-rule="evenodd"
               d="m 111.29932,104.71151 -0.34672,-0.57788 v 0.80903 z"
               id="path4749"
               style="fill:url(#linearGradient-7-3)" />
            <path
               d="m 106.79187,105.63612 -48.772908,28.08487 c -0.693454,0.34673 -1.386908,0.57788 -2.195937,0.69346 l 0.924605,1.73363 54.08939,-31.32099 v -0.69346 l -1.38691,-2.31151 c -0.23115,1.61806 -1.27133,3.00497 -2.65824,3.814 z"
               fill="url(#linearGradient-8)"
               fill-rule="evenodd"
               id="path4751"
               style="fill:url(#linearGradient-8-5)" />
            <path
               d="m 106.79187,105.63612 -48.772908,28.08487 c -0.693454,0.34673 -1.386908,0.57788 -2.195937,0.69346 l 0.924605,1.73363 54.08939,-31.32099 v -0.69346 l -1.38691,-2.31151 c -0.23115,1.61806 -1.27133,3.00497 -2.65824,3.814 z"
               fill="url(#linearGradient-9)"
               fill-rule="evenodd"
               id="path4753"
               style="fill:url(#linearGradient-9-6)" />
          </g>
        </g>
      </g>
    </g>
  </g>
</svg>
